<svg width="144" height="23" viewBox="0 0 144 23" fill="none" xmlns="http://www.w3.org/2000/svg">
<g clip-path="url(#clip0_1827_2862)">
<path d="M38.5231 12.3733C41.6777 10.4183 40.0289 7.13601 36.5935 6.81442C35.0009 6.66639 33.199 6.92672 31.5859 6.81442V18.4835H37.1448C40.9835 18.4835 42.2903 13.6852 38.5231 12.3733ZM34.1178 9.0145C34.7304 9.06554 35.445 8.94303 36.0422 9.0145C38.1964 9.27483 37.7268 11.5464 36.1545 11.5464H34.1178V9.0145ZM36.4863 16.2834H34.1178C34.2454 15.6913 33.9494 14.1548 34.1178 13.6954C34.2097 13.4504 36.3587 13.5882 36.7007 13.6444C38.911 13.9864 38.375 16.2834 36.4812 16.2834H36.4863Z" fill="#989898"/>
<path d="M55.7855 6.62512C48.4604 7.45206 49.027 18.917 56.9646 18.5903C65.0196 18.2585 64.5041 5.63994 55.7855 6.62512ZM57.0769 16.2779C52.2378 16.7424 52.0081 9.09064 56.4542 8.82009C60.9156 8.54955 61.375 15.8644 57.0769 16.2779Z" fill="#989898"/>
<path d="M83.17 6.8137C82.8485 6.8137 79.5458 11.1577 78.8209 11.5456V6.8137H76.2891V18.4828H78.8209V15.124C78.8209 15.0372 79.8521 14.0673 79.9746 13.858C80.5157 14.3225 83.0986 18.4777 83.3895 18.4777H86.3094L81.8071 11.9438L86.3094 6.80859H83.17V6.8137Z" fill="#989898"/>
<path d="M73.04 10.5574L74.6122 8.74019C73.2289 7.06589 71.1411 6.38698 68.9972 6.62689C64.7502 7.10162 62.4888 12.0786 64.597 15.6977C66.6491 19.2199 72.0599 19.6283 74.5152 16.3562L72.9277 14.636C70.5541 17.5252 66.1386 16.1214 66.4908 12.1603C66.7818 8.82697 71.1054 8.02555 73.04 10.5574Z" fill="#989898"/>
<path d="M137.302 6.83508C136.873 7.06989 133.632 14.6349 132.769 15.5129L128.344 6.83508L126.93 6.81466V18.4837H127.92V8.57574L132.422 17.0953L133.04 17.1719L137.716 8.57574V18.4837H138.706V6.81466C138.384 6.88102 137.511 6.71257 137.292 6.83508H137.302Z" fill="#989898"/>
<path d="M45.1334 6.81445H42.6016V18.4835H50.0849V16.1712H45.1334V6.81445Z" fill="#989898"/>
<path d="M109.434 6.81555V16.6164L102.39 6.9789L101.062 6.81555V18.4846C101.062 18.5408 102.165 18.5408 102.165 18.4846V8.68383L109.266 18.3723L110.532 18.4846V6.81555C110.532 6.7594 109.429 6.7594 109.429 6.81555H109.434Z" fill="#989898"/>
<path d="M118.44 6.73404C110.65 7.06584 111.049 18.592 118.736 18.592C126.424 18.592 126.669 6.38182 118.44 6.73404ZM119.492 17.4792C112.861 18.2857 111.932 8.67889 117.884 7.83152C124.724 6.85655 125.495 16.7492 119.492 17.4792Z" fill="#989898"/>
<path d="M92.5628 6.73401C84.8804 7.0607 85.1509 18.5409 92.8589 18.592C100.863 18.643 100.904 6.38179 92.5628 6.73401ZM93.6143 17.4792C86.9529 18.25 86.131 8.58697 92.1187 7.8366C98.9742 6.97392 99.5765 16.7951 93.6143 17.4792Z" fill="#989898"/>
<path d="M142.016 6.81487V18.4839C142.016 18.5401 143.118 18.5401 143.118 18.4839V6.81487C142.985 6.8557 142.016 6.75872 142.016 6.81487Z" fill="#989898"/>
<path d="M13.64 0.0981715C13.737 0.128799 13.737 0.164531 13.64 0.210472C13.7064 1.63465 13.7217 3.09967 13.6962 4.59531C13.834 4.64125 13.8085 4.68719 13.64 4.72292L13.5635 4.94242H9.32155C9.43385 6.39212 9.36749 7.82141 9.12247 9.23538C7.68808 9.56207 6.20264 9.50081 4.74784 9.34257C4.89077 10.8127 4.78867 12.2879 4.61001 13.7529C3.18583 14.0796 1.50643 14.1205 0.0975621 13.7529C0.0822484 11.6549 -0.229131 2.6862 0.347687 1.39474C0.541661 0.965951 0.965341 0.54227 1.39413 0.348296C2.71621 -0.238731 11.5114 0.0981715 13.64 0.0981715Z" fill="#989898"/>
<path d="M4.61223 13.7528C4.69901 13.7528 4.82662 13.7733 4.83173 13.8294C4.91851 14.8963 4.95424 17.1066 4.83173 18.1377L4.61223 18.2653C4.61223 18.1785 4.62755 18.056 4.6888 18.0458C5.51574 17.908 7.9149 17.9794 8.83372 18.0458L8.96644 18.2653C9.05322 18.1071 9.1451 18.3265 9.12979 18.4286C9.21657 18.4286 9.34418 18.4491 9.34929 18.5052C9.4718 19.4547 9.43096 21.6547 9.34929 22.6501L9.12979 22.7829C9.12979 22.6961 9.15021 22.5685 9.20636 22.5634C10.263 22.4766 12.4988 22.4357 13.5146 22.5634L13.6422 22.7829C13.7392 22.8135 13.7392 22.8492 13.6422 22.8952C10.6867 22.9564 7.56268 22.9717 4.61223 22.8952L4.39274 22.8237C4.41315 21.3893 4.37232 19.9753 4.28043 18.5869L0.252917 18.495L0.0997797 18.2704C0.0640476 16.7697 0.109989 15.2587 0.0997797 13.7579C1.60053 13.7784 3.11148 13.7324 4.61223 13.7579V13.7528Z" fill="#C3C3C3"/>
<path d="M22.338 4.72167C22.3278 4.80844 22.2971 4.93606 22.2359 4.94116C20.9751 4.99221 19.4947 4.94116 18.2186 4.89012C18.1777 4.89012 18.142 4.81355 18.1012 4.71656C16.6311 4.68083 15.1711 4.66041 13.7112 4.66552C13.6602 3.16477 13.6704 1.67933 13.747 0.20411C14.3595 0.153064 14.9874 0.117332 15.6203 0.0918089C18.7341 0.0867043 21.3528 1.70996 22.338 4.71656V4.72167Z" fill="#C3C3C3"/>
<path d="M18.1571 18.2645C18.3102 18.1165 18.3664 18.1778 18.2694 18.3768C18.3204 18.3768 18.3715 18.3768 18.4174 18.3871C18.6012 18.4534 18.4531 22.0726 18.3868 22.2563L18.1622 22.4503C16.4215 23.0322 15.4261 22.8536 13.6497 22.8893V22.777C13.5629 22.777 13.4353 22.7566 13.4302 22.7004C13.3792 21.8582 13.2822 19.0711 13.4302 18.3922L13.6497 18.2645C15.1249 17.943 16.687 17.9276 18.1622 18.2645H18.1571Z" fill="#C3C3C3"/>
<path d="M22.3355 13.7525C22.9276 15.4778 22.8919 16.5447 22.3355 18.2649L22.1415 18.4895L18.3947 18.5916L18.262 18.3772L18.1497 18.2649C18.0629 18.2649 17.9353 18.2445 17.9302 18.1884C17.8792 17.3461 17.7822 14.559 17.9302 13.8801L18.1497 13.7525C18.0119 13.5891 18.0732 13.5279 18.262 13.6402L18.6347 13.4258C19.7424 13.5075 20.85 13.5483 21.9577 13.5534L22.3355 13.7474V13.7525Z" fill="#C3C3C3"/>
<path d="M13.7529 0.209848V4.6151L22.3388 4.7223C22.9003 6.44254 22.931 7.51451 22.3388 9.23475L22.1398 9.44914C20.8891 9.45425 19.6436 9.45935 18.393 9.45425L18.2654 9.23475L18.0408 9.11224L17.9438 5.00816C16.6115 4.95711 15.2843 4.91117 13.9622 4.86523L13.6406 4.7172V0.209848C13.6713 0.138384 13.7121 0.138384 13.7529 0.209848Z" fill="#C3C3C3"/>
<path d="M4.6062 22.8904C0.139691 22.7781 0.190737 22.6658 0.09375 18.2656L4.56026 18.3677L4.6062 22.8904Z" fill="#C3C3C3"/>
<path d="M22.3385 9.23485C22.1139 9.88824 21.0266 11.3584 21.0266 11.4911C21.0266 11.6238 22.1139 13.0939 22.3385 13.7473C20.9909 13.8647 19.6025 13.635 18.2651 13.635C18.1783 13.635 18.0507 13.6197 18.0456 13.5686C17.9384 12.5579 17.8414 10.3374 17.9384 9.36757L18.1528 9.23485C18.1834 9.13786 18.2191 9.13786 18.2651 9.23485H22.3385Z" fill="#C3C3C3"/>
<path d="M22.342 18.2656C21.6529 20.3942 20.2644 21.7418 18.1562 22.4514L18.2685 18.3779L22.342 18.2656Z" fill="#C3C3C3"/>
<path d="M15.6185 0.0976562C15.0978 0.0976562 14.3372 0.322258 13.7451 0.209957H13.6328V0.0976562H15.6134H15.6185Z" fill="#14D0EB"/>
<path d="M9.12964 9.2335C9.39508 10.7751 9.39508 12.3167 9.12964 13.8582C8.757 14.1084 8.3027 14.19 7.77182 14.1033C6.77643 14.1186 5.50028 14.1135 4.61719 13.7459C4.61719 12.2452 4.61719 10.7342 4.61719 9.2335C6.11794 9.22839 7.62889 9.2437 9.12964 9.2335Z" fill="#C3C3C3"/>
<path d="M13.6385 4.72266C13.7253 4.72266 13.858 4.74307 13.858 4.79922C13.904 5.5496 14.001 8.5613 13.858 9.10749L13.6385 9.23511C12.1429 9.53628 10.6217 9.53117 9.12607 9.23511C9.13628 7.73436 9.12097 6.2234 9.12607 4.72266H13.6385Z" fill="#C3C3C3"/>
<path d="M9.12964 13.8591C9.45123 15.2629 9.39508 16.7177 9.25725 18.1419C10.7121 18.0041 12.2128 17.9173 13.6421 18.2644V22.7769H9.12964V18.4278L8.96629 18.2644H4.61719V13.752C6.11283 13.7775 7.62889 13.9612 9.12964 13.8643V13.8591Z" fill="#C3C3C3"/>
<path d="M18.1544 13.7532V18.2656C16.6536 18.2554 15.1427 18.2758 13.6419 18.2656C13.5551 18.2656 13.4275 18.2452 13.4224 18.189C13.3714 17.3468 13.2744 14.5597 13.4224 13.8808L13.6419 13.7532C13.6419 13.6664 13.6623 13.5388 13.7185 13.5337C14.7904 13.4367 16.9752 13.4214 18.0267 13.5337L18.1544 13.7532Z" fill="#C3C3C3"/>
<path d="M18.1544 9.23381L18.2667 13.6391C18.236 13.6391 18.1799 13.7514 18.1544 13.7514H13.6419C13.5551 13.7514 13.4275 13.731 13.4224 13.6748C13.3714 12.8325 13.2744 10.0454 13.4224 9.36653L13.6419 9.23892C15.1427 9.02453 16.6536 9.02453 18.1544 9.23892V9.23381Z" fill="#C3C3C3"/>
<path d="M18.2654 9.23494H18.1531C16.6523 9.23494 15.1414 9.23494 13.6406 9.23494V4.72249C15.1465 4.72249 16.6574 4.68165 18.1633 4.76843L18.2654 9.23494Z" fill="#C3C3C3"/>
<path d="M13.6373 9.23501V18.265C12.1365 18.2548 10.6256 18.2752 9.12484 18.265C9.11974 16.8 9.13505 15.3248 9.12484 13.8598C9.11464 12.3182 9.11464 10.7766 9.12484 9.23501C10.6256 9.2248 12.1365 9.23501 13.6373 9.23501Z" fill="#C3C3C3"/>
</g>
<defs>
<clipPath id="clip0_1827_2862">
<rect width="143.117" height="22.94" fill="white"/>
</clipPath>
</defs>
</svg>
