<svg width="103" height="24" viewBox="0 0 103 24" fill="none" xmlns="http://www.w3.org/2000/svg">
<path d="M9.31486 3.89751C5.78974 5.00343 3.60094 8.71287 4.19998 12.5606C5.14462 18.551 12.4483 21.0162 17.0103 16.8921C18.0701 15.9474 19.3603 13.5743 19.3603 12.5836C19.3603 11.9385 19.3603 11.9385 17.8167 11.9385H16.2499L15.6739 13.1596C14.1533 16.3161 10.0983 16.6847 8.27806 13.8047C7.42558 12.4914 7.24126 11.4316 7.58686 10.1183C8.55454 6.47799 12.5866 5.51031 15.1671 8.27512L15.8583 9.01239L17.1255 8.11383C18.6 7.07703 18.6 7.00791 16.8029 5.39511C15.9735 4.63479 15.2131 4.19704 14.1303 3.87448C12.2871 3.29847 11.1351 3.29847 9.31486 3.89751Z" fill="white"/>
<path d="M31.3852 4.17541C30.7401 4.84357 30.7401 5.48869 31.3622 6.27205C32.3529 7.53925 34.3343 6.80197 34.3343 5.16613C34.3343 3.71461 32.422 3.06949 31.3852 4.17541Z" fill="white"/>
<path d="M46.7734 11.1087V18.6198H48.3862H49.999V17.606V16.6153L51.7501 16.477C55.713 16.1775 58.0861 13.7583 58.1322 9.97975C58.1782 7.44534 56.8419 5.37174 54.4918 4.28886C53.5011 3.8511 52.879 3.75894 50.0682 3.68982L46.7734 3.59766V11.1087ZM52.5795 6.86934C54.3766 7.37622 55.3674 9.93368 54.4458 11.6847C53.8467 12.8367 53.0634 13.2975 51.4506 13.4588L49.999 13.6201V10.118V6.63894H50.8746C51.3354 6.63894 52.1187 6.75414 52.5795 6.86934Z" fill="white"/>
<path d="M76.2702 6.27109V8.92069L75.4638 8.57509C73.3211 7.69957 70.6946 8.85157 69.5656 11.1786C68.4136 13.5517 69.1509 16.5469 71.2705 18.0445C72.1461 18.6666 72.3995 18.7357 73.9662 18.7127C74.9109 18.6896 76.5006 18.6666 77.4914 18.6666L79.2654 18.6435V11.1555V3.64453H77.7678H76.2702V6.27109ZM75.7403 11.985C76.7771 12.9527 76.5698 14.9802 75.3717 15.6253C73.9432 16.3626 72.123 15.2797 72.123 13.6669C72.123 12.6071 72.4225 12.0311 73.2289 11.5933C74.0123 11.1555 75.0261 11.3168 75.7403 11.985Z" fill="white"/>
<path d="M80.6955 4.01334C80.0274 4.47414 80.0044 5.76438 80.6495 6.4095C81.3407 7.1007 82.5618 7.03158 83.1608 6.27126C83.4373 5.92566 83.6447 5.4879 83.6447 5.2575C83.6447 5.0271 83.4373 4.58934 83.1608 4.24374C82.6079 3.55254 81.5019 3.43733 80.6955 4.01334Z" fill="white"/>
<path d="M22.9305 8.80521C21.5481 9.45033 20.926 10.0954 20.3039 11.4778C18.7372 14.9338 21.2947 18.8276 25.1423 18.8506C27.9763 18.8506 30.2111 16.8462 30.3724 14.1044C30.5337 11.593 29.5199 9.81895 27.3081 8.80521C25.8105 8.09097 24.4051 8.09097 22.9305 8.80521ZM26.8243 12.1921C27.3772 12.8142 27.4463 13.0676 27.3542 13.874C27.1929 15.0951 26.3404 15.8554 25.1423 15.8554C22.9075 15.8554 22.1241 12.8833 24.0595 11.6852C25.0041 11.0862 25.9718 11.2705 26.8243 12.1921Z" fill="white"/>
<path d="M39.0133 8.60014C38.5986 8.78447 38.253 8.83055 38.253 8.71534C38.253 8.5771 37.5849 8.48494 36.7554 8.48494H35.2578V13.5538V18.6226H36.7554H38.253V15.7195C38.253 14.0837 38.3682 12.6322 38.5065 12.3557C38.7599 11.8949 40.0041 11.2498 40.6722 11.2498C40.8796 11.2498 41.3634 11.5493 41.7321 11.9179L42.4002 12.5861V15.6043V18.6226H43.8978H45.3954V15.3278C45.3954 12.6322 45.3033 11.8949 44.9577 11.1346C43.8748 8.80751 41.1791 7.65551 39.0133 8.60014Z" fill="white"/>
<path d="M62.1708 8.48168C59.5443 9.26504 57.9084 12.099 58.5305 14.7486C59.2908 17.859 62.5855 19.587 65.9263 18.5963C66.7558 18.3428 68.4377 17.1448 68.4377 16.7992C68.4377 16.707 67.9078 16.2462 67.2857 15.7854L66.1337 14.9329L65.4655 15.4168C65.0739 15.6932 64.567 15.8545 64.1753 15.8084C63.5993 15.7393 63.7836 15.555 66.1107 13.9192C67.5852 12.8593 68.6681 11.9377 68.6681 11.7073C68.6681 11.2004 67.7004 9.93323 66.8019 9.26504C65.5347 8.34344 63.6915 8.02088 62.1708 8.48168ZM64.4057 11.4539C64.7743 11.6152 64.6131 11.7995 63.2537 12.8132C62.0556 13.6657 61.6179 13.8961 61.5718 13.6196C61.4105 12.9284 61.7791 12.1451 62.5164 11.7073C63.2998 11.2235 63.6684 11.1774 64.4057 11.4539Z" fill="white"/>
<path d="M87.373 8.55101C84.4239 9.63386 83.0876 13.3663 84.6543 16.2003C84.9999 16.8454 85.7141 17.6518 86.244 18.0435C87.1196 18.6655 87.373 18.7347 88.9397 18.7116C89.8844 18.6886 91.4741 18.6655 92.4648 18.6655L94.2389 18.6425V13.5737V8.48189H92.7413C91.9119 8.48189 91.2437 8.57405 91.2437 8.68925C91.2437 8.82749 90.8751 8.75837 90.4373 8.57405C89.4927 8.18237 88.4328 8.18237 87.373 8.55101ZM90.7138 11.9839C91.7506 12.9516 91.5432 14.9791 90.3452 15.6243C88.9167 16.3615 87.0965 15.2787 87.0965 13.6659C87.0965 12.606 87.396 12.03 88.2024 11.5923C88.9858 11.1545 89.9996 11.3158 90.7138 11.9839Z" fill="white"/>
<path d="M31.1094 13.5532V18.622H32.6069H34.1045V13.5532V8.48438H32.6069H31.1094V13.5532Z" fill="white"/>
<path d="M80.4141 13.5532V18.622H81.9117H83.4093V13.5532V8.48438H81.9117H80.4141V13.5532Z" fill="white"/>
<path d="M99.0587 14.6953H95.2188V18.5353H99.0587V14.6953Z" fill="white"/>
</svg>
