<svg width="144" height="23" viewBox="0 0 144 23" fill="none" xmlns="http://www.w3.org/2000/svg">
<g clip-path="url(#clip0_2118_669)">
<path d="M38.5231 12.3714C41.6777 10.4163 40.0289 7.13406 36.5935 6.81247C35.0009 6.66444 33.199 6.92477 31.5859 6.81247V18.4815H37.1448C40.9835 18.4815 42.2903 13.6832 38.5231 12.3714ZM34.1178 9.01255C34.7304 9.06359 35.445 8.94108 36.0422 9.01255C38.1964 9.27288 37.7268 11.5444 36.1545 11.5444H34.1178V9.01255ZM36.4863 16.2815H34.1178C34.2454 15.6893 33.9494 14.1529 34.1178 13.6934C34.2097 13.4484 36.3587 13.5863 36.7007 13.6424C38.911 13.9844 38.375 16.2815 36.4812 16.2815H36.4863Z" fill="#989898"/>
<path d="M55.7855 6.62512C48.4604 7.45206 49.027 18.917 56.9646 18.5903C65.0196 18.2585 64.5041 5.63994 55.7855 6.62512ZM57.0769 16.2779C52.2378 16.7424 52.0081 9.09064 56.4542 8.82009C60.9156 8.54955 61.375 15.8644 57.0769 16.2779Z" fill="#989898"/>
<path d="M83.17 6.8137C82.8485 6.8137 79.5458 11.1577 78.8209 11.5456V6.8137H76.2891V18.4828H78.8209V15.124C78.8209 15.0372 79.8521 14.0673 79.9746 13.858C80.5157 14.3225 83.0986 18.4777 83.3895 18.4777H86.3094L81.8071 11.9438L86.3094 6.80859H83.17V6.8137Z" fill="#989898"/>
<path d="M73.04 10.5555L74.6122 8.73824C73.2289 7.06393 71.1411 6.38502 68.9972 6.62494C64.7502 7.09967 62.4888 12.0766 64.597 15.6958C66.6491 19.2179 72.0599 19.6263 74.5152 16.3543L72.9277 14.634C70.5541 17.5232 66.1386 16.1195 66.4908 12.1583C66.7818 8.82501 71.1054 8.0236 73.04 10.5555Z" fill="#989898"/>
<path d="M137.302 6.83508C136.873 7.06989 133.632 14.6349 132.769 15.5129L128.344 6.83508L126.93 6.81466V18.4837H127.92V8.57574L132.422 17.0953L133.04 17.1719L137.716 8.57574V18.4837H138.706V6.81466C138.384 6.88102 137.511 6.71257 137.292 6.83508H137.302Z" fill="#989898"/>
<path d="M45.1334 6.8125H42.6016V18.4816H50.0849V16.1692H45.1334V6.8125Z" fill="#989898"/>
<path d="M109.434 6.81555V16.6164L102.39 6.9789L101.062 6.81555V18.4846C101.062 18.5408 102.165 18.5408 102.165 18.4846V8.68383L109.266 18.3723L110.532 18.4846V6.81555C110.532 6.7594 109.429 6.7594 109.429 6.81555H109.434Z" fill="#989898"/>
<path d="M118.44 6.73404C110.65 7.06584 111.049 18.592 118.736 18.592C126.424 18.592 126.669 6.38182 118.44 6.73404ZM119.492 17.4792C112.861 18.2857 111.932 8.67889 117.884 7.83152C124.724 6.85655 125.495 16.7492 119.492 17.4792Z" fill="#989898"/>
<path d="M92.5628 6.73401C84.8804 7.0607 85.1509 18.5409 92.8589 18.592C100.863 18.643 100.904 6.38179 92.5628 6.73401ZM93.6143 17.4792C86.9529 18.25 86.131 8.58697 92.1187 7.8366C98.9742 6.97392 99.5765 16.7951 93.6143 17.4792Z" fill="#989898"/>
<path d="M142.016 6.81487V18.4839C142.016 18.5401 143.118 18.5401 143.118 18.4839V6.81487C142.985 6.8557 142.016 6.75872 142.016 6.81487Z" fill="#989898"/>
<path d="M13.64 0.0962184C13.737 0.126846 13.737 0.162578 13.64 0.208519C13.7064 1.6327 13.7217 3.09771 13.6962 4.59336C13.834 4.6393 13.8085 4.68524 13.64 4.72097L13.5635 4.94047H9.32154C9.43385 6.39017 9.36749 7.81945 9.12247 9.23342C7.68808 9.56012 6.20264 9.49886 4.74784 9.34062C4.89077 10.8107 4.78867 12.286 4.61001 13.751C3.18583 14.0777 1.50643 14.1185 0.0975621 13.751C0.0822484 11.653 -0.229131 2.68424 0.347687 1.39278C0.541661 0.963998 0.965341 0.540317 1.39413 0.346343C2.71621 -0.240684 11.5114 0.0962184 13.64 0.0962184Z" fill="#989898"/>
<path d="M4.61223 13.7489C4.69901 13.7489 4.82662 13.7694 4.83173 13.8255C4.91851 14.8924 4.95424 17.1026 4.83173 18.1338L4.61223 18.2614C4.61223 18.1746 4.62755 18.0521 4.6888 18.0419C5.51574 17.9041 7.9149 17.9755 8.83372 18.0419L8.96644 18.2614C9.05322 18.1031 9.1451 18.3226 9.12979 18.4247C9.21657 18.4247 9.34418 18.4452 9.34929 18.5013C9.4718 19.4508 9.43096 21.6508 9.34929 22.6462L9.12979 22.7789C9.12979 22.6922 9.15021 22.5646 9.20636 22.5594C10.263 22.4727 12.4988 22.4318 13.5146 22.5594L13.6422 22.7789C13.7392 22.8096 13.7392 22.8453 13.6422 22.8912C10.6867 22.9525 7.56268 22.9678 4.61223 22.8912L4.39274 22.8198C4.41315 21.3854 4.37232 19.9714 4.28043 18.583L0.252917 18.4911L0.0997797 18.2665C0.0640476 16.7657 0.109989 15.2548 0.0997797 13.754C1.60053 13.7745 3.11148 13.7285 4.61223 13.754V13.7489Z" fill="#C3C3C3"/>
<path d="M22.338 4.71971C22.3278 4.80649 22.2971 4.93411 22.2359 4.93921C20.9751 4.99026 19.4947 4.93921 18.2186 4.88816C18.1777 4.88816 18.142 4.8116 18.1012 4.71461C16.6311 4.67888 15.1711 4.65846 13.7112 4.66356C13.6602 3.16282 13.6704 1.67738 13.747 0.202157C14.3595 0.151111 14.9874 0.115379 15.6203 0.0898558C18.7341 0.0847512 21.3528 1.70801 22.338 4.71461V4.71971Z" fill="#C3C3C3"/>
<path d="M18.1571 18.2626C18.3102 18.1146 18.3664 18.1758 18.2694 18.3749C18.3204 18.3749 18.3715 18.3749 18.4174 18.3851C18.6012 18.4515 18.4531 22.0706 18.3868 22.2544L18.1622 22.4484C16.4215 23.0303 15.4261 22.8516 13.6497 22.8873V22.775C13.5629 22.775 13.4353 22.7546 13.4302 22.6985C13.3792 21.8562 13.2822 19.0691 13.4302 18.3902L13.6497 18.2626C15.1249 17.941 16.687 17.9257 18.1622 18.2626H18.1571Z" fill="#C3C3C3"/>
<path d="M22.3355 13.7486C22.9276 15.4739 22.8919 16.5408 22.3355 18.261L22.1415 18.4856L18.3947 18.5877L18.262 18.3733L18.1497 18.261C18.0629 18.261 17.9353 18.2406 17.9302 18.1845C17.8792 17.3422 17.7822 14.5551 17.9302 13.8762L18.1497 13.7486C18.0119 13.5852 18.0732 13.524 18.262 13.6363L18.6347 13.4219C19.7424 13.5035 20.85 13.5444 21.9577 13.5495L22.3355 13.7435V13.7486Z" fill="#C3C3C3"/>
<path d="M13.7529 0.205942V4.6112L22.3388 4.71839C22.9003 6.43864 22.931 7.5106 22.3388 9.23085L22.1398 9.44524C20.8891 9.45034 19.6436 9.45545 18.393 9.45034L18.2654 9.23085L18.0408 9.10834L17.9438 5.00425C16.6115 4.9532 15.2843 4.90726 13.9622 4.86132L13.6406 4.71329V0.205942C13.6713 0.134478 13.7121 0.134478 13.7529 0.205942Z" fill="#C3C3C3"/>
<path d="M4.6062 22.8865C0.139691 22.7742 0.190737 22.6619 0.09375 18.2617L4.56026 18.3638L4.6062 22.8865Z" fill="#C3C3C3"/>
<path d="M22.3385 9.2329C22.1139 9.88628 21.0266 11.3564 21.0266 11.4891C21.0266 11.6218 22.1139 13.092 22.3385 13.7453C20.9909 13.8628 19.6025 13.633 18.2651 13.633C18.1783 13.633 18.0507 13.6177 18.0456 13.5667C17.9384 12.556 17.8414 10.3355 17.9384 9.36562L18.1528 9.2329C18.1834 9.13591 18.2191 9.13591 18.2651 9.2329H22.3385Z" fill="#C3C3C3"/>
<path d="M22.342 18.2617C21.6529 20.3903 20.2644 21.7379 18.1562 22.4475L18.2685 18.374L22.342 18.2617Z" fill="#C3C3C3"/>
<path d="M15.6185 0.0976562C15.0978 0.0976562 14.3372 0.322258 13.7451 0.209957H13.6328V0.0976562H15.6134H15.6185Z" fill="#14D0EB"/>
<path d="M9.12964 9.23154C9.39508 10.7731 9.39508 12.3147 9.12964 13.8563C8.757 14.1064 8.3027 14.1881 7.77182 14.1013C6.77643 14.1166 5.50028 14.1115 4.61719 13.744C4.61719 12.2432 4.61719 10.7323 4.61719 9.23154C6.11794 9.22644 7.62889 9.24175 9.12964 9.23154Z" fill="#C3C3C3"/>
<path d="M13.6385 4.71875C13.7253 4.71875 13.858 4.73917 13.858 4.79532C13.904 5.54569 14.001 8.5574 13.858 9.10359L13.6385 9.2312C12.1429 9.53237 10.6217 9.52727 9.12607 9.2312C9.13628 7.73045 9.12097 6.2195 9.12607 4.71875H13.6385Z" fill="#C3C3C3"/>
<path d="M9.12964 13.8572C9.45123 15.261 9.39508 16.7158 9.25725 18.1399C10.7121 18.0021 12.2128 17.9153 13.6421 18.2625V22.7749H9.12964V18.4258L8.96629 18.2625H4.61719V13.75C6.11283 13.7755 7.62889 13.9593 9.12964 13.8623V13.8572Z" fill="#C3C3C3"/>
<path d="M18.1544 13.7512V18.2637C16.6536 18.2535 15.1427 18.2739 13.6419 18.2637C13.5551 18.2637 13.4275 18.2432 13.4224 18.1871C13.3714 17.3448 13.2744 14.5577 13.4224 13.8788L13.6419 13.7512C13.6419 13.6644 13.6623 13.5368 13.7185 13.5317C14.7904 13.4347 16.9752 13.4194 18.0267 13.5317L18.1544 13.7512Z" fill="#C3C3C3"/>
<path d="M18.1544 9.23381L18.2667 13.6391C18.236 13.6391 18.1799 13.7514 18.1544 13.7514H13.6419C13.5551 13.7514 13.4275 13.731 13.4224 13.6748C13.3714 12.8325 13.2744 10.0454 13.4224 9.36653L13.6419 9.23892C15.1427 9.02453 16.6536 9.02453 18.1544 9.23892V9.23381Z" fill="#C3C3C3"/>
<path d="M18.2654 9.23299H18.1531C16.6523 9.23299 15.1414 9.23299 13.6406 9.23299V4.72054C15.1465 4.72054 16.6574 4.6797 18.1633 4.76648L18.2654 9.23299Z" fill="#C3C3C3"/>
<path d="M13.6373 9.2311V18.2611C12.1365 18.2509 10.6256 18.2713 9.12484 18.2611C9.11974 16.7961 9.13505 15.3209 9.12484 13.8559C9.11464 12.3143 9.11464 10.7727 9.12484 9.2311C10.6256 9.22089 12.1365 9.2311 13.6373 9.2311Z" fill="#C3C3C3"/>
</g>
<defs>
<clipPath id="clip0_2118_669">
<rect width="143.117" height="22.94" fill="white"/>
</clipPath>
</defs>
</svg>
