<svg width="117" height="24" viewBox="0 0 117 24" fill="none" xmlns="http://www.w3.org/2000/svg">
<path d="M6.55785 11.7075L3.95358 14.3095L1.35156 11.7075L3.95358 9.10548L6.55785 11.7075ZM12.8716 5.38928L17.3306 9.85051L19.9326 7.24851L12.8716 0.1875L5.81055 7.24851L8.41257 9.85051L12.8716 5.38928ZM21.7918 9.10548L19.1898 11.7075L21.7918 14.3095L24.3916 11.7075L21.7918 9.10548ZM12.8716 18.0257L8.41257 13.5668L5.81055 16.1665L12.8716 23.2275L19.9326 16.1665L17.3306 13.5668L12.8716 18.0257ZM12.8716 14.3095L15.4736 11.7075L12.8716 9.10548L10.2695 11.7075L12.8716 14.3095ZM40.3323 14.5594V14.5233C40.3323 12.8262 39.4319 11.9776 37.9666 11.4193C38.8669 10.9129 39.6277 10.1184 39.6277 8.69357V8.65756C39.6277 6.67229 38.0386 5.38928 35.4569 5.38928H29.5956V18.0257H35.6054C38.4573 18.0257 40.3368 16.871 40.3368 14.5594H40.3323ZM36.8659 9.15726C36.8659 10.0959 36.0894 10.4943 34.8627 10.4943H32.3034V7.82698H35.0472C36.2199 7.82698 36.8704 8.29517 36.8704 9.12574L36.8659 9.15726ZM37.5705 14.2127C37.5705 15.1513 36.8299 15.5835 35.6009 15.5835H32.3034V12.8082H35.5154C36.9424 12.8082 37.575 13.3326 37.575 14.1813L37.5705 14.2127ZM46.1733 18.0257V5.38928H43.3845V18.0257H46.1733ZM61.1169 18.0257V5.38928H58.3641V13.1706L52.4443 5.38928H49.8805V18.0257H52.6243V9.9923L58.7422 18.0257H61.1169ZM76.5152 18.0257L71.0906 5.29924H68.5268L63.1135 18.0257H65.9473L67.1065 15.1919H72.4501L73.6048 18.0257H76.5152ZM71.4619 12.7362H68.0946L69.7737 8.63955L71.4619 12.7362ZM89.7661 18.0257V5.38928H87.0132V13.1706L81.0912 5.38928H78.5297V18.0257H81.2713V9.9923L87.3914 18.0257H89.7661ZM104.115 15.9864L102.349 14.1992C101.356 15.0996 100.471 15.6781 99.0261 15.6781C96.8609 15.6781 95.3618 13.8773 95.3618 11.7075V11.6715C95.3618 9.50614 96.8969 7.73694 99.0261 7.73694C100.289 7.73694 101.277 8.27716 102.258 9.16176L104.021 7.12246C102.848 5.96776 101.423 5.1732 99.0395 5.1732C95.1592 5.1732 92.4514 8.1151 92.4514 11.7007V11.7367C92.4514 15.3651 95.2133 18.2351 98.932 18.2351C101.365 18.2418 102.808 17.3752 104.106 15.9864H104.115ZM115.978 18.0257V15.5497H109.108V12.8915H115.066V10.4155H109.108V7.863H115.879V5.38703H106.346V18.0235L115.978 18.0257Z" fill="white"/>
</svg>
