<svg width="171" height="30" viewBox="0 0 171 30" fill="none" xmlns="http://www.w3.org/2000/svg">
<g clip-path="url(#clip0_1660_8713)">
<mask id="mask0_1660_8713" style="mask-type:luminance" maskUnits="userSpaceOnUse" x="0" y="0" width="171" height="30">
<path d="M170.656 0.03125H0.882812V29.415H170.656V0.03125Z" fill="white"/>
</mask>
<g mask="url(#mask0_1660_8713)">
<path d="M25.8918 17.4867C25.3825 17.7978 24.7885 17.8545 24.3358 17.5998C23.7701 17.2603 23.4305 16.4964 23.4305 15.4497V12.2529C23.4305 10.7251 22.8364 9.62177 21.818 9.33886C20.0922 8.82964 18.7908 10.9515 18.3099 11.7436L15.2544 16.6379V10.612C15.2263 9.22577 14.7735 8.40529 13.9249 8.15069C13.3591 7.98096 12.5103 8.06583 11.6899 9.31067L4.87181 20.2309C3.9665 18.5051 3.48556 16.5813 3.48556 14.6292C3.48556 8.03754 8.77593 2.69057 15.2544 2.69057C21.7331 2.69057 27.0234 8.03754 27.0234 14.6292V14.6576V14.6859C27.0801 15.9589 26.6839 16.9774 25.8918 17.4867ZM29.6263 14.6292V14.601V14.5727C29.5979 6.5664 23.1476 0.03125 15.2544 0.03125C7.3331 0.03125 0.882812 6.56641 0.882812 14.6292C0.882812 22.6639 7.3331 29.2272 15.2544 29.2272C18.904 29.2272 22.3554 27.841 25.0148 25.3231C25.5524 24.8139 25.5806 23.9935 25.0714 23.4559C24.5904 22.9185 23.7701 22.8901 23.2325 23.371C23.2325 23.371 23.2325 23.371 23.2042 23.3994C21.0541 25.4363 18.1684 26.5963 15.1979 26.5963C11.7182 26.5963 8.60618 25.0686 6.45609 22.6356L12.5952 12.7904V17.3452C12.5952 19.5236 13.4439 20.2309 14.1512 20.4289C14.8584 20.6269 15.9334 20.4854 17.0934 18.6466L20.46 13.1864C20.5732 13.0168 20.6581 12.8469 20.7712 12.7338V15.5063C20.7712 17.5432 21.5916 19.184 23.0062 19.9762C24.2793 20.7118 25.8918 20.6269 27.2215 19.8065C28.8624 18.7314 29.7394 16.8642 29.6263 14.6292ZM49.6561 9.65013C49.9955 9.84813 50.3067 10.3291 50.3067 10.7535C50.3067 11.4324 49.741 11.9983 49.0903 11.9983C48.9204 11.9983 48.7791 11.9416 48.6376 11.9134C47.8737 11.3476 46.9119 10.9798 45.8934 10.9798C43.4886 10.9798 41.8478 12.9319 41.8478 15.3649C41.8478 17.7978 43.517 19.7216 45.8934 19.7216C47.0815 19.7216 48.1567 19.2407 48.9488 18.4769C49.1468 18.3354 49.4014 18.2505 49.6561 18.2505C50.3067 18.2505 50.816 18.7597 50.816 19.4104C50.816 19.8348 50.5614 20.2025 50.2502 20.4006C49.0903 21.3908 47.5343 22.0415 45.9216 22.0415C42.2439 22.0415 39.2451 19.0144 39.2451 15.2799C39.2451 11.5456 42.2439 8.5185 45.9216 8.5185C47.2796 8.49017 48.581 8.91453 49.6561 9.65013ZM56.3893 12.4792C58.9072 12.4792 61.0006 14.601 61.0006 17.232C61.0006 19.8348 58.8788 22.0697 56.3893 22.0697C53.7582 22.0697 51.5798 19.863 51.5798 17.232C51.5798 14.601 53.7582 12.4792 56.3893 12.4792ZM56.361 19.7216C57.4643 19.7216 58.3979 18.6749 58.3979 17.2603C58.3979 15.8458 57.4643 14.9405 56.361 14.9405C55.1728 14.9405 54.1825 15.8175 54.1825 17.2603C54.1825 18.6466 55.1728 19.7216 56.361 19.7216ZM62.5849 20.5987V13.922C62.5849 13.1864 63.1507 12.5923 63.8863 12.5923C64.5935 12.5923 65.1876 13.1864 65.1876 13.922V20.5987C65.1876 21.3342 64.5935 21.9282 63.8863 21.9282C63.179 21.9282 62.5849 21.3059 62.5849 20.5987ZM62.3869 10.0745C62.3869 9.1974 63.0658 8.5185 63.8863 8.5185C64.735 8.5185 65.414 9.22577 65.414 10.0745C65.414 10.9231 64.735 11.6021 63.8863 11.6021C63.0376 11.5739 62.3869 10.8949 62.3869 10.0745ZM70.1668 16.9774V20.5987C70.1668 21.3342 69.5727 21.9282 68.8654 21.9282C68.1582 21.9282 67.5641 21.3342 67.5641 20.5987V13.6108C67.5641 13.0449 68.0167 12.5923 68.5825 12.5923C69.1484 12.5923 69.5727 13.0733 69.5727 13.6108C70.6195 12.6207 71.5531 12.4792 72.4301 12.4792C75.0328 12.4792 76.1928 14.4312 76.1928 16.6662V20.5987C76.1928 21.3342 75.5986 21.9282 74.8914 21.9282C74.1842 21.9282 73.59 21.3342 73.59 20.5987V16.9774C73.59 15.8458 73.4485 14.8839 71.8077 14.8839C70.6478 14.8839 70.1668 15.8458 70.1668 16.9774ZM84.6232 18.3637C84.3123 18.3637 84.1139 18.2222 83.9441 18.0241L80.9174 14.7425V20.5987C80.9174 21.3342 80.3233 21.9282 79.616 21.9282C78.9086 21.9282 78.3146 21.3342 78.3146 20.5987V8.99941C78.3995 8.8014 78.5975 8.65995 78.7955 8.65995C79.0218 8.65995 79.2199 8.85797 79.3614 8.99941L84.1988 14.4312C84.3408 14.601 84.5105 14.6859 84.6232 14.6859C84.7081 14.6859 84.9064 14.601 85.0476 14.4312L89.8854 8.99941C90.0265 8.85797 90.1964 8.65995 90.451 8.65995C90.6779 8.65995 90.8755 8.8014 90.9325 8.99941V20.5987C90.9325 21.3342 90.3661 21.9282 89.6307 21.9282C88.9238 21.9282 88.3296 21.3342 88.3296 20.5987V14.7425L85.3023 18.0241C85.0762 18.2222 84.8779 18.3637 84.6232 18.3637ZM97.1274 19.7216C98.2874 19.7216 99.2783 18.6749 99.2783 17.2603C99.2783 15.8458 98.2601 14.9121 97.1274 14.9121C95.9964 14.9121 95.0628 15.874 95.0628 17.2603C95.0628 18.6182 95.9674 19.7216 97.1274 19.7216ZM99.9001 20.9098L99.8437 20.5987C99.3346 21.5888 97.7219 22.0415 96.7028 22.0415C94.271 22.0415 92.4601 19.8348 92.4601 17.2038C92.4601 14.601 94.2983 12.4509 96.8455 12.4509C97.2701 12.4509 98.7401 12.564 99.8719 13.8937L99.9292 13.5826C99.9292 13.0167 100.354 12.564 100.919 12.564C101.485 12.564 101.937 13.0449 101.937 13.5826V20.8816C101.937 21.4473 101.485 21.9 100.919 21.9C100.325 21.9282 99.9001 21.4473 99.9001 20.9098ZM109.095 14.8839H108.812C107.171 14.9688 106.86 15.9024 106.86 16.9774V20.5987C106.86 21.3342 106.266 21.9282 105.558 21.9282C104.852 21.9282 104.257 21.3342 104.257 20.5987V13.6108C104.257 13.0449 104.709 12.5923 105.276 12.5923C105.842 12.5923 106.266 13.0733 106.266 13.6108C107.227 12.7055 108.02 12.5075 108.812 12.4792H109.066C109.689 12.4792 110.255 13.0168 110.255 13.6957C110.284 14.3181 109.717 14.8839 109.095 14.8839ZM119.138 19.9762C119.251 20.1743 119.336 20.3723 119.336 20.5987C119.336 21.2776 118.714 21.9 118.035 21.9C117.582 21.9 117.186 21.5605 116.876 21.1644L113.876 17.6847V20.5703C113.876 21.3059 113.282 21.9 112.575 21.9C111.867 21.9 111.274 21.3059 111.274 20.5703V9.96131C111.274 9.22577 111.839 8.63163 112.575 8.63163C113.31 8.63163 113.876 9.22577 113.876 9.96131V16.5813L116.876 13.2713C117.186 12.9319 117.555 12.564 118.006 12.564C118.657 12.564 119.251 13.1582 119.251 13.8371C119.251 14.0351 119.195 14.2615 119.081 14.4312L116.706 17.0339L119.138 19.9762ZM124.23 14.9121C123.523 14.9121 122.364 15.2799 122.364 16.3833H126.126C126.097 15.2799 124.909 14.9121 124.23 14.9121ZM127.626 18.0525H122.364C122.364 19.6084 123.863 19.863 124.514 19.863C124.994 19.863 125.673 19.7782 126.211 19.5236C126.381 19.4104 126.636 19.3255 126.89 19.3255C127.456 19.3255 127.936 19.8065 127.936 20.4006C127.936 20.7967 127.682 21.1361 127.371 21.3342C126.578 21.9282 125.532 22.0697 124.542 22.0697C121.91 22.0697 119.732 20.6552 119.732 17.3452C119.732 14.7425 121.062 12.4792 124.174 12.4792C126.692 12.4792 128.587 14.12 128.644 17.0339C128.644 17.5716 128.191 18.0525 127.626 18.0525ZM134.867 22.0415H134.16C132.18 22.0415 131.02 21.1644 131.02 18.0808V14.8839H130.341C129.719 14.8839 129.181 14.3181 129.181 13.6957C129.181 13.0168 129.746 12.4792 130.341 12.4792H131.02V10.0179C131.02 9.28231 131.586 8.68819 132.321 8.68819C133.029 8.68819 133.623 9.28231 133.623 10.0179V12.4792H134.698C135.321 12.4792 135.858 13.0168 135.858 13.6957C135.858 14.3181 135.292 14.8839 134.698 14.8839H133.623V17.5716C133.623 19.3539 133.708 19.7216 134.5 19.7216H134.867C135.491 19.7216 136.027 20.2309 136.027 20.8816C136.027 21.5039 135.491 22.0415 134.867 22.0415ZM147.457 9.65013C147.796 9.84813 148.107 10.3291 148.107 10.7535C148.107 11.4324 147.542 11.9983 146.891 11.9983C146.722 11.9983 146.58 11.9416 146.438 11.9134C145.675 11.3476 144.713 10.9798 143.695 10.9798C141.29 10.9798 139.649 12.9319 139.649 15.3649C139.649 17.7978 141.318 19.7216 143.695 19.7216C144.883 19.7216 145.957 19.2407 146.75 18.4769C146.947 18.3354 147.203 18.2505 147.457 18.2505C148.107 18.2505 148.617 18.7597 148.617 19.4104C148.617 19.8348 148.362 20.2025 148.051 20.4006C146.891 21.3908 145.336 22.0415 143.723 22.0415C140.045 22.0415 137.046 19.0144 137.046 15.2799C137.046 11.5456 140.045 8.5185 143.723 8.5185C145.081 8.49017 146.411 8.91453 147.457 9.65013ZM154.049 19.7216C155.208 19.7216 156.199 18.6749 156.199 17.2603C156.199 15.8458 155.18 14.9121 154.049 14.9121C152.889 14.9121 151.984 15.874 151.984 17.2603C151.984 18.6182 152.917 19.7216 154.049 19.7216ZM156.822 20.9098L156.766 20.5987C156.256 21.5888 154.643 22.0415 153.625 22.0415C151.191 22.0415 149.381 19.8348 149.381 17.2038C149.381 14.601 151.22 12.4509 153.766 12.4509C154.19 12.4509 155.662 12.564 156.793 13.8937L156.849 13.5826C156.849 13.0167 157.274 12.564 157.84 12.564C158.406 12.564 158.858 13.0449 158.858 13.5826V20.8816C158.858 21.4473 158.406 21.9 157.84 21.9C157.246 21.9282 156.822 21.4473 156.822 20.9098ZM165.959 19.7216C167.119 19.7216 168.025 18.6182 168.025 17.2603C168.025 15.8458 167.091 14.9121 165.959 14.9121C164.799 14.9121 163.809 15.8458 163.809 17.2603C163.809 18.6749 164.799 19.7216 165.959 19.7216ZM163.809 21.2776V24.5877C163.809 25.3231 163.215 25.9172 162.508 25.9172C161.8 25.9172 161.206 25.3231 161.206 24.5877V13.6108C161.206 13.0449 161.659 12.5923 162.225 12.5923C162.79 12.5923 163.215 13.0733 163.215 13.7239C164.177 12.7338 165.365 12.4792 166.271 12.4792C168.788 12.4792 170.656 14.601 170.656 17.232C170.656 19.8348 168.873 22.0697 166.412 22.0697C165.648 22.0415 164.516 21.8151 163.809 21.2776Z" fill="black"/>
</g>
</g>
<defs>
<clipPath id="clip0_1660_8713">
<rect width="170.909" height="30" fill="white" transform="translate(0.0859375)"/>
</clipPath>
</defs>
</svg>
