<svg width="106" height="24" viewBox="0 0 106 24" fill="none" xmlns="http://www.w3.org/2000/svg">
<g opacity="0.5" clip-path="url(#clip0_1660_8734)">
<path d="M10.3149 3.89751C6.78974 5.00343 4.60094 8.71287 5.19998 12.5606C6.14462 18.551 13.4483 21.0162 18.0103 16.8921C19.0701 15.9474 20.3603 13.5743 20.3603 12.5836C20.3603 11.9385 20.3603 11.9385 18.8167 11.9385H17.2499L16.6739 13.1596C15.1533 16.3161 11.0983 16.6847 9.27806 13.8047C8.42558 12.4914 8.24126 11.4316 8.58686 10.1183C9.55454 6.47799 13.5866 5.51031 16.1671 8.27512L16.8583 9.01239L18.1255 8.11383C19.6 7.07703 19.6 7.00791 17.8029 5.39511C16.9735 4.63479 16.2131 4.19704 15.1303 3.87448C13.2871 3.29847 12.1351 3.29847 10.3149 3.89751Z" fill="black"/>
<path d="M32.3852 4.17541C31.7401 4.84357 31.7401 5.48869 32.3622 6.27205C33.3529 7.53925 35.3343 6.80197 35.3343 5.16613C35.3343 3.71461 33.422 3.06949 32.3852 4.17541Z" fill="black"/>
<path d="M47.7734 11.1087V18.6198H49.3862H50.999V17.606V16.6153L52.7501 16.477C56.713 16.1775 59.0861 13.7583 59.1322 9.97975C59.1782 7.44534 57.8419 5.37174 55.4918 4.28886C54.5011 3.8511 53.879 3.75894 51.0682 3.68982L47.7734 3.59766V11.1087ZM53.5795 6.86934C55.3766 7.37622 56.3674 9.93368 55.4458 11.6847C54.8467 12.8367 54.0634 13.2975 52.4506 13.4588L50.999 13.6201V10.118V6.63894H51.8746C52.3354 6.63894 53.1187 6.75414 53.5795 6.86934Z" fill="black"/>
<path d="M77.2702 6.27109V8.92069L76.4638 8.57509C74.3211 7.69957 71.6946 8.85157 70.5656 11.1786C69.4136 13.5517 70.1509 16.5469 72.2705 18.0445C73.1461 18.6666 73.3995 18.7357 74.9662 18.7127C75.9109 18.6896 77.5006 18.6666 78.4914 18.6666L80.2654 18.6435V11.1555V3.64453H78.7678H77.2702V6.27109ZM76.7403 11.985C77.7771 12.9527 77.5698 14.9802 76.3717 15.6253C74.9432 16.3626 73.123 15.2797 73.123 13.6669C73.123 12.6071 73.4225 12.0311 74.2289 11.5933C75.0123 11.1555 76.0261 11.3168 76.7403 11.985Z" fill="black"/>
<path d="M81.6955 4.01334C81.0274 4.47414 81.0044 5.76438 81.6495 6.4095C82.3407 7.1007 83.5618 7.03158 84.1608 6.27126C84.4373 5.92566 84.6447 5.4879 84.6447 5.2575C84.6447 5.0271 84.4373 4.58934 84.1608 4.24374C83.6079 3.55254 82.5019 3.43733 81.6955 4.01334Z" fill="black"/>
<path d="M23.9305 8.80521C22.5481 9.45033 21.926 10.0954 21.3039 11.4778C19.7372 14.9338 22.2947 18.8276 26.1423 18.8506C28.9763 18.8506 31.2111 16.8462 31.3724 14.1044C31.5337 11.593 30.5199 9.81895 28.3081 8.80521C26.8105 8.09097 25.4051 8.09097 23.9305 8.80521ZM27.8243 12.1921C28.3772 12.8142 28.4463 13.0676 28.3542 13.874C28.1929 15.0951 27.3404 15.8554 26.1423 15.8554C23.9075 15.8554 23.1241 12.8833 25.0595 11.6852C26.0041 11.0862 26.9718 11.2705 27.8243 12.1921Z" fill="black"/>
<path d="M40.0133 8.60014C39.5986 8.78447 39.253 8.83055 39.253 8.71534C39.253 8.5771 38.5849 8.48494 37.7554 8.48494H36.2578V13.5538V18.6226H37.7554H39.253V15.7195C39.253 14.0837 39.3682 12.6322 39.5065 12.3557C39.7599 11.8949 41.0041 11.2498 41.6722 11.2498C41.8796 11.2498 42.3634 11.5493 42.7321 11.9179L43.4002 12.5861V15.6043V18.6226H44.8978H46.3954V15.3278C46.3954 12.6322 46.3033 11.8949 45.9577 11.1346C44.8748 8.80751 42.1791 7.65551 40.0133 8.60014Z" fill="black"/>
<path d="M63.1708 8.48168C60.5443 9.26504 58.9084 12.099 59.5305 14.7486C60.2908 17.859 63.5855 19.587 66.9263 18.5963C67.7558 18.3428 69.4377 17.1448 69.4377 16.7992C69.4377 16.707 68.9078 16.2462 68.2857 15.7854L67.1337 14.9329L66.4655 15.4168C66.0739 15.6932 65.567 15.8545 65.1753 15.8084C64.5993 15.7393 64.7836 15.555 67.1107 13.9192C68.5852 12.8593 69.6681 11.9377 69.6681 11.7073C69.6681 11.2004 68.7004 9.93323 67.8019 9.26504C66.5347 8.34344 64.6915 8.02088 63.1708 8.48168ZM65.4057 11.4539C65.7743 11.6152 65.6131 11.7995 64.2537 12.8132C63.0556 13.6657 62.6179 13.8961 62.5718 13.6196C62.4105 12.9284 62.7791 12.1451 63.5164 11.7073C64.2998 11.2235 64.6684 11.1774 65.4057 11.4539Z" fill="black"/>
<path d="M88.373 8.55101C85.4239 9.63386 84.0876 13.3663 85.6543 16.2003C85.9999 16.8454 86.7141 17.6518 87.244 18.0435C88.1196 18.6655 88.373 18.7347 89.9397 18.7116C90.8844 18.6886 92.4741 18.6655 93.4648 18.6655L95.2389 18.6425V13.5737V8.48189H93.7413C92.9119 8.48189 92.2437 8.57405 92.2437 8.68925C92.2437 8.82749 91.8751 8.75837 91.4373 8.57405C90.4927 8.18237 89.4328 8.18237 88.373 8.55101ZM91.7138 11.9839C92.7506 12.9516 92.5432 14.9791 91.3452 15.6243C89.9167 16.3615 88.0965 15.2787 88.0965 13.6659C88.0965 12.606 88.396 12.03 89.2024 11.5923C89.9858 11.1545 90.9996 11.3158 91.7138 11.9839Z" fill="black"/>
<path d="M32.1094 13.5532V18.622H33.6069H35.1045V13.5532V8.48438H33.6069H32.1094V13.5532Z" fill="black"/>
<path d="M81.4141 13.5532V18.622H82.9117H84.4093V13.5532V8.48438H82.9117H81.4141V13.5532Z" fill="black"/>
<path d="M100.059 14.6953H96.2188V18.5353H100.059V14.6953Z" fill="black"/>
</g>
<defs>
<clipPath id="clip0_1660_8734">
<rect width="105" height="24" fill="white" transform="translate(0.0390625)"/>
</clipPath>
</defs>
</svg>
