<svg width="136" height="24" viewBox="0 0 136 24" fill="none" xmlns="http://www.w3.org/2000/svg">
<g style="mix-blend-mode:luminosity" opacity="0.5" clip-path="url(#clip0_1660_8719)">
<path d="M15.5578 11.7075L12.9536 14.3095L10.3516 11.7075L12.9536 9.10548L15.5578 11.7075ZM21.8716 5.38928L26.3306 9.85051L28.9326 7.24851L21.8716 0.1875L14.8106 7.24851L17.4126 9.85051L21.8716 5.38928ZM30.7918 9.10548L28.1898 11.7075L30.7918 14.3095L33.3916 11.7075L30.7918 9.10548ZM21.8716 18.0257L17.4126 13.5668L14.8106 16.1665L21.8716 23.2275L28.9326 16.1665L26.3306 13.5668L21.8716 18.0257ZM21.8716 14.3095L24.4736 11.7075L21.8716 9.10548L19.2695 11.7075L21.8716 14.3095ZM49.3323 14.5594V14.5233C49.3323 12.8262 48.4319 11.9776 46.9666 11.4193C47.8669 10.9129 48.6277 10.1184 48.6277 8.69357V8.65756C48.6277 6.67229 47.0386 5.38928 44.4569 5.38928H38.5956V18.0257H44.6054C47.4573 18.0257 49.3368 16.871 49.3368 14.5594H49.3323ZM45.8659 9.15726C45.8659 10.0959 45.0894 10.4943 43.8627 10.4943H41.3034V7.82698H44.0472C45.2199 7.82698 45.8704 8.29517 45.8704 9.12574L45.8659 9.15726ZM46.5705 14.2127C46.5705 15.1513 45.8299 15.5835 44.6009 15.5835H41.3034V12.8082H44.5154C45.9424 12.8082 46.575 13.3326 46.575 14.1813L46.5705 14.2127ZM55.1733 18.0257V5.38928H52.3845V18.0257H55.1733ZM70.1169 18.0257V5.38928H67.3641V13.1706L61.4443 5.38928H58.8805V18.0257H61.6243V9.9923L67.7422 18.0257H70.1169ZM85.5152 18.0257L80.0906 5.29924H77.5268L72.1135 18.0257H74.9473L76.1065 15.1919H81.4501L82.6048 18.0257H85.5152ZM80.4619 12.7362H77.0946L78.7737 8.63955L80.4619 12.7362ZM98.7661 18.0257V5.38928H96.0132V13.1706L90.0912 5.38928H87.5297V18.0257H90.2713V9.9923L96.3914 18.0257H98.7661ZM113.115 15.9864L111.349 14.1992C110.356 15.0996 109.471 15.6781 108.026 15.6781C105.861 15.6781 104.362 13.8773 104.362 11.7075V11.6715C104.362 9.50614 105.897 7.73694 108.026 7.73694C109.289 7.73694 110.277 8.27716 111.258 9.16176L113.021 7.12246C111.848 5.96776 110.423 5.1732 108.04 5.1732C104.159 5.1732 101.451 8.1151 101.451 11.7007V11.7367C101.451 15.3651 104.213 18.2351 107.932 18.2351C110.365 18.2418 111.808 17.3752 113.106 15.9864H113.115ZM124.978 18.0257V15.5497H118.108V12.8915H124.066V10.4155H118.108V7.863H124.879V5.38703H115.346V18.0235L124.978 18.0257Z" fill="black"/>
</g>
<defs>
<clipPath id="clip0_1660_8719">
<rect width="135" height="24" fill="white" transform="translate(0.0390625)"/>
</clipPath>
</defs>
</svg>
