<svg width="176" height="30" viewBox="0 0 176 30" fill="none" xmlns="http://www.w3.org/2000/svg">
<g style="mix-blend-mode:luminosity" opacity="0.5" clip-path="url(#clip0_1660_8710)">
<g clip-path="url(#clip1_1660_8710)">
<mask id="mask0_1660_8710" style="mask-type:luminance" maskUnits="userSpaceOnUse" x="2" y="0" width="171" height="30">
<path d="M172.656 0.03125H2.88281V29.415H172.656V0.03125Z" fill="white"/>
</mask>
<g mask="url(#mask0_1660_8710)">
<path d="M27.8918 17.4867C27.3825 17.7978 26.7885 17.8545 26.3358 17.5998C25.7701 17.2603 25.4305 16.4964 25.4305 15.4497V12.2529C25.4305 10.7251 24.8364 9.62177 23.818 9.33886C22.0922 8.82964 20.7908 10.9515 20.3099 11.7436L17.2544 16.6379V10.612C17.2263 9.22577 16.7735 8.40529 15.9249 8.15069C15.3591 7.98096 14.5103 8.06583 13.6899 9.31067L6.87181 20.2309C5.9665 18.5051 5.48556 16.5813 5.48556 14.6292C5.48556 8.03754 10.7759 2.69057 17.2544 2.69057C23.7331 2.69057 29.0234 8.03754 29.0234 14.6292V14.6576V14.6859C29.0801 15.9589 28.6839 16.9774 27.8918 17.4867ZM31.6263 14.6292V14.601V14.5727C31.5979 6.5664 25.1476 0.03125 17.2544 0.03125C9.3331 0.03125 2.88281 6.56641 2.88281 14.6292C2.88281 22.6639 9.3331 29.2272 17.2544 29.2272C20.904 29.2272 24.3554 27.841 27.0148 25.3231C27.5524 24.8139 27.5806 23.9935 27.0714 23.4559C26.5904 22.9185 25.7701 22.8901 25.2325 23.371C25.2325 23.371 25.2325 23.371 25.2042 23.3994C23.0541 25.4363 20.1684 26.5963 17.1979 26.5963C13.7182 26.5963 10.6062 25.0686 8.45609 22.6356L14.5952 12.7904V17.3452C14.5952 19.5236 15.4439 20.2309 16.1512 20.4289C16.8584 20.6269 17.9334 20.4854 19.0934 18.6466L22.46 13.1864C22.5732 13.0168 22.6581 12.8469 22.7712 12.7338V15.5063C22.7712 17.5432 23.5916 19.184 25.0062 19.9762C26.2793 20.7118 27.8918 20.6269 29.2215 19.8065C30.8624 18.7314 31.7394 16.8642 31.6263 14.6292ZM51.6561 9.65013C51.9955 9.84813 52.3067 10.3291 52.3067 10.7535C52.3067 11.4324 51.741 11.9983 51.0903 11.9983C50.9204 11.9983 50.7791 11.9416 50.6376 11.9134C49.8737 11.3476 48.9119 10.9798 47.8934 10.9798C45.4886 10.9798 43.8478 12.9319 43.8478 15.3649C43.8478 17.7978 45.517 19.7216 47.8934 19.7216C49.0815 19.7216 50.1567 19.2407 50.9488 18.4769C51.1468 18.3354 51.4014 18.2505 51.6561 18.2505C52.3067 18.2505 52.816 18.7597 52.816 19.4104C52.816 19.8348 52.5614 20.2025 52.2502 20.4006C51.0903 21.3908 49.5343 22.0415 47.9216 22.0415C44.2439 22.0415 41.2451 19.0144 41.2451 15.2799C41.2451 11.5456 44.2439 8.5185 47.9216 8.5185C49.2796 8.49017 50.581 8.91453 51.6561 9.65013ZM58.3893 12.4792C60.9072 12.4792 63.0006 14.601 63.0006 17.232C63.0006 19.8348 60.8788 22.0697 58.3893 22.0697C55.7582 22.0697 53.5798 19.863 53.5798 17.232C53.5798 14.601 55.7582 12.4792 58.3893 12.4792ZM58.361 19.7216C59.4643 19.7216 60.3979 18.6749 60.3979 17.2603C60.3979 15.8458 59.4643 14.9405 58.361 14.9405C57.1728 14.9405 56.1825 15.8175 56.1825 17.2603C56.1825 18.6466 57.1728 19.7216 58.361 19.7216ZM64.5849 20.5987V13.922C64.5849 13.1864 65.1507 12.5923 65.8863 12.5923C66.5935 12.5923 67.1876 13.1864 67.1876 13.922V20.5987C67.1876 21.3342 66.5935 21.9282 65.8863 21.9282C65.179 21.9282 64.5849 21.3059 64.5849 20.5987ZM64.3869 10.0745C64.3869 9.1974 65.0658 8.5185 65.8863 8.5185C66.735 8.5185 67.414 9.22577 67.414 10.0745C67.414 10.9231 66.735 11.6021 65.8863 11.6021C65.0376 11.5739 64.3869 10.8949 64.3869 10.0745ZM72.1668 16.9774V20.5987C72.1668 21.3342 71.5727 21.9282 70.8654 21.9282C70.1582 21.9282 69.5641 21.3342 69.5641 20.5987V13.6108C69.5641 13.0449 70.0167 12.5923 70.5825 12.5923C71.1484 12.5923 71.5727 13.0733 71.5727 13.6108C72.6195 12.6207 73.5531 12.4792 74.4301 12.4792C77.0328 12.4792 78.1928 14.4312 78.1928 16.6662V20.5987C78.1928 21.3342 77.5986 21.9282 76.8914 21.9282C76.1842 21.9282 75.59 21.3342 75.59 20.5987V16.9774C75.59 15.8458 75.4485 14.8839 73.8077 14.8839C72.6478 14.8839 72.1668 15.8458 72.1668 16.9774ZM86.6232 18.3637C86.3123 18.3637 86.1139 18.2222 85.9441 18.0241L82.9174 14.7425V20.5987C82.9174 21.3342 82.3233 21.9282 81.616 21.9282C80.9086 21.9282 80.3146 21.3342 80.3146 20.5987V8.99941C80.3995 8.8014 80.5975 8.65995 80.7955 8.65995C81.0218 8.65995 81.2199 8.85797 81.3614 8.99941L86.1988 14.4312C86.3408 14.601 86.5105 14.6859 86.6232 14.6859C86.7081 14.6859 86.9064 14.601 87.0476 14.4312L91.8854 8.99941C92.0265 8.85797 92.1964 8.65995 92.451 8.65995C92.6779 8.65995 92.8755 8.8014 92.9325 8.99941V20.5987C92.9325 21.3342 92.3661 21.9282 91.6307 21.9282C90.9238 21.9282 90.3296 21.3342 90.3296 20.5987V14.7425L87.3023 18.0241C87.0762 18.2222 86.8779 18.3637 86.6232 18.3637ZM99.1274 19.7216C100.287 19.7216 101.278 18.6749 101.278 17.2603C101.278 15.8458 100.26 14.9121 99.1274 14.9121C97.9964 14.9121 97.0628 15.874 97.0628 17.2603C97.0628 18.6182 97.9674 19.7216 99.1274 19.7216ZM101.9 20.9098L101.844 20.5987C101.335 21.5888 99.7219 22.0415 98.7028 22.0415C96.271 22.0415 94.4601 19.8348 94.4601 17.2038C94.4601 14.601 96.2983 12.4509 98.8455 12.4509C99.2701 12.4509 100.74 12.564 101.872 13.8937L101.929 13.5826C101.929 13.0167 102.354 12.564 102.919 12.564C103.485 12.564 103.937 13.0449 103.937 13.5826V20.8816C103.937 21.4473 103.485 21.9 102.919 21.9C102.325 21.9282 101.9 21.4473 101.9 20.9098ZM111.095 14.8839H110.812C109.171 14.9688 108.86 15.9024 108.86 16.9774V20.5987C108.86 21.3342 108.266 21.9282 107.558 21.9282C106.852 21.9282 106.257 21.3342 106.257 20.5987V13.6108C106.257 13.0449 106.709 12.5923 107.276 12.5923C107.842 12.5923 108.266 13.0733 108.266 13.6108C109.227 12.7055 110.02 12.5075 110.812 12.4792H111.066C111.689 12.4792 112.255 13.0168 112.255 13.6957C112.284 14.3181 111.717 14.8839 111.095 14.8839ZM121.138 19.9762C121.251 20.1743 121.336 20.3723 121.336 20.5987C121.336 21.2776 120.714 21.9 120.035 21.9C119.582 21.9 119.186 21.5605 118.876 21.1644L115.876 17.6847V20.5703C115.876 21.3059 115.282 21.9 114.575 21.9C113.867 21.9 113.274 21.3059 113.274 20.5703V9.96131C113.274 9.22577 113.839 8.63163 114.575 8.63163C115.31 8.63163 115.876 9.22577 115.876 9.96131V16.5813L118.876 13.2713C119.186 12.9319 119.555 12.564 120.006 12.564C120.657 12.564 121.251 13.1582 121.251 13.8371C121.251 14.0351 121.195 14.2615 121.081 14.4312L118.706 17.0339L121.138 19.9762ZM126.23 14.9121C125.523 14.9121 124.364 15.2799 124.364 16.3833H128.126C128.097 15.2799 126.909 14.9121 126.23 14.9121ZM129.626 18.0525H124.364C124.364 19.6084 125.863 19.863 126.514 19.863C126.994 19.863 127.673 19.7782 128.211 19.5236C128.381 19.4104 128.636 19.3255 128.89 19.3255C129.456 19.3255 129.936 19.8065 129.936 20.4006C129.936 20.7967 129.682 21.1361 129.371 21.3342C128.578 21.9282 127.532 22.0697 126.542 22.0697C123.91 22.0697 121.732 20.6552 121.732 17.3452C121.732 14.7425 123.062 12.4792 126.174 12.4792C128.692 12.4792 130.587 14.12 130.644 17.0339C130.644 17.5716 130.191 18.0525 129.626 18.0525ZM136.867 22.0415H136.16C134.18 22.0415 133.02 21.1644 133.02 18.0808V14.8839H132.341C131.719 14.8839 131.181 14.3181 131.181 13.6957C131.181 13.0168 131.746 12.4792 132.341 12.4792H133.02V10.0179C133.02 9.28231 133.586 8.68819 134.321 8.68819C135.029 8.68819 135.623 9.28231 135.623 10.0179V12.4792H136.698C137.321 12.4792 137.858 13.0168 137.858 13.6957C137.858 14.3181 137.292 14.8839 136.698 14.8839H135.623V17.5716C135.623 19.3539 135.708 19.7216 136.5 19.7216H136.867C137.491 19.7216 138.027 20.2309 138.027 20.8816C138.027 21.5039 137.491 22.0415 136.867 22.0415ZM149.457 9.65013C149.796 9.84813 150.107 10.3291 150.107 10.7535C150.107 11.4324 149.542 11.9983 148.891 11.9983C148.722 11.9983 148.58 11.9416 148.438 11.9134C147.675 11.3476 146.713 10.9798 145.695 10.9798C143.29 10.9798 141.649 12.9319 141.649 15.3649C141.649 17.7978 143.318 19.7216 145.695 19.7216C146.883 19.7216 147.957 19.2407 148.75 18.4769C148.947 18.3354 149.203 18.2505 149.457 18.2505C150.107 18.2505 150.617 18.7597 150.617 19.4104C150.617 19.8348 150.362 20.2025 150.051 20.4006C148.891 21.3908 147.336 22.0415 145.723 22.0415C142.045 22.0415 139.046 19.0144 139.046 15.2799C139.046 11.5456 142.045 8.5185 145.723 8.5185C147.081 8.49017 148.411 8.91453 149.457 9.65013ZM156.049 19.7216C157.208 19.7216 158.199 18.6749 158.199 17.2603C158.199 15.8458 157.18 14.9121 156.049 14.9121C154.889 14.9121 153.984 15.874 153.984 17.2603C153.984 18.6182 154.917 19.7216 156.049 19.7216ZM158.822 20.9098L158.766 20.5987C158.256 21.5888 156.643 22.0415 155.625 22.0415C153.191 22.0415 151.381 19.8348 151.381 17.2038C151.381 14.601 153.22 12.4509 155.766 12.4509C156.19 12.4509 157.662 12.564 158.793 13.8937L158.849 13.5826C158.849 13.0167 159.274 12.564 159.84 12.564C160.406 12.564 160.858 13.0449 160.858 13.5826V20.8816C160.858 21.4473 160.406 21.9 159.84 21.9C159.246 21.9282 158.822 21.4473 158.822 20.9098ZM167.959 19.7216C169.119 19.7216 170.025 18.6182 170.025 17.2603C170.025 15.8458 169.091 14.9121 167.959 14.9121C166.799 14.9121 165.809 15.8458 165.809 17.2603C165.809 18.6749 166.799 19.7216 167.959 19.7216ZM165.809 21.2776V24.5877C165.809 25.3231 165.215 25.9172 164.508 25.9172C163.8 25.9172 163.206 25.3231 163.206 24.5877V13.6108C163.206 13.0449 163.659 12.5923 164.225 12.5923C164.79 12.5923 165.215 13.0733 165.215 13.7239C166.177 12.7338 167.365 12.4792 168.271 12.4792C170.788 12.4792 172.656 14.601 172.656 17.232C172.656 19.8348 170.873 22.0697 168.412 22.0697C167.648 22.0415 166.516 21.8151 165.809 21.2776Z" fill="black"/>
</g>
</g>
</g>
<defs>
<clipPath id="clip0_1660_8710">
<rect width="175" height="30" fill="white" transform="translate(0.0390625)"/>
</clipPath>
<clipPath id="clip1_1660_8710">
<rect width="170.909" height="30" fill="white" transform="translate(2.08594)"/>
</clipPath>
</defs>
</svg>
