<svg width="157" height="41" viewBox="0 0 157 41" fill="none" xmlns="http://www.w3.org/2000/svg">
<g clip-path="url(#clip0_1660_8759)">
<path d="M55.9273 31.3333C54.5654 31.3333 53.3318 31.1162 52.2264 30.682C51.1409 30.228 50.2033 29.5569 49.4138 28.6687C48.644 27.7805 48.0519 26.685 47.6374 25.3823C47.2229 24.0599 47.0156 22.5302 47.0156 20.7932C47.0156 19.0563 47.2229 17.5167 47.6374 16.1745C48.0519 14.8126 48.644 13.6777 49.4138 12.7697C50.2033 11.8421 51.1409 11.1414 52.2264 10.6676C53.3318 10.1939 54.5654 9.95703 55.9273 9.95703C57.7827 9.95703 59.3223 10.3518 60.546 11.1414C61.7698 11.9309 62.7468 13.125 63.4771 14.7238L60.1315 16.5002C59.8355 15.5725 59.3519 14.8324 58.6808 14.2797C58.0097 13.7073 57.0919 13.4211 55.9273 13.4211C54.4667 13.4211 53.3022 13.9145 52.4337 14.9014C51.585 15.8883 51.1606 17.27 51.1606 19.0464V22.3032C51.1606 24.0994 51.585 25.481 52.4337 26.4482C53.3022 27.3956 54.4667 27.8693 55.9273 27.8693C57.0919 27.8693 58.0393 27.5535 58.7696 26.9219C59.5196 26.2903 60.0624 25.5106 60.398 24.5829L63.5659 26.4482C62.8159 27.9878 61.8191 29.1918 60.5756 30.0602C59.3321 30.909 57.7827 31.3333 55.9273 31.3333Z" fill="black"/>
<path d="M72.2118 31.3334C71.1064 31.3334 70.1097 31.1459 69.2215 30.7709C68.353 30.3959 67.6029 29.8531 66.9713 29.1425C66.3594 28.432 65.8857 27.5832 65.5502 26.5963C65.2146 25.5897 65.0469 24.4646 65.0469 23.2211C65.0469 21.9776 65.2146 20.8624 65.5502 19.8755C65.8857 18.8886 66.3594 18.0498 66.9713 17.3589C67.6029 16.6484 68.353 16.1056 69.2215 15.7305C70.1097 15.3555 71.1064 15.168 72.2118 15.168C73.3171 15.168 74.3139 15.3555 75.2021 15.7305C76.0903 16.1056 76.8403 16.6484 77.4522 17.3589C78.0838 18.0498 78.5674 18.8886 78.903 19.8755C79.2385 20.8624 79.4063 21.9776 79.4063 23.2211C79.4063 24.4646 79.2385 25.5897 78.903 26.5963C78.5674 27.5832 78.0838 28.432 77.4522 29.1425C76.8403 29.8531 76.0903 30.3959 75.2021 30.7709C74.3139 31.1459 73.3171 31.3334 72.2118 31.3334ZM72.2118 28.2839C73.2184 28.2839 74.0079 27.978 74.5803 27.3661C75.1527 26.7542 75.4389 25.8561 75.4389 24.6719V21.8C75.4389 20.6354 75.1527 19.7472 74.5803 19.1354C74.0079 18.5235 73.2184 18.2175 72.2118 18.2175C71.2249 18.2175 70.4452 18.5235 69.8728 19.1354C69.3004 19.7472 69.0142 20.6354 69.0142 21.8V24.6719C69.0142 25.8561 69.3004 26.7542 69.8728 27.3661C70.4452 27.978 71.2249 28.2839 72.2118 28.2839Z" fill="black"/>
<path d="M84.0565 13.2764C83.2669 13.2764 82.6945 13.0987 82.3392 12.7435C82.0037 12.3882 81.8359 11.9342 81.8359 11.3815V10.7894C81.8359 10.2367 82.0037 9.78274 82.3392 9.42746C82.6945 9.07217 83.2669 8.89453 84.0565 8.89453C84.8262 8.89453 85.3888 9.07217 85.7441 9.42746C86.0993 9.78274 86.277 10.2367 86.277 10.7894V11.3815C86.277 11.9342 86.0993 12.3882 85.7441 12.7435C85.3888 13.0987 84.8262 13.2764 84.0565 13.2764ZM82.1616 15.5265H85.9513V30.9814H82.1616V15.5265Z" fill="black"/>
<path d="M89.7422 30.9782V15.5233H93.5319V18.0991H93.6799C93.9957 17.2701 94.4892 16.5793 95.1603 16.0266C95.8511 15.4542 96.7985 15.168 98.0025 15.168C99.6013 15.168 100.825 15.6911 101.674 16.7372C102.522 17.7833 102.947 19.2735 102.947 21.2078V30.9782H99.1572V21.5927C99.1572 20.4874 98.9598 19.6584 98.5651 19.1057C98.1703 18.5531 97.519 18.2767 96.611 18.2767C96.2162 18.2767 95.8314 18.336 95.4563 18.4544C95.101 18.5531 94.7754 18.711 94.4793 18.9281C94.203 19.1255 93.976 19.3821 93.7983 19.6979C93.6207 19.994 93.5319 20.3492 93.5319 20.7637V30.9782H89.7422Z" fill="black"/>
<path d="M111.622 31.3334C110.142 31.3334 108.899 31.0867 107.892 30.5933C106.885 30.0801 105.997 29.3794 105.227 28.4912L107.537 26.241C108.109 26.8924 108.731 27.4056 109.402 27.7806C110.093 28.1556 110.882 28.3431 111.77 28.3431C112.678 28.3431 113.33 28.1852 113.724 27.8694C114.139 27.5536 114.346 27.1194 114.346 26.5667C114.346 26.1127 114.198 25.7575 113.902 25.5009C113.626 25.2245 113.142 25.037 112.451 24.9383L110.912 24.7311C109.234 24.514 107.951 24.0403 107.063 23.3099C106.194 22.5599 105.76 21.4743 105.76 20.0532C105.76 19.3031 105.898 18.632 106.175 18.0399C106.451 17.428 106.846 16.9148 107.359 16.5003C107.872 16.0661 108.484 15.7404 109.195 15.5233C109.925 15.2864 110.734 15.168 111.622 15.168C112.372 15.168 113.034 15.2272 113.606 15.3457C114.198 15.4443 114.731 15.6022 115.205 15.8194C115.679 16.0167 116.113 16.2733 116.508 16.5891C116.902 16.8852 117.287 17.2208 117.662 17.5958L115.442 19.8163C114.988 19.3426 114.445 18.9478 113.813 18.632C113.182 18.3162 112.491 18.1583 111.741 18.1583C110.912 18.1583 110.31 18.3064 109.935 18.6024C109.579 18.8985 109.402 19.2834 109.402 19.7571C109.402 20.2703 109.55 20.665 109.846 20.9414C110.162 21.198 110.685 21.3855 111.415 21.5039L112.984 21.7112C116.32 22.1849 117.988 23.7047 117.988 26.2706C117.988 27.0207 117.83 27.7115 117.514 28.3431C117.218 28.955 116.794 29.4879 116.241 29.9419C115.688 30.3762 115.017 30.7216 114.228 30.9782C113.458 31.215 112.59 31.3334 111.622 31.3334Z" fill="black"/>
<path d="M129.978 28.4063H129.83C129.692 28.8011 129.505 29.1761 129.268 29.5314C129.051 29.867 128.764 30.1729 128.409 30.4492C128.074 30.7256 127.659 30.9427 127.166 31.1006C126.692 31.2585 126.138 31.3374 125.507 31.3374C123.908 31.3374 122.685 30.8144 121.836 29.7683C120.988 28.7221 120.562 27.2319 120.562 25.2976V15.5273H124.353V24.9127C124.353 25.9786 124.56 26.7977 124.975 27.3701C125.389 27.9228 126.05 28.1991 126.958 28.1991C127.333 28.1991 127.698 28.1497 128.054 28.0511C128.429 27.9524 128.754 27.8043 129.031 27.6069C129.307 27.3898 129.534 27.1332 129.712 26.8372C129.889 26.5214 129.978 26.1562 129.978 25.7417V15.5273H133.768V30.9821H129.978V28.4063Z" fill="black"/>
<path d="M141.345 30.9795C140.042 30.9795 139.085 30.6538 138.473 30.0024C137.861 29.3511 137.555 28.4333 137.555 27.249V9.07031H141.345V27.9596H143.388V30.9795H141.345Z" fill="black"/>
<path d="M150.347 30.9817C149.044 30.9817 148.047 30.6461 147.356 29.975C146.685 29.2842 146.35 28.3072 146.35 27.0439V18.5467H144.07V15.5268H145.254C145.827 15.5268 146.212 15.3985 146.409 15.1419C146.626 14.8656 146.735 14.4609 146.735 13.928V11.293H150.139V15.5268H153.307V18.5467H150.139V27.9617H153.071V30.9817H150.347Z" fill="black"/>
<path d="M13.099 0.0703125H40.0703V27.0416C40.0703 30.497 38.6976 33.8109 36.2543 36.2543C33.8109 38.6976 30.497 40.0703 27.0416 40.0703H0.0703125V13.099C0.0703125 9.64356 1.44297 6.32967 3.88632 3.88632C6.32967 1.44297 9.64356 0.0703125 13.099 0.0703125Z" fill="url(#paint0_linear_1660_8759)"/>
<path d="M31.6739 15.8123L28.9997 17.0376L27.1223 17.8981L27.0386 17.9357L24.4573 19.1017C24.4573 19.0916 24.4531 19.0816 24.4498 19.0715C24.2974 18.4364 24.0036 17.8438 23.5902 17.3381L23.3516 16.8167L25.9271 15.6365L27.8321 14.7635L30.5297 13.5273C30.6793 13.7605 30.8188 13.9991 30.9482 14.2429L31.653 15.7805L31.6739 15.8123Z" fill="black"/>
<path d="M32.1126 22.8747C31.9144 23.7181 31.6268 24.538 31.2547 25.3204L22.8906 23.8925L22.9693 23.4313C23.5794 22.9357 24.0425 22.2827 24.3085 21.543L32.1126 22.8747Z" fill="black"/>
<path d="M17.0324 24.2069L13.6535 26.5999L11.2379 28.3107C10.6611 27.6807 10.152 26.992 9.71875 26.2559L12.1218 24.5534L13.81 23.3573L15.5559 22.1211L17.0324 24.2069Z" fill="black"/>
<path d="M17.3572 13.6968L16.3126 16.0287L14.7826 15.3432L12.8449 14.4752L10.1172 13.2524C10.6144 12.515 11.1909 11.8344 11.8364 11.2227L14.8127 12.556L17.0885 13.5771L17.3572 13.6968Z" fill="black"/>
<path d="M29.2132 22.3789C28.8047 23.9654 27.9831 25.4152 26.8322 26.581C25.6813 27.7468 24.2421 28.5868 22.661 29.0156C21.08 29.4444 19.4135 29.4467 17.8313 29.0222C16.2491 28.5978 14.8076 27.7617 13.6535 26.5991C13.0513 25.9908 12.5359 25.3025 12.1218 24.5535L9.71875 26.2559C10.952 28.3576 12.7867 30.0417 14.9861 31.0909C17.1855 32.1401 19.6488 32.5063 22.0583 32.1423C24.4677 31.7783 26.7129 30.7008 28.5043 29.0487C30.2956 27.3967 31.5509 25.2458 32.1084 22.8736L29.2132 22.3789Z" fill="black"/>
<path d="M14.8155 12.5535C15.988 11.7085 17.3417 11.1491 18.7686 10.9199C20.1956 10.6907 21.6563 10.798 23.0345 11.2334C24.4126 11.6688 25.6699 12.4201 26.7062 13.4275C27.7426 14.4348 28.5292 15.6704 29.0034 17.0356L31.6776 15.8102C31.6726 15.7977 31.6684 15.7851 31.6634 15.7734L30.9586 14.2358C30.8264 13.9926 30.6869 13.754 30.5401 13.5202C29.452 11.8119 27.9559 10.4012 26.1867 9.41527C24.4175 8.42928 22.4308 7.89898 20.4056 7.87216C18.3803 7.84534 16.3803 8.32284 14.5856 9.26164C12.7909 10.2004 11.258 11.571 10.125 13.2499L12.8528 14.4727C13.4081 13.7391 14.0696 13.0923 14.8155 12.5535Z" fill="black"/>
<path d="M11.1406 18.2975C11.2429 17.7716 11.3902 17.2555 11.5809 16.7549L8.90253 15.5547C7.84832 18.2104 7.75653 21.1513 8.64306 23.8677L11.1842 22.0681C10.9109 20.8276 10.8961 19.544 11.1406 18.2975Z" fill="black"/>
<path d="M28.8677 16.6797L27.0238 17.6063L26.9434 17.6473L24.4141 18.917" fill="black"/>
<path d="M15.4331 22.1841L13.8002 23.3408C13.3868 22.5315 13.1312 21.651 13.0469 20.7461L13.9575 20.1016L15.4331 22.1841Z" fill="black"/>
<path d="M16.6622 16.2354L15.6176 18.5673L13.4531 17.5947C13.7475 16.7827 14.1865 16.0306 14.7488 15.375L16.6622 16.2354Z" fill="black"/>
<path d="M27.1871 22.0359C26.7928 23.4314 25.9872 24.6758 24.8753 25.6068C23.7635 26.5378 22.397 27.1123 20.9539 27.2554C19.5108 27.3985 18.058 27.1036 16.785 26.409C15.512 25.7145 14.4777 24.6526 13.8169 23.3617C13.8131 23.3563 13.81 23.3504 13.8077 23.3441C13.1606 22.0715 12.9053 20.6356 13.0741 19.2179C13.2429 17.8002 13.8282 16.4643 14.7561 15.3792L14.787 15.3441C15.6283 14.3745 16.7129 13.6468 17.929 13.2357C19.1451 12.8247 20.4488 12.7452 21.7058 13.0055C22.9628 13.2658 24.1277 13.8565 25.0806 14.7167C26.0334 15.5769 26.7398 16.6755 27.1268 17.8994L27.0431 17.9363L24.4619 19.1014C24.4619 19.0913 24.4577 19.0813 24.4543 19.0712C24.2137 18.0589 23.6167 17.1669 22.7726 16.5584C21.9285 15.9498 20.8936 15.6654 19.8571 15.757C18.8206 15.8487 17.8516 16.3103 17.1273 17.0574C16.4031 17.8046 15.9719 18.7874 15.9126 19.8263C15.8533 20.8652 16.1698 21.8908 16.8043 22.7155C17.4388 23.5403 18.3489 24.1091 19.3683 24.3181C20.3877 24.5272 21.4482 24.3624 22.3561 23.8539C23.264 23.3454 23.9586 22.5271 24.3129 21.5487L27.1871 22.0359Z" fill="black"/>
</g>
<defs>
<linearGradient id="paint0_linear_1660_8759" x1="0.709776" y1="1.06801" x2="59.2593" y2="58.5336" gradientUnits="userSpaceOnUse">
<stop stop-color="#3B916F"/>
<stop offset="1" stop-color="#096AA5"/>
</linearGradient>
<clipPath id="clip0_1660_8759">
<rect width="156" height="40" fill="white" transform="translate(0.0703125 0.0703125)"/>
</clipPath>
</defs>
</svg>
