<svg width="40" height="40" viewBox="0 0 40 40" fill="none" xmlns="http://www.w3.org/2000/svg">
<rect width="40" height="40" rx="8" fill="white"/>
<path d="M18.9193 10.8687C19.0293 10.6798 19.1869 10.5232 19.3764 10.4143C19.5659 10.3054 19.7807 10.248 19.9993 10.248C20.2178 10.248 20.4326 10.3054 20.6221 10.4143C20.8116 10.5232 20.9692 10.6798 21.0793 10.8687L23.8743 15.6667L29.3023 16.8427C29.5158 16.8891 29.7134 16.9906 29.8754 17.1372C30.0374 17.2838 30.1582 17.4703 30.2257 17.6781C30.2932 17.8859 30.305 18.1078 30.26 18.3216C30.215 18.5354 30.1148 18.7337 29.9693 18.8967L26.2693 23.0377L26.8293 28.5627C26.8513 28.7802 26.816 28.9998 26.7267 29.1994C26.6374 29.399 26.4973 29.5717 26.3204 29.7002C26.1435 29.8288 25.9359 29.9086 25.7185 29.9319C25.5011 29.9551 25.2813 29.9209 25.0813 29.8327L19.9993 27.5927L14.9173 29.8327C14.7172 29.9209 14.4974 29.9551 14.28 29.9319C14.0626 29.9086 13.855 29.8288 13.6781 29.7002C13.5012 29.5717 13.3611 29.399 13.2718 29.1994C13.1825 28.9998 13.1472 28.7802 13.1693 28.5627L13.7293 23.0377L10.0293 18.8977C9.88348 18.7347 9.78301 18.5363 9.73787 18.3224C9.69272 18.1085 9.70449 17.8864 9.772 17.6784C9.8395 17.4705 9.96038 17.2838 10.1226 17.1372C10.2847 16.9905 10.4826 16.889 10.6963 16.8427L16.1243 15.6667L18.9193 10.8687Z" fill="#E6B004"/>
</svg>
