<svg width="40" height="40" viewBox="0 0 40 40" fill="none" xmlns="http://www.w3.org/2000/svg">
<rect width="40" height="40" rx="8" fill="white"/>
<path d="M20 10C20.896 10 21.764 10.118 22.59 10.339L20.464 12.464C20.3027 12.6259 20.1605 12.8058 20.04 13H20C18.6155 13 17.2622 13.4105 16.111 14.1797C14.9599 14.9489 14.0627 16.0421 13.5328 17.3212C13.003 18.6003 12.8644 20.0078 13.1345 21.3656C13.4046 22.7235 14.0713 23.9708 15.0503 24.9497C16.0292 25.9287 17.2765 26.5954 18.6344 26.8655C19.9922 27.1356 21.3997 26.997 22.6788 26.4672C23.9579 25.9373 25.0511 25.0401 25.8203 23.889C26.5895 22.7378 27 21.3845 27 20V19.96C27.1933 19.84 27.3717 19.6983 27.535 19.535L29.661 17.41C29.882 18.236 30 19.104 30 20C30 25.523 25.523 30 20 30C14.477 30 10 25.523 10 20C10 14.477 14.477 10 20 10ZM19.586 15.017C19.586 15.868 19.544 16.731 19.59 17.581L19.05 18.121C18.8642 18.3068 18.7169 18.5273 18.6164 18.77C18.5158 19.0127 18.4641 19.2728 18.4641 19.5355C18.4641 19.7982 18.5158 20.0583 18.6164 20.301C18.7169 20.5437 18.8642 20.7642 19.05 20.95C19.2358 21.1358 19.4563 21.2831 19.699 21.3836C19.9417 21.4842 20.2018 21.5359 20.4645 21.5359C20.7272 21.5359 20.9873 21.4842 21.23 21.3836C21.4727 21.2831 21.6932 21.1358 21.879 20.95L22.419 20.41C23.269 20.456 24.131 20.414 24.983 20.414C24.904 21.3643 24.5549 22.2723 23.9768 23.0307C23.3988 23.7891 22.6159 24.3665 21.7205 24.6946C20.8251 25.0227 19.8545 25.0879 18.9233 24.8825C17.992 24.6771 17.139 24.2097 16.4646 23.5353C15.7903 22.861 15.3229 22.008 15.1175 21.0767C14.9121 20.1455 14.9773 19.1749 15.3054 18.2795C15.6335 17.3841 16.2108 16.6012 16.9693 16.0232C17.7277 15.4451 18.6357 15.096 19.586 15.017ZM26.504 10.127C26.6865 10.2027 26.8425 10.3307 26.9524 10.495C27.0622 10.6593 27.1208 10.8524 27.121 11.05V12.88H28.95C29.1477 12.88 29.341 12.9387 29.5055 13.0486C29.6699 13.1585 29.798 13.3146 29.8737 13.4973C29.9493 13.68 29.9691 13.8811 29.9306 14.075C29.892 14.269 29.7968 14.4471 29.657 14.587L26.12 18.12C25.9325 18.3075 25.6782 18.4129 25.413 18.413H23L21.172 20.242C20.9844 20.4296 20.7299 20.5351 20.4645 20.5351C20.1991 20.5351 19.9446 20.4296 19.757 20.242C19.5694 20.0544 19.4639 19.7999 19.4639 19.5345C19.4639 19.2691 19.5694 19.0146 19.757 18.827L21.586 17V14.586C21.5859 14.4545 21.6117 14.3243 21.662 14.2028C21.7123 14.0813 21.786 13.971 21.879 13.878L25.414 10.343C25.5538 10.2031 25.7321 10.1078 25.9261 10.0691C26.1201 10.0305 26.3212 10.0503 26.504 10.126" fill="#E6B004"/>
</svg>
