<svg width="147" height="34" viewBox="0 0 147 34" fill="none" xmlns="http://www.w3.org/2000/svg">
<path d="M37.5135 22.6602V10.5H42.5014C43.0632 10.5 43.5792 10.5516 44.0493 10.6548C44.5309 10.7465 44.9437 10.9128 45.2877 11.1536C45.6432 11.3944 45.9184 11.7154 46.1133 12.1168C46.3082 12.5181 46.4057 13.0169 46.4057 13.6131C46.4057 14.1635 46.2796 14.668 46.0273 15.1267C45.775 15.5739 45.4024 15.9121 44.9093 16.1415C45.5744 16.3135 46.0846 16.646 46.4401 17.1391C46.7955 17.6206 46.9733 18.2513 46.9733 19.031C46.9733 19.7305 46.8414 20.3153 46.5777 20.7854C46.3254 21.244 45.97 21.611 45.5113 21.8862C45.0641 22.1614 44.5424 22.362 43.9461 22.4882C43.3499 22.6028 42.7135 22.6602 42.037 22.6602H37.5135ZM39.6634 20.6994H42.2262C42.5472 20.6994 42.8626 20.6765 43.1721 20.6306C43.4817 20.5847 43.7627 20.5045 44.0149 20.3898C44.2672 20.2751 44.4621 20.1089 44.5997 19.891C44.7488 19.6617 44.8233 19.3693 44.8233 19.0138C44.8233 18.6928 44.766 18.429 44.6513 18.2226C44.5367 18.0162 44.3761 17.8557 44.1697 17.741C43.9748 17.6149 43.7397 17.5289 43.4645 17.4831C43.1893 17.4257 42.9027 17.3971 42.6046 17.3971H39.6634V20.6994ZM39.6634 15.5911H41.9338C42.2892 15.5911 42.6103 15.5567 42.897 15.4879C43.1836 15.4191 43.4301 15.3159 43.6365 15.1783C43.8429 15.0292 44.0035 14.8515 44.1181 14.6451C44.2328 14.4272 44.2901 14.1635 44.2901 13.8539C44.2901 13.4526 44.1984 13.1545 44.0149 12.9595C43.8315 12.7531 43.5792 12.6213 43.2581 12.5639C42.9486 12.4951 42.5988 12.4607 42.209 12.4607H39.6634V15.5911ZM48.6923 22.6602V10.5H50.7907V22.6602H48.6923ZM56.9694 22.7806C56.0406 22.7806 55.2379 22.5914 54.5614 22.213C53.8964 21.8346 53.3804 21.2956 53.0135 20.5962C52.658 19.8967 52.4803 19.0769 52.4803 18.1366C52.4803 17.1849 52.6637 16.3651 53.0307 15.6771C53.3976 14.9776 53.9136 14.433 54.5786 14.0431C55.2437 13.6533 56.0406 13.4583 56.9694 13.4583C57.8867 13.4583 58.6779 13.6533 59.3429 14.0431C60.008 14.433 60.5182 14.9834 60.8737 15.6943C61.2292 16.3937 61.4069 17.2193 61.4069 18.171C61.4069 19.0998 61.2292 19.9139 60.8737 20.6134C60.5297 21.3014 60.0252 21.8346 59.3601 22.213C58.6951 22.5914 57.8982 22.7806 56.9694 22.7806ZM56.9522 20.8714C57.5255 20.8714 57.9842 20.7453 58.3282 20.493C58.6836 20.2407 58.9416 19.9082 59.1021 19.4954C59.2627 19.0826 59.3429 18.6354 59.3429 18.1538C59.3429 17.6722 59.2627 17.2193 59.1021 16.7951C58.9416 16.3708 58.6836 16.0325 58.3282 15.7803C57.9842 15.5166 57.5255 15.3847 56.9522 15.3847C56.3789 15.3847 55.9145 15.5166 55.559 15.7803C55.2035 16.0325 54.9456 16.3708 54.785 16.7951C54.6245 17.2079 54.5442 17.6608 54.5442 18.1538C54.5442 18.6354 54.6245 19.0884 54.785 19.5126C54.957 19.9254 55.215 20.2579 55.559 20.5102C55.9145 20.751 56.3789 20.8714 56.9522 20.8714ZM67.0773 22.7806C66.137 22.7806 65.3459 22.5914 64.7037 22.213C64.0616 21.8231 63.5743 21.2784 63.2418 20.579C62.9092 19.8795 62.743 19.0712 62.743 18.1538C62.743 17.2365 62.915 16.4281 63.259 15.7287C63.6029 15.0178 64.1075 14.4616 64.7725 14.0603C65.4376 13.659 66.246 13.4583 67.1977 13.4583C67.8971 13.4583 68.5163 13.5787 69.0552 13.8195C69.6056 14.0603 70.0471 14.4158 70.3796 14.8859C70.7236 15.3446 70.9415 15.9179 71.0332 16.6059H68.9693C68.8317 16.1701 68.6023 15.8548 68.2813 15.6599C67.9717 15.4535 67.599 15.3503 67.1633 15.3503C66.5785 15.3503 66.1141 15.4936 65.7701 15.7803C65.4376 16.0555 65.1968 16.4052 65.0477 16.8295C64.8987 17.2537 64.8241 17.6952 64.8241 18.1538C64.8241 18.6354 64.9044 19.0884 65.0649 19.5126C65.2255 19.9254 65.472 20.2579 65.8045 20.5102C66.1485 20.7625 66.59 20.8886 67.1289 20.8886C67.5646 20.8886 67.9545 20.7911 68.2985 20.5962C68.6539 20.4013 68.8833 20.0859 68.9865 19.6502H71.1192C71.0389 20.3497 70.8039 20.9345 70.414 21.4046C70.0356 21.8632 69.554 22.2072 68.9693 22.4366C68.3845 22.6659 67.7538 22.7806 67.0773 22.7806ZM72.6946 22.6602V10.5H74.793V17.2251H76.1001L78.4909 13.5959H80.8472L77.9061 17.913L81.088 22.6602H78.6457L76.2205 19.0654H74.793V22.6602H72.6946ZM86.0742 22.7806C85.134 22.7806 84.3428 22.5914 83.7006 22.213C83.0585 21.8231 82.5712 21.2784 82.2387 20.579C81.9061 19.8795 81.7399 19.0712 81.7399 18.1538C81.7399 17.2365 81.9119 16.4281 82.2559 15.7287C82.5999 15.0178 83.1044 14.4616 83.7694 14.0603C84.4345 13.659 85.2429 13.4583 86.1946 13.4583C86.8941 13.4583 87.5132 13.5787 88.0522 13.8195C88.6026 14.0603 89.044 14.4158 89.3765 14.8859C89.7205 15.3446 89.9384 15.9179 90.0301 16.6059H87.9662C87.8286 16.1701 87.5992 15.8548 87.2782 15.6599C86.9686 15.4535 86.5959 15.3503 86.1602 15.3503C85.5754 15.3503 85.111 15.4936 84.767 15.7803C84.4345 16.0555 84.1937 16.4052 84.0446 16.8295C83.8956 17.2537 83.821 17.6952 83.821 18.1538C83.821 18.6354 83.9013 19.0884 84.0618 19.5126C84.2224 19.9254 84.4689 20.2579 84.8014 20.5102C85.1454 20.7625 85.5869 20.8886 86.1258 20.8886C86.5615 20.8886 86.9514 20.7911 87.2954 20.5962C87.6508 20.4013 87.8802 20.0859 87.9834 19.6502H90.1161C90.0359 20.3497 89.8008 20.9345 89.4109 21.4046C89.0325 21.8632 88.551 22.2072 87.9662 22.4366C87.3814 22.6659 86.7507 22.7806 86.0742 22.7806ZM91.6915 22.6602V10.5H93.7899V14.7655C94.0307 14.4559 94.3116 14.2036 94.6327 14.0087C94.9537 13.8138 95.292 13.6762 95.6474 13.5959C96.0029 13.5042 96.3412 13.4583 96.6622 13.4583C97.5222 13.4583 98.1987 13.6475 98.6918 14.0259C99.1848 14.4043 99.5288 14.9088 99.7238 15.5395C99.9302 16.1701 100.033 16.8811 100.033 17.6722V22.6602H97.935V18.0334C97.935 17.7238 97.9121 17.4085 97.8662 17.0875C97.8203 16.7664 97.7286 16.4797 97.591 16.2275C97.4649 15.9637 97.2699 15.7516 97.0062 15.5911C96.7539 15.4306 96.4157 15.3503 95.9914 15.3503C95.5901 15.3503 95.2461 15.4363 94.9594 15.6083C94.6728 15.7688 94.4435 15.9924 94.2715 16.2791C94.1109 16.5657 93.9905 16.8811 93.9103 17.2251C93.83 17.5691 93.7899 17.913 93.7899 18.257V22.6602H91.6915ZM104.894 22.7806C104.47 22.7806 104.069 22.7232 103.69 22.6086C103.312 22.4939 102.974 22.3276 102.675 22.1098C102.377 21.8804 102.136 21.5995 101.953 21.267C101.781 20.923 101.695 20.5217 101.695 20.063C101.695 19.4782 101.81 19.0024 102.039 18.6354C102.268 18.257 102.578 17.9704 102.968 17.7754C103.369 17.5805 103.822 17.4487 104.327 17.3799C104.831 17.2996 105.359 17.2595 105.909 17.2595H107.68C107.68 16.8581 107.617 16.5141 107.491 16.2275C107.365 15.9293 107.165 15.6943 106.889 15.5223C106.626 15.3503 106.282 15.2643 105.857 15.2643C105.582 15.2643 105.324 15.2987 105.083 15.3675C104.854 15.4248 104.653 15.5223 104.481 15.6599C104.321 15.786 104.206 15.9523 104.137 16.1587H101.987C102.068 15.6886 102.228 15.2872 102.469 14.9547C102.721 14.6107 103.025 14.3298 103.381 14.1119C103.747 13.8941 104.149 13.7335 104.585 13.6303C105.02 13.5157 105.462 13.4583 105.909 13.4583C107.228 13.4583 108.185 13.8367 108.781 14.5935C109.389 15.3503 109.693 16.4109 109.693 17.7754V22.6602H107.835L107.784 21.4906C107.52 21.8804 107.205 22.1671 106.838 22.3506C106.471 22.534 106.115 22.6487 105.771 22.6946C105.427 22.7519 105.135 22.7806 104.894 22.7806ZM105.307 21.0778C105.766 21.0778 106.173 20.9918 106.528 20.8198C106.884 20.6478 107.165 20.407 107.371 20.0974C107.589 19.7878 107.698 19.4323 107.698 19.031V18.7386H106.047C105.771 18.7386 105.496 18.7501 105.221 18.773C104.957 18.7845 104.716 18.8304 104.499 18.9106C104.281 18.9794 104.103 19.0884 103.965 19.2374C103.839 19.3865 103.776 19.5986 103.776 19.8738C103.776 20.149 103.845 20.3726 103.983 20.5446C104.132 20.7166 104.321 20.8485 104.55 20.9402C104.791 21.0319 105.043 21.0778 105.307 21.0778ZM111.696 22.6602V13.5959H113.795V22.6602H111.696ZM112.745 12.5467C112.344 12.5467 112.023 12.4263 111.782 12.1855C111.541 11.9448 111.421 11.6294 111.421 11.2396C111.421 10.8612 111.547 10.5516 111.799 10.3108C112.052 10.0585 112.367 9.93239 112.745 9.93239C113.112 9.93239 113.428 10.0528 113.691 10.2936C113.955 10.5344 114.087 10.8497 114.087 11.2396C114.087 11.6294 113.961 11.9448 113.709 12.1855C113.456 12.4263 113.135 12.5467 112.745 12.5467ZM115.828 22.6602V13.5959H117.789L117.909 14.7483C118.15 14.4272 118.431 14.175 118.752 13.9915C119.073 13.8081 119.411 13.6762 119.767 13.5959C120.122 13.5042 120.455 13.4583 120.764 13.4583C121.624 13.4583 122.301 13.6475 122.794 14.0259C123.299 14.4043 123.654 14.9088 123.86 15.5395C124.067 16.1701 124.17 16.8753 124.17 17.655V22.6602H122.072V17.999C122.072 17.6665 122.049 17.3455 122.003 17.0359C121.957 16.7148 121.865 16.4281 121.728 16.1759C121.602 15.9236 121.418 15.723 121.177 15.5739C120.936 15.4248 120.615 15.3503 120.214 15.3503C119.721 15.3503 119.303 15.4822 118.959 15.7459C118.615 16.0096 118.357 16.3651 118.185 16.8123C118.013 17.248 117.927 17.7468 117.927 18.3086V22.6602H115.828ZM126.485 22.6602V10.5H134.982V12.4607H128.635V16.0899H134.07V18.0506H128.635V22.6602H126.485ZM135.611 22.6602L139.687 16.5715L135.748 10.5H138.328L141.046 14.9547L143.729 10.5H146.257L142.336 16.5543L146.395 22.6602H143.815L140.977 18.1882L138.088 22.6602H135.611Z" fill="white"/>
<circle cx="16.2455" cy="16.2768" r="15.2768" stroke="#ECB300" stroke-width="1.03571"/>
<path d="M18.5361 8.70363C19.2233 8.91086 19.6949 9.21746 19.9709 9.40198C20.3131 9.62909 20.5747 9.85336 20.7501 10.0208C21.2993 10.6596 21.4804 11.3381 21.5811 11.7128C21.7881 12.4821 21.7651 13.1464 21.7162 13.558C21.4574 13.3111 21.0118 12.9534 20.3706 12.6979C19.8616 12.4963 19.4045 12.4282 19.0824 12.4055C19.091 12.2692 19.1054 11.8377 18.8179 11.4232C18.4355 10.8725 17.8288 10.7788 17.7253 10.7646H13.2685V13.0357H18.9674C19.2549 13.0556 19.6834 13.1152 20.1607 13.3054C20.9773 13.629 21.4632 14.14 21.7536 14.4551C22.3344 15.0825 23.637 16.4849 23.5708 18.6197C23.5622 18.9376 23.4443 21.3393 21.3856 22.7161C20.1204 23.5649 18.7978 23.5678 18.3003 23.5422H11.2558V16.729H18.0128C18.2256 16.465 18.4383 16.201 18.6511 15.937C18.8869 15.9966 19.3239 16.1414 19.7524 16.4991C20.1837 16.8596 20.4022 17.2656 20.5 17.4841C20.3907 17.6885 20.2354 17.9213 20.0083 18.1484C19.2808 18.8723 18.3463 18.9774 18.0099 19.0001H13.2656V21.2711H18.8725C19.1859 21.2257 20.0428 21.0582 20.661 20.3428C21.5868 19.2754 21.3856 17.6602 20.7214 16.6637C20.6667 16.5814 19.9076 15.4799 18.6684 15.3096C18.3463 15.2642 18.0962 15.3096 18.0099 15.3096C16.2128 15.3096 11.3593 15.3096 11.25 15.3096V8.49639C11.25 8.49639 11.8941 8.49355 13.1563 8.49639C14.3352 8.4822 15.5314 8.48504 16.7419 8.50207C16.9834 8.50491 17.2249 8.51059 17.4636 8.51343C17.9122 8.54465 18.2744 8.62982 18.5275 8.70647L18.5361 8.70363Z" fill="#ECB300"/>
</svg>
