<svg width="30" height="31" viewBox="0 0 30 31" fill="none" xmlns="http://www.w3.org/2000/svg">
<path d="M15 30.4629C23.2843 30.4629 30 23.7472 30 15.4629C30 7.17862 23.2843 0.462891 15 0.462891C6.71573 0.462891 0 7.17862 0 15.4629C0 23.7472 6.71573 30.4629 15 30.4629Z" fill="#988430"/>
<path d="M15.0039 29.9824C23.0228 29.9824 29.5234 23.4818 29.5234 15.4629C29.5234 7.44397 23.0228 0.943359 15.0039 0.943359C6.98499 0.943359 0.484375 7.44397 0.484375 15.4629C0.484375 23.4818 6.98499 29.9824 15.0039 29.9824Z" fill="#7A6A2A"/>
<path d="M15.0027 29.6772C22.8526 29.6772 29.2163 23.3136 29.2163 15.4636C29.2163 7.61364 22.8526 1.25 15.0027 1.25C7.15271 1.25 0.789062 7.61364 0.789062 15.4636C0.789062 23.3136 7.15271 29.6772 15.0027 29.6772Z" fill="#BA9F33"/>
<path fill-rule="evenodd" clip-rule="evenodd" d="M6.5561 13.8617C6.47114 13.7841 6.38138 13.7063 6.29882 13.6287C6.21626 13.5511 6.13146 13.4734 6.0465 13.3958L5.79402 13.1558C5.75274 13.1145 5.70906 13.0782 5.66778 13.0367C5.6265 13.0004 5.57802 12.9591 5.53674 12.9227C5.20169 12.6047 4.86474 12.2868 4.53434 11.9688C4.87657 12.2819 5.21162 12.5927 5.55386 12.9105L5.67273 13.0295C5.71402 13.0707 5.7577 13.1071 5.79898 13.1484L6.0513 13.3814C6.13626 13.459 6.21882 13.5367 6.30378 13.6214C6.38874 13.706 6.47129 13.7839 6.55625 13.8614L6.5561 13.8617ZM2.10953 13.8137C2.10953 13.8137 3.32794 13.9398 3.92266 14.0247C4.47354 14.1025 6.1969 14.367 6.1969 14.367L2.10953 13.8137ZM2.10953 13.8137C2.45177 13.8428 2.79401 13.8791 3.13625 13.9156C3.31097 13.9326 3.4785 13.952 3.64601 13.9689L3.90314 13.9982C3.9881 14.0102 4.07065 14.0223 4.15561 14.0345L5.17513 14.1971L5.68474 14.282C5.85226 14.3112 6.01978 14.3428 6.1945 14.3719C6.02698 14.355 5.85226 14.3307 5.68474 14.3063L5.17513 14.2335L4.15561 14.0831C4.07065 14.071 3.9881 14.0539 3.90314 14.0419L3.64586 14.0123C3.47834 13.9953 3.30361 13.971 3.1361 13.9515C2.79386 13.9103 2.45162 13.8665 2.10938 13.8132L2.10953 13.8137ZM6.07561 14.6844C6.07561 14.6844 4.77466 15.0147 4.33529 15.1409C3.9033 15.2598 2.59498 15.6579 2.59498 15.6579L6.07546 14.6846L6.07561 14.6844Z" fill="#CFB66C"/>
<path fill-rule="evenodd" clip-rule="evenodd" d="M6.0801 14.6836C5.7913 14.7686 5.5041 14.8511 5.21114 14.9289L4.34218 15.1618C4.05338 15.2468 3.76618 15.3294 3.47818 15.4143L3.04618 15.5332C2.90298 15.5745 2.75738 15.6108 2.60938 15.6522C2.75242 15.6042 2.89818 15.5551 3.04138 15.5138L3.47338 15.3756C3.76218 15.2857 4.04938 15.2007 4.33738 15.111C4.63098 15.0382 4.91994 14.9604 5.21354 14.89C5.49258 14.8196 5.78634 14.7494 6.0801 14.6838V14.6836ZM2.7817 16.458C2.92474 16.4046 4.5753 15.6353 4.95882 15.4556C5.15082 15.3657 5.7089 15.1676 5.7089 15.1676L2.7817 16.458Z" fill="#CFB66C"/>
<path fill-rule="evenodd" clip-rule="evenodd" d="M2.78141 16.4583C2.90749 16.4103 3.02653 16.3516 3.14781 16.2957L3.50701 16.1282L4.22797 15.7812C4.46797 15.6671 4.70125 15.5412 4.94877 15.434C5.07501 15.3807 5.20125 15.337 5.32733 15.2957L5.51933 15.2351C5.58477 15.2181 5.64557 15.1986 5.71133 15.1816C5.47133 15.2957 5.21869 15.3928 4.97837 15.5044C4.73837 15.6234 4.49293 15.7205 4.24525 15.8272L3.51229 16.15C3.26621 16.2496 3.02621 16.3564 2.78125 16.4583H2.78141ZM2.94141 17.1303C2.94141 17.1303 4.43645 16.2541 4.95101 15.9725C5.22045 15.8221 6.09181 15.39 6.09181 15.39L2.94141 17.1303Z" fill="#CFB66C"/>
<path fill-rule="evenodd" clip-rule="evenodd" d="M2.9375 17.1299C3.18982 16.9745 3.4471 16.8168 3.70438 16.6566L4.08838 16.4235C4.21942 16.3459 4.34566 16.2731 4.47926 16.1955C4.6103 16.1177 4.73654 16.0401 4.86998 15.9673C4.9335 15.9281 5.00006 15.894 5.06902 15.8654L5.27286 15.7635C5.5423 15.6324 5.81174 15.4988 6.09574 15.3848C5.83846 15.5475 5.57382 15.6859 5.30934 15.8289C5.1783 15.9017 5.0447 15.9673 4.91366 16.0401C4.78262 16.1129 4.65638 16.1907 4.52278 16.2611C4.39174 16.3387 4.2655 16.4115 4.13206 16.4819L3.73638 16.6979L2.93782 17.1299H2.9375ZM6.07574 15.5812C6.07574 15.5812 5.14614 16.2948 4.84518 16.523C4.54422 16.7512 3.6583 17.392 3.6583 17.392L6.07574 15.5812Z" fill="#CFB66C"/>
<path fill-rule="evenodd" clip-rule="evenodd" d="M11.4132 21.3371L10.9375 20.4366L11.2141 19.3104L13.1874 18.5483L12.3476 16.8251L12.7626 15.0848L13.5418 13.5264L15.9497 13.1478L17.7189 11.4609L21.5394 11.7497L22.2893 15.8347L20.8452 20.9779L20.0225 23.6406L16.6874 23.7669L15.1389 22.6941L13.3258 21.9366L11.4132 21.3371Z" fill="#E2CC85"/>
<path fill-rule="evenodd" clip-rule="evenodd" d="M17.2625 21.3066C17.2625 21.3066 16.8012 21.5178 16.0145 21.4692C15.7868 21.1634 14.1923 21.0202 14.1923 21.0202C14.1923 21.0202 13.9932 20.9596 13.6412 21.1052C13.287 21.2492 12.9519 21.2314 12.6388 21.309C12.3257 21.3866 12.0148 20.979 11.7748 20.894C11.5348 20.8042 11.2166 20.5882 11.2166 20.5882L10.5446 20.5226L9.19514 19.9522L7.0513 17.8164L6.46874 18.7284L6.28906 19.857L6.93722 21.1945L8.68234 22.7842L12.0852 23.6482L14.1022 23.054L16.6289 21.986L17.2625 21.3065V21.3066Z" fill="#F1D789"/>
<path fill-rule="evenodd" clip-rule="evenodd" d="M5.17295 13.7582L5.60495 12.45L6.11967 11.6052L7.77727 11.4668L7.27967 12.9183L5.89391 15.3844L6.46911 17.5858L5.44975 18.0954L5.13647 17.615L4.88415 16.513L4.86719 15.2751L5.17295 13.7582Z" fill="#F4ECB4"/>
<path fill-rule="evenodd" clip-rule="evenodd" d="M7.03043 21.2181L6.71251 20.774C6.71251 20.774 6.62755 20.5628 6.67619 20.3783C6.72419 20.1914 6.71731 20.1792 6.69315 20.1088C6.66899 20.0384 6.46499 19.7957 6.47715 19.5869C6.48915 19.3757 6.46019 19.3053 6.61539 19.138C6.77795 18.9754 6.72947 18.6938 6.72947 18.6938L6.94067 18.8248L6.98867 18.752C6.98867 18.752 7.06627 18.8127 7.06627 18.9074C7.08323 18.7764 7.01283 18.1695 7.17299 18.0312C7.33315 17.893 7.61715 18.6792 7.61715 18.6792L7.44243 17.5384L6.99331 16.3687L6.19475 15.3007L6.14675 14.1234V14.0215C6.14675 14.0215 5.78019 14.5847 5.67827 15.0295C5.60547 15.3352 5.78019 15.7066 5.74387 16.146C5.71459 16.5829 5.67827 16.5488 5.78499 16.722C5.89171 16.8951 6.15155 17.2511 6.04963 17.5084C5.95987 17.7293 5.65395 17.574 5.65395 17.574C5.65395 17.574 5.59331 17.7535 5.51075 17.8191C5.48163 17.7124 5.45011 17.6444 5.39187 17.5791C5.38691 17.6204 5.37491 17.6762 5.37491 17.6762C5.37491 17.6762 5.32147 17.5087 5.26803 17.2975C5.19539 17.016 5.11763 16.6447 5.04723 16.4456C5.01811 16.5597 4.94531 16.9068 4.94531 16.9068L4.98659 17.4408L5.18563 18.1738L5.37763 18.6538L5.56451 19.2412L5.72691 19.6357L5.85795 19.9367L5.97203 20.614L6.52291 21.1964L6.81667 21.3276L7.03011 21.2183L7.03043 21.2181Z" fill="#F3E19D"/>
<path fill-rule="evenodd" clip-rule="evenodd" d="M5.45888 12.6904C5.45888 12.6904 5.0632 13.3624 4.94928 14.0398C4.83536 14.7173 4.73328 15.4331 4.80528 16.3553C4.87808 17.2851 5.01648 17.8553 5.12816 18.2632C5.32016 18.9405 5.81744 19.8822 5.81744 19.8822L5.8344 19.8457C5.75081 19.6873 5.6841 19.5205 5.63536 19.3481C5.56976 19.0909 5.54544 18.7851 5.4848 18.6467C5.43136 18.5085 5.3416 18.3894 5.29792 18.2195C5.25664 18.0569 5.24992 17.7997 5.1232 17.608C5.06976 17.5302 5.00416 17.3264 4.9848 17.1225C4.96048 16.8166 4.99696 16.4744 4.96784 16.1929C4.9144 15.7245 4.87808 15.4065 4.92656 15.1613C4.97504 14.916 5.22768 14.2197 5.38304 13.6662C5.48496 13.3118 5.42416 13.0133 5.61104 12.7049C5.79792 12.3992 5.91216 12.1297 5.95328 11.9429C6.00128 11.7729 5.45824 12.6904 5.45824 12.6904H5.45888Z" fill="#F2E8B0"/>
<path fill-rule="evenodd" clip-rule="evenodd" d="M7.33953 12.4219C7.33953 12.4219 7.13569 12.4827 7.03857 12.5894C6.94145 12.6913 6.90017 12.7763 6.76913 12.9486C6.63809 13.1209 6.63073 13.2617 6.52385 13.4777C6.41713 13.6889 6.18161 14.0068 6.15249 14.1209C6.12337 14.235 6.07489 14.7689 6.01425 15.0214C5.96081 15.2739 6.07489 15.5846 6.07489 15.5846L6.21313 15.5553C6.21313 15.5553 6.21313 15.735 6.35153 15.8564C6.48977 15.9753 6.51409 15.4534 6.51409 15.4534L7.03105 13.7083L7.81009 13.1792L7.89505 12.752L7.33921 12.4219H7.33953Z" fill="#F5EEC0"/>
<path fill-rule="evenodd" clip-rule="evenodd" d="M7.71411 13.213C7.71411 13.213 7.34755 13.2372 7.16803 13.3684C7.09523 13.4217 7.06611 13.4653 6.98851 13.5309C6.84531 13.6498 6.69955 13.7591 6.62931 13.9149C6.55155 14.0701 6.46659 14.3057 6.40835 14.7498C6.38403 14.9367 6.38403 15.109 6.36707 15.2596C6.34275 15.4634 6.30643 15.626 6.32579 15.7396C6.35011 15.9725 6.59043 16.094 6.61379 16.3585L7.11139 16.1061L7.57987 14.2589L8.57507 13.6349L8.01187 13.0039L7.71347 13.2119L7.71411 13.213Z" fill="#E6DB9D"/>
<path fill-rule="evenodd" clip-rule="evenodd" d="M5.09391 25.6524C5.09599 25.6342 5.09807 25.6159 5.10015 25.5972C5.17279 24.9732 5.18511 24.5003 5.23839 24.2041C5.31599 23.7843 5.36943 23.6281 5.35727 23.471C5.34031 23.2187 5.32095 23.0342 5.34527 22.8399C5.38159 22.5827 5.63407 22.2769 5.62687 22.0657C5.62191 21.8982 5.53695 21.7891 5.46415 21.6871C5.39135 21.5852 5.33311 21.5003 5.33311 21.5003C5.33311 21.5003 5.83071 21.158 5.82591 19.7793C5.83607 19.7822 5.84585 19.7862 5.85503 19.7915L6.10015 20.4879L6.26767 20.6918L6.91087 21.8908L7.73855 22.6943L8.96175 23.5171L9.72879 24.3518L9.80639 26.5775L8.80399 27.8785L8.63983 28.1758C7.33562 27.521 6.13967 26.67 5.09375 25.6523L5.09391 25.6524Z" fill="#E5CB7A"/>
<path fill-rule="evenodd" clip-rule="evenodd" d="M8.15625 27.7801C8.15625 27.7801 8.17321 27.5034 8.40137 27.3238C8.43785 27.3844 8.46201 27.4428 8.45481 27.4863C8.49609 27.4137 8.78489 26.9476 9.43785 26.8262C10.0908 26.7073 10.2486 26.2316 10.2486 26.2316L11.6343 24.9719L13.2193 23.5132L15.1465 22.8359L16.0471 22.615C16.0471 22.615 16.0641 22.6806 16.0302 22.8262C16.1975 22.8142 16.5689 22.7292 16.9548 22.5932C17.1102 22.5326 17.2559 22.5082 17.3335 22.5884C17.4476 22.6951 17.4646 22.9476 17.4718 23.098C17.6587 23.0567 17.8747 22.8772 18.0478 22.8942C18.3246 22.9233 18.5697 23.2486 18.8513 23.2486C19.2227 23.2486 19.39 23.0204 19.6499 22.8407C19.8052 22.734 20.0284 22.6007 20.1546 22.5106C20.4556 22.2897 23.6401 21.3164 23.6401 21.3164L24.7566 21.3892L24.9363 22.5882L24.8403 25.7226C24.8284 25.734 24.8166 25.7458 24.8046 25.7572L19.7281 28.4086L12.6913 29.4873C11.115 29.2298 9.5939 28.7065 8.19273 27.9399L8.15673 27.7799L8.15625 27.7801Z" fill="#D8C173"/>
<path fill-rule="evenodd" clip-rule="evenodd" d="M5.51562 26.0501C5.61563 25.841 5.70554 25.6661 5.72138 25.6035C5.73386 25.7296 5.75674 26.0062 5.80282 26.3003C5.70608 26.2181 5.61035 26.1346 5.51562 26.0499V26.0501Z" fill="#F1D789"/>
<path fill-rule="evenodd" clip-rule="evenodd" d="M10.6574 29.0007L11.5675 28.7476L11.645 28.7719C11.645 28.7719 11.6863 28.7963 11.6863 28.8787C11.8004 28.8132 11.8975 28.8252 11.9679 28.7817C12.0043 28.8593 12.0406 29.1166 12.2009 29.1481C12.3683 29.1846 12.5479 29.0753 12.73 28.9371C12.9095 28.7939 13.114 28.6142 13.2687 28.5414C13.3255 28.6458 13.3758 28.7535 13.4193 28.8641C13.6231 28.7015 13.9775 28.0414 14.4823 28.0534C14.6282 27.7086 14.872 27.4141 15.1835 27.2063C15.6519 26.8884 15.9455 26.8641 16.3121 26.8932C16.4577 26.7041 16.6371 26.5436 16.8412 26.4199C16.9019 26.4443 17.0694 26.5462 17.2782 26.4491C17.4894 26.3521 17.7271 25.9758 18.0403 25.9273C18.209 25.9041 18.3805 25.9401 18.5257 26.0292C18.5257 26.0292 19.4377 25.1238 20.067 24.8228C20.0427 24.75 19.9942 24.4758 20.7319 23.8689C20.7732 23.9054 20.7441 24.0073 20.7732 24.0129C20.7852 24.0129 20.9652 23.9353 21.1931 23.7604C21.4747 23.5494 21.8119 23.3284 22.0158 23.2678C22.3998 23.1537 22.8071 23.3867 22.8071 23.3867C22.8418 23.3624 22.8804 23.3443 22.9212 23.3332C23.0182 23.3163 23.0886 23.3041 23.142 23.2852C23.1372 23.4115 23.2076 23.6275 23.142 23.8143C23.218 23.8571 23.2985 23.8913 23.382 23.9163C23.3409 24.006 23.251 24.2342 23.1006 24.3435C23.2267 24.4041 23.2436 24.4745 23.4233 24.5355C23.3505 24.6374 23.2313 24.8123 23.1782 24.9195C23.1247 25.0335 22.9329 25.5068 22.8479 25.6863C22.7582 25.866 22.6369 26.1961 22.5785 26.2623C22.5201 26.3286 22.309 26.6094 22.1465 26.7476C22.2905 26.6942 22.8796 26.5147 23.1295 26.4467C23.0551 26.5558 22.678 27.1153 22.3155 27.6534C20.5795 28.6938 18.6418 29.3524 16.6314 29.5851C14.6209 29.8179 12.584 29.6195 10.6562 29.0031L10.6574 29.0007Z" fill="#E0CD81"/>
<path fill-rule="evenodd" clip-rule="evenodd" d="M7.77247 13.1483C7.77247 13.1483 7.56143 13.1483 7.52015 13.1774C7.47887 13.2065 7.73135 13.2673 7.80895 13.2965C7.88655 13.3256 8.05407 13.459 8.09775 13.5659C8.13903 13.6678 9.61471 14.2624 9.61471 14.2624L10.6584 14.2089L11.0182 13.7118L10.3338 13.1123L10.8138 11.6973L10.1779 11.7992L8.64879 12.7112L7.88175 13.0049L7.77247 13.1483Z" fill="#DFC57C"/>
<path fill-rule="evenodd" clip-rule="evenodd" d="M10.0657 13.616C10.0808 13.6404 10.102 13.6605 10.1273 13.6741C10.1526 13.6877 10.181 13.6944 10.2097 13.6936C10.4257 13.6936 10.6246 13.7471 10.7071 13.8562C10.8455 14.0311 11.2291 14.5893 11.2291 14.5893L12.1465 14.9194L12.2057 13.8391L11.2033 13.1426L10.0625 13.5624V13.6159H10.0651L10.0657 13.616Z" fill="#E5CC7C"/>
<path fill-rule="evenodd" clip-rule="evenodd" d="M9.88826 14.0159C9.88826 14.0159 10.0556 14.0281 10.2668 13.9503C10.478 13.8725 10.8251 13.7052 10.9756 13.7708C11.1867 13.8605 11.143 14.1421 11.3713 14.3948C11.5095 14.5501 11.762 14.5453 11.9052 14.7129C12.0484 14.8804 12.5411 14.8026 12.5411 14.8026L12.7279 15.8106L11.978 16.7719L11.7327 17.966H10.7187L9.79226 17.5985L9.33594 16.4945L9.5641 15.378L9.88826 14.0159Z" fill="#D2C281"/>
<path fill-rule="evenodd" clip-rule="evenodd" d="M11.8469 14.0653C11.872 14.0731 11.8982 14.0772 11.9245 14.0775C11.8954 14.1018 11.8346 14.1551 11.8589 14.2935C11.8832 14.4319 11.9608 14.6066 11.8954 14.7133C11.9476 14.7705 11.9866 14.8384 12.0094 14.9124C12.0507 15.0314 12.0629 15.1405 12.3322 15.1577C12.2933 15.1816 12.2575 15.2101 12.2254 15.2426C12.2254 15.2426 12.4123 15.4052 12.507 15.5556C12.604 15.5514 12.8613 15.4714 12.8613 15.4714L12.9147 15.5079L13.0288 15.4599C13.0288 15.4599 12.9221 15.4186 12.9997 15.1589C13.0725 14.9308 13.1381 14.9429 13.1437 14.926C13.1493 14.909 13.1971 14.6687 13.1971 14.5716C13.2334 14.4455 13.2626 14.062 13.2626 14.062L13.185 13.2149L12.7482 12.9503L12.393 12.6074L12.0579 13.2385L11.8373 13.4585L11.8203 14.0045L11.8469 14.0653Z" fill="#E2C270"/>
<path fill-rule="evenodd" clip-rule="evenodd" d="M12.8984 13.3553C12.8984 13.3553 12.976 13.5761 13.0053 13.746C13.0156 13.713 13.0213 13.6787 13.0223 13.6441C13.0223 13.6441 13.0829 13.9791 13.0949 14.1175C13.1192 14.1126 13.1429 14.1054 13.1484 14.1295C13.1538 14.1537 13.2092 14.4233 13.1964 14.5737C13.2974 14.407 13.4373 14.2671 13.604 14.166C13.7012 14.1052 13.8152 14.0398 13.9343 14.0348C14.1212 14.03 14.257 14.1539 14.4804 14.1539C15.0191 14.1539 15.5071 13.7582 15.8663 13.6369C16.1308 13.547 16.3589 13.4815 16.5191 13.3358C16.5968 13.2703 16.7352 13.1247 16.8613 12.9086C17.0288 12.6206 17.2036 12.3699 17.3784 12.3383C17.2993 12.3529 17.2188 12.3586 17.1384 12.3553C17.1384 12.3553 17.1919 12.3019 17.2824 12.2291C17.373 12.1563 17.4815 12.0665 17.6367 12.0665C17.9135 12.0665 18.0517 12.1076 18.2071 12.1076C18.3624 12.1028 18.4522 12.0665 18.4522 12.0665C18.4522 12.0665 18.6149 12.1806 18.9813 12.1806C19.3479 12.1854 19.593 12.2169 19.7848 12.234C19.9767 12.2511 20.6197 12.1806 20.8042 12.186C20.9245 12.1907 21.0426 12.2196 21.1514 12.271L20.5567 10.543L18.4204 8.67578L17.1485 9.57626L15.192 11.5326L13.2989 12.234L12.9032 12.6782V13.3553H12.8984Z" fill="#CCB360"/>
<path fill-rule="evenodd" clip-rule="evenodd" d="M17.1512 12.3658C17.1512 12.3658 17.2046 12.3125 17.2942 12.2397C17.3838 12.1669 17.4934 12.077 17.6486 12.077C17.9253 12.077 18.0637 12.1183 18.219 12.1183C18.3744 12.1135 18.4641 12.077 18.4641 12.077C18.4641 12.077 18.627 12.1909 18.9933 12.1909C19.3598 12.1957 19.6049 12.2272 19.7968 12.2442C19.9886 12.2612 20.6317 12.1909 20.8161 12.1962C20.9364 12.2007 21.0545 12.2296 21.1632 12.2812L20.8937 11.502L20.5808 10.9074L19.6875 9.92917C19.6875 9.92917 18.6155 9.29813 18.6073 9.29333C18.6025 9.28853 18.236 9.19141 18.236 9.19141L17.2651 9.77877L16.3841 12.058L16.3672 12.538L16.9374 12.8074C17.0806 12.5674 17.2385 12.3754 17.3865 12.3511C17.2529 12.3656 17.151 12.3656 17.151 12.3656L17.1512 12.3658Z" fill="#D5B457"/>
<path fill-rule="evenodd" clip-rule="evenodd" d="M17.1329 12.5288C17.0479 12.5336 16.9777 12.5167 16.9582 12.456C16.8854 12.2522 16.8271 12.2231 16.7662 12.2231C16.7052 12.2231 16.623 12.3541 16.5742 12.3661C16.5254 12.3781 16.4675 12.2157 16.4675 12.2157L16.414 12.1914C16.414 12.1914 16.1009 12.3952 15.8801 12.6356C15.6593 12.8759 15.2975 13.2837 15.135 13.3564C14.9724 13.429 14.414 13.4535 14.223 13.4948C14.0319 13.536 13.8201 13.6744 13.791 13.706C13.7619 13.7375 13.8761 13.7714 13.8931 13.8029C13.91 13.832 13.706 13.8199 13.6891 13.8509C13.6771 13.8752 13.7371 14.0135 13.7668 14.0839C13.8189 14.058 13.876 14.0439 13.9342 14.0426C14.1211 14.0378 14.2571 14.1616 14.4803 14.1616C15.0191 14.1616 15.507 13.766 15.8662 13.6445C16.1308 13.5548 16.359 13.4892 16.5191 13.3436C16.5967 13.2781 16.7351 13.1324 16.8614 12.9164C16.9535 12.7684 17.0435 12.63 17.1334 12.528L17.1329 12.5288Z" fill="#D2B257"/>
<path fill-rule="evenodd" clip-rule="evenodd" d="M9.40791 24.5413C9.40791 24.5413 9.35991 24.3616 8.91511 23.8981C8.78887 23.7671 8.71127 23.6581 8.62631 23.5802C8.41511 23.381 8.29127 23.3277 8.14087 23.2136C7.81079 22.9685 7.45159 22.9685 7.17495 22.6676C6.89831 22.3666 6.57591 21.7916 6.35191 21.2039C6.13111 20.6165 6.07031 20.4296 6.07031 20.4127C6.07031 20.3957 6.13111 20.2816 6.20871 20.2986C6.28631 20.3155 6.28631 20.466 6.30583 20.5024C6.34449 20.562 6.38835 20.618 6.43687 20.6698C6.55095 20.801 6.71351 20.9578 6.79607 21.1917C6.77911 20.9927 6.71111 20.7719 6.71111 20.7719C6.71111 20.7719 7.13831 21.0413 7.50231 21.3227C7.86887 21.6043 8.01927 21.7015 8.12631 21.881C8.23335 22.0605 8.48551 22.534 8.60631 22.6724C8.72711 22.8108 10.3823 23.3325 10.3823 23.3325L11.1697 23.9196L11.5606 24.7764L11.2546 25.2564L10.6673 25.3826L9.71335 24.9554L9.40791 24.5411V24.5413Z" fill="#D2B159"/>
<path fill-rule="evenodd" clip-rule="evenodd" d="M7.28906 21.589C7.28906 21.589 7.4881 21.9069 7.97354 22.2078C8.4105 22.4725 9.10218 22.7128 9.71882 22.856C10.0731 22.941 10.4275 23.0064 10.7454 23.0114C11.6022 23.0234 12.1919 22.7784 12.9227 22.6982C13.3183 22.657 13.8038 22.6254 14.3086 22.5062C14.9566 22.3509 15.3401 22.176 15.862 21.9302C16.2406 21.7555 16.5878 21.6245 16.8692 21.457C17.2649 21.224 17.5537 20.9643 17.8887 20.8867C17.8475 21.0008 17.8038 21.2046 17.4737 21.4158C17.6484 21.4109 17.8887 21.3989 17.8887 21.3989C17.8887 21.3989 17.6558 21.5371 17.2455 21.8478C16.9931 22.0398 16.6582 22.3648 16.3159 22.5808C16.095 22.7192 15.8547 22.8208 15.6969 22.9037C15.3129 23.1149 15.158 23.2216 14.9057 23.4797C14.9955 23.4749 15.0028 23.4797 15.0028 23.4797C15.0028 23.4797 14.6847 23.521 14.4567 23.6422C14.4087 23.6422 14.3255 23.6253 14.1799 23.6666C14.0659 23.7029 13.9153 23.7856 13.7601 23.8291C13.5391 23.8947 13.4665 23.8656 13.4665 23.8656L13.5028 23.9384C13.5028 23.9384 13.2148 23.9334 13.1188 23.9432C13.1358 23.948 13.131 23.9554 13.131 23.9554C13.1141 23.9582 13.0979 23.9639 13.083 23.9723C13.0368 24.0022 12.986 24.0244 12.9326 24.0378C12.9035 24.0426 12.8791 24.0426 12.8427 24.0499C12.8548 24.079 12.9495 24.2419 12.9932 24.3379C12.9569 24.3622 12.4107 24.7749 12.4107 24.7749C12.4276 24.8015 12.4415 24.83 12.4519 24.8598C12.4689 24.9131 12.4763 24.9909 12.4932 25.0272C12.5343 25.1 12.5587 25.1122 12.5587 25.1122C12.5587 25.1122 12.4932 25.1243 12.379 25.1534C12.282 25.1778 12.163 25.2189 11.995 25.2432C11.9434 25.2499 11.8916 25.254 11.8396 25.2554C11.8639 25.3088 11.9707 25.5126 11.774 25.748C11.5774 25.9834 11.5167 26.0176 11.4561 26.168C11.4256 26.1449 11.3931 26.1246 11.359 26.1072C11.2935 26.0781 11.2036 26.0346 11.1721 25.9762C11.1537 26.054 11.1294 26.1302 11.0993 26.2043C11.0387 26.3669 10.9489 26.5272 10.9319 26.6485C10.8663 26.5757 10.7451 26.4325 10.5775 26.4616C10.41 26.4907 10.2766 26.7189 10.2475 26.7845C10.2475 26.7432 10.2183 26.7117 10.2111 26.7602C10.2062 26.8136 10.114 27.3717 9.59946 27.8232C9.59466 27.7091 9.59466 27.4566 9.5825 27.3742C9.5345 27.4222 9.47578 27.4931 9.12618 27.6437C8.78394 27.7941 8.83818 27.9446 8.83818 27.9446C8.83818 27.9446 8.80906 27.7046 8.99354 27.4518C9.18042 27.1995 9.2945 27.0805 9.2945 27.0611C9.29149 27.0414 9.28307 27.0229 9.27018 27.0077C9.24586 26.9834 9.19738 26.9542 9.19738 26.9349C9.2265 26.9229 9.5153 26.7845 9.49834 26.4979C9.48138 26.2408 9.37226 26.1072 9.2945 26.0126C9.2825 26.0005 9.40874 25.9107 9.39162 25.8816C9.37946 25.8646 9.22426 25.7504 9.20474 25.6896C9.20933 25.6533 9.21748 25.6176 9.22906 25.5829C9.24602 25.5294 9.25818 25.493 9.25338 25.4566C9.24122 25.396 9.17562 25.2285 9.15626 25.2115C9.17322 25.2163 9.2945 25.2115 9.2945 25.2115C9.2945 25.2115 9.19754 25.0562 9.18042 24.9834C9.1633 24.9106 9.12698 24.7187 9.10762 24.6824C9.1489 24.6872 9.25082 24.6944 9.25082 24.6824C9.25578 24.6459 9.16106 24.5853 9.20282 24.5384C9.23194 24.5432 9.28778 24.5675 9.34106 24.6355C9.31194 24.5578 9.26346 24.4074 9.16138 24.3467C9.20938 24.3298 9.37258 24.2859 9.51578 24.3709C9.65898 24.4558 9.70778 24.5747 9.70778 24.5747C9.70778 24.5747 9.79274 24.6403 9.92394 24.7374C10.0743 24.8563 10.266 25.0254 10.5719 25.1451C10.6375 25.1816 10.8049 25.1816 10.9263 25.1573C10.9792 25.1447 11.0299 25.1242 11.0767 25.0966C11.0937 25.0867 11.1116 25.0785 11.1302 25.0723C11.1041 25.0199 11.0741 24.9696 11.0404 24.9218C11.0817 24.9218 11.1302 24.9267 11.1302 24.9267C11.1302 24.9267 11.1593 24.8611 11.0283 24.7347C11.0574 24.7056 11.0939 24.6867 11.0939 24.6376C11.0526 24.6328 10.9798 24.5722 10.9628 24.5478C10.987 24.5309 11.0235 24.475 11.0647 24.4581C11.0283 24.429 10.9385 24.3075 10.8972 24.2955C10.9367 24.2809 10.9748 24.263 11.0113 24.2421C11.0113 24.2421 10.8075 24.1886 10.7419 24.145C10.6763 24.097 10.5793 24.0139 10.5211 23.9896C10.4603 23.9653 10.3535 23.9533 10.3099 23.9046C10.351 23.9168 10.4166 23.9046 10.4652 23.9046C10.5015 23.9046 10.5187 23.9094 10.5307 23.9094C10.5259 23.8925 10.5259 23.856 10.6206 23.844C10.6661 23.8371 10.7104 23.8232 10.7516 23.8027C10.7516 23.8027 10.6617 23.7979 10.5596 23.7008C10.4575 23.6037 10.3727 23.5261 10.3145 23.5139C10.2539 23.5018 10.1398 23.5552 10.0694 23.5502C9.97226 23.5382 9.93098 23.4896 9.93098 23.4896C9.93098 23.4896 9.60826 23.5187 8.89226 23.0819C8.27322 22.7032 8.00378 22.3683 8.00378 22.3683C7.94585 22.3473 7.88985 22.3213 7.83642 22.2906C7.60346 22.1693 7.28058 21.9168 7.29034 21.5866L7.28906 21.589Z" fill="#C2A44D"/>
<path fill-rule="evenodd" clip-rule="evenodd" d="M16.2154 7.02031C16.2715 7.03855 16.3214 7.0722 16.3594 7.11743C16.4735 7.24847 16.5463 7.49599 16.2866 7.76063C16.3885 7.79695 16.4306 7.80863 16.5195 7.79695C16.4298 7.90383 16.2259 8.13199 16.2138 8.33103C16.2016 8.49359 16.3035 8.54223 16.3035 8.54223C16.3035 8.54223 16.1482 8.72175 16.141 9.02223C16.2143 8.93949 16.2946 8.86316 16.381 8.79407C16.5607 8.65087 16.8082 8.48831 16.9757 8.38639C16.9734 8.42911 16.9792 8.47187 16.9927 8.51247C16.9927 8.51247 17.3056 8.25519 17.5687 8.36943C17.6875 8.42287 17.6341 8.59023 17.6341 8.59023C17.6341 8.59023 17.7968 8.52959 17.9109 8.64367C18.025 8.75775 18.1863 9.05199 18.269 9.16607C18.3053 9.21951 18.4 9.32143 18.497 9.47919C18.6294 9.70006 18.74 9.93333 18.8272 10.1757C18.832 10.0494 18.8635 9.85295 19.2229 9.97663C19.5821 10.1029 19.9898 10.3675 20.332 10.8886C20.6743 11.4098 20.7591 11.9981 20.9314 12.2221C21.1061 12.4381 21.2858 12.7973 21.2979 12.9478C21.3101 13.0984 21.2445 13.5837 21.6037 14.8968C21.7056 14.4891 21.861 13.5837 21.861 13.5837L21.9459 12.7851L22.0431 10.3142L19.4629 8.17071L17.4459 6.70703L16.1328 6.83327L16.2152 7.02015L16.2154 7.02031Z" fill="#CAA13E"/>
<path fill-rule="evenodd" clip-rule="evenodd" d="M21.0091 10.6986C21.0091 10.6986 20.9726 10.4586 20.3659 10.0506C19.759 9.64772 19.2858 9.64772 18.849 9.30548C18.5139 9.03604 18.1645 8.41699 17.937 8.21315C17.716 8.01171 17.6797 7.42915 17.6797 7.42915L18.4248 6.80515L19.533 5.2034L20.4698 4.17188L20.9187 4.79588L21.5427 5.52884L21.8898 6.99971L22.016 9.15268L21.008 10.6988L21.0091 10.6986Z" fill="#B59544"/>
<path fill-rule="evenodd" clip-rule="evenodd" d="M21.7595 13.279C21.7779 12.9525 21.7375 12.6253 21.6404 12.313C21.4804 11.8154 21.1308 10.9319 20.9684 10.601C20.9028 10.2345 20.9515 10.2054 21.0219 10.1641C21.0923 10.1228 21.3569 9.97208 21.5019 9.44328C21.6468 8.91448 22.0966 8.8972 22.0966 8.8972L22.3732 8.69336L22.7932 9.74424L23.1596 10.6934L23.2737 11.4191L23.3587 12.038L23.1596 13.3463L22.1768 14.2346L21.7593 13.279H21.7595Z" fill="#C89D3A"/>
<path fill-rule="evenodd" clip-rule="evenodd" d="M8.04688 27.8606V27.8337C8.0673 27.821 8.08533 27.8047 8.10015 27.7857C8.11711 27.7614 8.12943 27.7323 8.14143 27.7251C8.16575 27.7129 8.27983 27.6771 8.34047 27.6886C8.40111 27.7001 8.56143 27.7662 8.64639 27.7614C8.82111 27.7566 9.02495 27.623 9.34784 27.6838C9.83328 27.7736 9.94736 28.1036 10.229 28.2905C10.421 28.4217 10.6197 28.3633 10.6488 28.3633H10.7142C10.7264 28.3633 10.8162 28.2614 10.8648 28.2664C10.9619 28.2712 10.9715 28.3513 11.0322 28.3561C11.1754 28.3731 11.4522 28.2833 11.5906 28.3198C11.6316 28.3327 11.6689 28.3552 11.6993 28.3856C11.7298 28.416 11.7524 28.4533 11.7653 28.4944C11.7944 28.5841 11.7701 28.6982 11.6997 28.7638C11.5493 28.902 11.4061 29.0332 11.377 29.1478C11.414 29.176 11.4496 29.2062 11.4835 29.238C10.2826 28.9321 9.12712 28.4694 8.04688 27.862V27.8606Z" fill="#CEB052"/>
<path fill-rule="evenodd" clip-rule="evenodd" d="M20.9688 23.0121C20.9688 23.0121 21.3473 22.5073 21.4785 22.2572C21.6095 21.9994 21.0635 18.7354 21.0635 18.7354L22.1606 15.1409L22.1313 13.971C22.1313 13.971 22.1847 12.8908 22.311 12.4223C22.4615 12.6918 22.93 13.017 23.0319 13.1894C23.0799 12.8591 23.243 12.1626 23.2188 11.4199C23.3086 11.5582 23.5246 12.949 23.5246 12.949L23.7406 13.8858L24.0222 14.881L24.3353 15.9321L24.5222 16.6578L24.6289 16.8326L24.7188 17.1383L24.8038 17.4686L25.0489 18.2428L25.1929 18.8786L25.307 20.0316C25.3318 20.1199 25.3497 20.21 25.3604 20.301C25.3652 20.4273 25.3435 20.5001 25.3435 20.522C25.3435 20.5439 25.3847 20.7986 25.3678 20.9905C25.3435 21.1825 25.3435 21.3327 25.1929 21.4705C25.0423 21.6082 24.9478 22.4316 24.9478 22.4316L24.6783 22.2521C24.6783 22.2521 24.7318 22.0068 24.6055 21.7836C24.4793 21.5604 24.2342 21.5142 24.0958 21.5506C23.9575 21.5798 23.6809 21.6233 23.591 21.701C23.506 21.7786 23.2974 22.019 23.1055 22.1282C22.8655 22.2722 22.4745 22.2836 22.2659 22.3321C22.0547 22.3801 21.8217 22.5241 21.5764 22.6913C21.3841 22.8158 21.1811 22.9229 20.9697 23.0113L20.9688 23.0121Z" fill="#CCA847"/>
<path fill-rule="evenodd" clip-rule="evenodd" d="M20.9688 28.314C20.9688 28.314 20.9847 28.3244 21.0156 28.3414C22.74 27.5334 24.2851 26.3882 25.5596 24.9734C25.5457 24.4822 25.5276 23.9786 25.5078 23.7921C25.4667 23.3964 25.4958 22.9935 25.4836 22.7606C25.4715 22.5276 25.3404 21.5785 25.2798 21.3334C25.2142 21.0882 25.0878 20.9668 25.0686 20.9668C25.0516 20.9718 24.9495 21.4281 24.9495 21.5428C24.9495 21.6575 24.9252 21.9337 24.9252 22.0041C24.9083 21.9991 24.9011 21.9561 24.9011 21.9385C24.8767 21.9991 24.8476 22.106 24.8355 22.1182C24.8233 22.1303 24.8524 22.0162 24.8355 21.9919C24.8185 21.9676 24.7875 21.9798 24.7942 21.9191C24.7971 21.8832 24.8027 21.8475 24.8111 21.8124C24.8111 21.8124 24.7383 21.9191 24.6851 22.191C24.6316 22.4604 24.6316 22.4678 24.6123 22.4919C24.5953 22.5212 24.4982 22.6182 24.4932 22.6546C24.4884 22.7201 24.5831 22.7857 24.5903 22.822C24.5951 22.8828 24.5054 23.1642 24.4763 23.302C24.4471 23.4398 24.4593 23.7097 24.4283 23.8481C24.4039 23.9743 24.3803 24.0471 24.2972 24.1004C24.3579 24.1126 24.4161 24.1295 24.4161 24.1295C24.4161 24.1295 24.5011 24.4887 24.2851 24.7946C24.2075 24.9014 24.1881 24.95 24.1055 25.0471C23.9428 25.2266 23.8166 25.4311 23.8044 25.5641C23.796 25.5248 23.7904 25.4851 23.7875 25.445C23.7875 25.445 23.5351 25.7388 23.4283 25.9063C23.29 26.1223 23.0982 26.1102 23.0443 26.1636C22.9903 26.217 22.9787 26.314 22.9963 26.3918C22.9483 26.4038 22.858 26.4209 22.7972 26.6078C22.7681 26.7047 22.6953 26.7998 22.5812 26.865C22.4671 26.9303 22.3287 26.95 22.2583 26.967C22.319 26.9839 22.3433 26.9839 22.3724 27.0033C22.3361 27.0639 22.1686 27.1586 21.9817 27.2801C21.7948 27.3942 21.7049 27.5615 21.6588 27.6708C21.6108 27.7727 21.5399 27.8383 21.4259 27.8505C21.4739 27.8796 21.5449 27.9474 21.5812 27.9694C21.5278 27.9815 21.4372 27.9815 21.2755 28.1199C21.1055 28.2607 21.0473 28.302 20.9695 28.3142L20.9688 28.314Z" fill="#C39D3C"/>
<path fill-rule="evenodd" clip-rule="evenodd" d="M17.5945 29.4398C17.6875 29.3746 17.7882 29.3213 17.8942 29.2809C18.2728 29.1305 18.6733 29.1014 18.831 29.0529C18.9816 29.0049 19.1005 28.9387 19.2873 28.9023C19.2824 28.9449 19.2782 28.9849 19.2737 29.0227C18.7228 29.1959 18.1617 29.3352 17.5938 29.4398H17.5945Z" fill="#D2BA6B"/>
<path fill-rule="evenodd" clip-rule="evenodd" d="M24.5731 19.4819C24.5731 19.4819 24.4955 19.9018 24.3571 20.1664C24.2187 20.431 24.0691 20.7974 24.0691 20.7974C24.07 20.7149 24.0798 20.6326 24.0983 20.5522C23.9235 20.6541 23.4987 20.8994 23.3783 21.0085C23.2642 21.1104 23.0723 21.2901 23.0239 21.375C23.1379 21.0402 23.2568 20.7392 23.2763 20.6008C23.1016 20.727 22.2859 21.3994 21.8613 21.8435L20.5384 22.9139C20.3858 22.9963 20.2286 23.0699 20.0675 23.1344C19.8395 23.2314 19.5701 23.3139 19.3711 23.3917C19.4245 23.2485 19.5093 23.1221 19.6283 23.0008C19.7546 22.8819 20.1331 22.4717 20.1914 22.2808C20.2448 22.0818 20.257 21.9629 20.1866 21.7954C20.121 21.8123 19.9706 21.8197 19.8687 21.8488C19.7667 21.8779 19.6575 21.987 19.6575 21.987C19.6575 21.987 19.7351 21.5429 19.9026 21.123C19.7763 21.1278 19.5603 21.1642 19.5603 21.1642C19.5603 21.1642 19.8613 20.6594 20.3763 20.3075C20.2186 20.3411 20.0643 20.389 19.9152 20.4506C19.6143 20.5768 19.2842 20.7637 19.0391 20.8656C19.1773 20.6736 20.1482 19.288 20.7259 17.9966C21.3019 16.7078 21.5171 16.3778 21.6434 15.6861C21.7088 15.3438 21.6914 14.8381 21.7088 14.3851C21.7258 13.936 21.7816 13.5331 21.7453 13.2637C21.8957 13.4506 22.4589 13.9773 22.4783 15.1546C22.4952 16.3317 21.9395 17.9216 21.3496 18.7782C21.4936 18.8195 21.8667 18.8682 22.2501 18.2022C22.6335 17.5363 22.6288 17.3504 22.7672 17.0736C22.7842 17.212 22.7792 17.2605 22.7792 17.2605C22.7792 17.2605 23.3376 16.5834 23.6021 15.7314C23.6555 16.0979 23.8133 16.4208 23.5656 17.0931C23.3448 17.6998 23.056 17.848 23.056 17.848C23.056 17.848 23.1992 17.8237 23.4103 17.6974C23.4467 17.7872 23.4395 17.8894 23.5002 17.9256C23.5608 17.9618 23.6434 18.0227 23.6555 18.081C23.721 17.9838 23.8229 17.86 23.8546 17.7678C23.8303 17.9598 23.8133 18.7994 23.9026 19.2266C24.0896 19.2096 24.2813 19.1974 24.4123 18.86C24.3226 19.1902 24.3226 19.3891 24.3832 19.6707C24.4827 19.6029 24.5725 19.4814 24.5725 19.4814L24.5731 19.4819Z" fill="#C0993A"/>
<path fill-rule="evenodd" clip-rule="evenodd" d="M18.2662 6.10334C18.2662 6.10334 18.0793 6.18094 17.7614 6.18094C17.4847 6.18094 17.5623 6.07422 17.1303 6.07422C16.4654 6.07422 14.1425 6.45822 13.7346 6.45278C13.47 6.44798 14.6278 6.56686 14.6278 6.56686L17.5866 6.60814L18.1812 6.56014L18.4022 6.11054L18.2662 6.10334Z" fill="#A88F33"/>
<path fill-rule="evenodd" clip-rule="evenodd" d="M10.5989 11.8879C10.5989 11.8879 10.2202 12.1767 10.06 12.3977C9.89985 12.6186 9.81489 12.7641 9.63281 12.9438C9.67555 12.9454 9.71826 12.9396 9.75905 12.9268C9.75905 12.9268 9.75905 12.9748 9.72993 12.9874C9.7551 12.9846 9.78057 12.9875 9.80449 12.9958C9.82841 13.0041 9.85017 13.0176 9.86817 13.0354C9.81473 13.0646 9.66913 13.2103 9.78321 13.3826C9.86817 13.5137 10.0479 13.5257 10.0479 13.5257C10.0479 13.5257 10.0066 13.6447 10.1789 13.6326C10.5503 13.6156 10.9653 13.4529 11.157 13.4942C11.349 13.5422 11.4581 13.5598 11.5939 13.7953C11.7379 14.0282 11.8634 14.0647 11.8634 14.0647C11.8634 14.0647 11.9483 13.8486 11.929 13.5258C11.9986 13.3519 12.0372 13.1671 12.0431 12.9798L11.9168 12.0502L11.3659 11.3535L10.6523 11.7492L10.5989 11.8874V11.8879Z" fill="#E3C571"/>
<path fill-rule="evenodd" clip-rule="evenodd" d="M11.2734 11.7486C11.2734 11.7486 11.3269 11.8749 11.5502 11.8869C11.5259 11.9403 11.5259 11.9477 11.5333 11.9888C11.5381 12.0301 11.5453 12.0907 11.5453 12.0907C11.5699 12.0788 11.5921 12.0626 11.6109 12.0427C11.623 12.0962 11.5987 12.181 11.6109 12.2418C11.6184 12.2787 11.6306 12.3146 11.6472 12.3485C11.6507 12.3402 11.6548 12.3321 11.6594 12.3243C11.6642 12.3122 11.7074 12.4554 11.8269 12.5643C11.8268 12.5476 11.8309 12.5311 11.8389 12.5163C11.8407 12.5468 11.8508 12.5761 11.868 12.6013C11.8591 12.597 11.8509 12.5913 11.8438 12.5843C11.8438 12.5843 11.8558 12.9683 11.9214 13.1669C11.9324 13.1541 11.9421 13.1402 11.9506 13.1256C11.9506 13.1136 11.9458 13.2325 11.9336 13.3176C11.9166 13.4026 11.9288 13.5214 11.9288 13.5214C11.9726 13.487 12.0206 13.4584 12.0718 13.4365C12.1446 13.4072 12.2638 13.3174 12.3365 13.1184C12.3786 13.0057 12.4111 12.8896 12.4336 12.7714C12.4571 12.8165 12.4733 12.8651 12.4816 12.9154C12.4866 12.976 12.6006 12.9445 12.6006 12.9445L12.625 12.6798L12.769 12.0803L12.9 11.709L13.531 10.7261L14.6712 9.84801L15.6664 10.0762L16.5061 8.93537L15.0595 8.06641L13.6906 8.20961L12.4482 9.93041L11.4531 11.4912L11.2734 11.7485V11.7486Z" fill="#D8B65B"/>
<path fill-rule="evenodd" clip-rule="evenodd" d="M18.4419 9.25998C18.4419 9.25998 18.357 9.27694 18.1119 9.40398C17.8667 9.53102 17.6968 9.57134 17.6021 9.75822C17.5074 9.9451 17.5002 10.0933 17.5002 10.0933C17.5002 10.0933 17.6677 10.0205 17.7648 9.99614C17.8667 9.97198 17.9808 9.97918 17.9687 10.0205C17.957 10.0488 17.9408 10.075 17.9207 10.0981C17.9207 10.0981 18.1127 10.0933 18.1075 10.188C18.1024 10.2827 18.0712 10.387 18.0349 10.4331C17.9984 10.4811 17.848 10.5521 17.8311 10.608C17.7898 10.7221 17.848 10.7269 17.8261 10.819C17.8091 10.9089 17.7291 11.0837 17.4669 11.3894C17.1975 11.6953 17.0829 11.9113 17.0829 11.9113C17.0829 11.9113 16.9519 11.6662 16.8839 11.455C16.8359 11.4792 16.5781 11.6224 16.5781 11.6224L15.981 9.54238L15.993 9.40398C15.993 9.40398 16.0464 9.33854 16.0586 9.2171C15.9688 9.18798 15.9567 9.16366 15.8376 9.04974C15.7186 8.93582 15.6216 8.79726 15.4227 8.70254C15.3936 8.6491 15.3571 8.57646 15.2115 8.54718C15.0659 8.5179 14.9786 8.4939 14.9786 8.4939C14.9786 8.4939 15.0562 8.46462 15.0927 8.40398C15.0027 8.41614 14.9301 8.44526 14.7335 8.44046C14.5344 8.4355 14.5125 8.4283 14.4034 8.44526C14.2943 8.46222 14.1634 8.51086 14.1146 8.34334C14.0611 8.30206 13.9471 8.33854 13.8499 8.48158C13.7528 8.62462 13.7189 8.73886 13.532 8.7947C13.5189 8.87707 13.49 8.95616 13.4471 9.02766C13.3936 9.11758 13.3087 9.20734 13.1946 9.34078C13.0149 9.55198 13.044 9.89902 12.7576 10.1637C12.4688 10.4281 12.8056 9.43054 12.8056 9.43054L13.2667 8.32654L14.5799 7.04254L16.6187 6.9043L16.8178 7.9603L17.813 8.30254L18.4416 9.26126L18.4419 9.25998Z" fill="#D3AE4D"/>
<path fill-rule="evenodd" clip-rule="evenodd" d="M18.7641 9.49105L17.9073 8.25569L17.3078 7.79441C17.3078 7.79441 16.8806 7.00817 16.8515 6.98385C16.8272 6.96689 16.4243 6.92321 16.167 6.90625L16.215 7.02513C16.2712 7.04337 16.3211 7.07702 16.359 7.12225C16.4731 7.25329 16.5459 7.50081 16.2862 7.76545C16.3881 7.80177 16.4302 7.81345 16.5192 7.80177C16.4294 7.90865 16.2256 8.13681 16.2134 8.33585C16.2013 8.49841 16.3032 8.54689 16.3032 8.54689C16.3032 8.54689 16.1478 8.72657 16.1406 9.02689C16.214 8.94415 16.2943 8.86782 16.3806 8.79873C16.5603 8.65473 16.8078 8.49281 16.9753 8.39089C16.9731 8.43366 16.9788 8.47648 16.9923 8.51713C16.9923 8.51713 17.3053 8.25985 17.5683 8.37393C17.6872 8.42737 17.6337 8.59489 17.6337 8.59489C17.6337 8.59489 17.7965 8.53425 17.9105 8.64833C18.0246 8.76241 18.1872 9.05601 18.2697 9.17025C18.3061 9.22369 18.4008 9.32561 18.4977 9.48321C18.6302 9.70412 18.7408 9.93744 18.828 10.1799C18.8328 10.0827 18.8523 9.94689 19.02 9.94689L18.7651 9.49057L18.7641 9.49105Z" fill="#CAA13E"/>
<path fill-rule="evenodd" clip-rule="evenodd" d="M5.92539 13.0024C5.92539 13.0024 5.86475 12.8519 5.92539 12.5583C5.98603 12.2647 6.08075 12.1263 6.11227 11.6943C6.14379 11.2623 6.42539 10.7234 6.42539 10.7234L7.20443 10.3691L7.75547 10.5195L7.91803 11.2575L7.22139 11.6415C7.22139 11.6415 7.18507 11.804 6.98843 11.9351C6.79179 12.0661 6.51995 12.168 6.45451 12.3016C6.41539 12.3834 6.38684 12.4699 6.36955 12.5589C6.36955 12.5589 6.17051 12.5176 6.05163 12.6487C5.92539 12.7823 5.93019 12.9011 5.92539 13.0031V13.0024Z" fill="#F4EFC8"/>
<path fill-rule="evenodd" clip-rule="evenodd" d="M7.49271 12.8047C7.49271 12.8047 7.42711 12.846 7.37863 12.9487C7.33063 12.8711 7.21591 12.4099 7.21111 11.9948C7.20631 11.5798 7.1815 11.4769 7.2775 11.3339C7.3735 11.1908 7.74998 11.0401 7.69655 10.7825C7.64311 10.5374 7.41974 10.4355 7.1455 10.5059C6.9535 10.5539 6.81063 10.9622 6.61159 11.166C6.46102 11.3214 6.2815 11.2971 6.23302 11.382C6.16742 11.4961 6.22807 11.6102 6.20871 11.683C6.20375 11.7073 6.1431 11.8383 6.03382 11.9961C5.81302 12.314 5.43927 12.7631 5.39062 13.166C5.40759 12.9379 5.39559 12.9331 5.45623 12.6806L5.41975 12.6199L5.65975 11.8335L5.8151 11.1855L6.1623 10.1004L6.77382 8.99129L7.36855 8.32617L7.98742 8.36745L8.06023 9.29705L8.41463 11.0423L9.15975 11.9598L7.96551 12.7635L7.49223 12.8047H7.49271Z" fill="#EBCC73"/>
<path fill-rule="evenodd" clip-rule="evenodd" d="M7.86825 13.1343C7.86825 13.1343 7.76633 13.1586 7.72985 13.1393C7.69337 13.1199 7.65721 13.098 7.66921 13.0737C7.68121 13.0494 7.74681 13.0082 7.74681 12.9887C7.74816 12.9711 7.74258 12.9536 7.73126 12.94C7.71994 12.9264 7.70376 12.9178 7.68617 12.9159C7.63033 12.9087 7.61337 12.945 7.61337 12.945C7.61337 12.945 7.55993 12.9039 7.51641 12.897C7.54216 12.8939 7.56807 12.8922 7.59401 12.8921C7.52694 12.8617 7.45579 12.8413 7.38281 12.8314C7.44345 12.7951 7.56249 12.6882 7.64009 12.6882C7.71769 12.6882 7.76633 12.6762 7.75417 12.635C7.74201 12.5937 7.68137 12.533 7.61593 12.5087C7.64009 12.4796 7.65721 12.4359 7.59897 12.3167C7.53817 12.1978 7.56249 12.1177 7.58201 12.0887C7.59897 12.0522 7.65961 11.9868 7.68873 11.9455C7.71785 11.9042 7.74217 11.8484 7.79065 11.8193C7.81497 11.8023 7.89257 11.7713 7.97033 11.7417C8.05529 11.7126 8.12569 11.6761 8.17417 11.7126C8.22761 11.7489 8.20329 11.7975 8.20329 11.7975C8.20329 11.7975 8.37081 11.7367 8.52121 11.8145C8.67177 11.8871 9.03833 11.9334 9.03833 11.9334L9.16969 12.198L8.30073 12.9431L7.94153 13.1228L7.86873 13.1348L7.86825 13.1343Z" fill="#E5C66B"/>
<path fill-rule="evenodd" clip-rule="evenodd" d="M9.07404 11.9159C9.07404 11.9159 8.8046 12.0956 8.74396 12.161C8.78028 12.166 8.84092 12.1903 8.8166 12.2266C8.78748 12.263 8.61276 12.3892 8.51564 12.5082C8.41372 12.6271 8.3166 12.7777 8.28268 12.8505C8.24636 12.9159 7.96956 13.1078 7.875 13.1319C8.07404 13.1319 8.47452 12.8868 8.62492 12.8868C8.62012 12.9596 8.6662 13.0422 8.75116 13.0494C8.83612 13.0566 9.08124 13.1028 9.41132 12.899C9.7414 12.6999 9.63228 12.5518 9.77052 12.4548C10.0352 12.2799 10.1419 12.1246 10.2875 12.0276C10.4331 11.9306 10.5084 11.9086 10.5084 11.9086C10.5084 11.9086 10.5132 11.8358 10.5564 11.8431C10.5683 11.8445 10.5795 11.849 10.5889 11.8563C10.5983 11.8636 10.6056 11.8733 10.6099 11.8844C10.6099 11.8844 10.8624 11.7047 11.1859 11.6562C11.1783 11.6529 11.1723 11.6468 11.1689 11.6393C11.1689 11.6393 11.1931 11.6271 11.198 11.615C11.198 11.615 11.215 11.5906 11.2272 11.6028C11.2393 11.615 11.2563 11.7047 11.2806 11.7412C11.334 11.7169 11.436 11.4887 11.436 11.4887L11.6812 10.7873V10.1465L11.4892 10.183L10.0492 10.7945L9.17532 11.6999L9.0734 11.9159H9.07404Z" fill="#E6BD62"/>
<path fill-rule="evenodd" clip-rule="evenodd" d="M13.2219 8.77317C13.2998 8.75427 13.3745 8.72397 13.4435 8.68325C13.4144 8.76101 13.4144 8.84597 13.2882 9.03045C13.1619 9.21493 13.1571 9.24165 13.0552 9.43333C12.9533 9.63237 12.9411 9.91877 12.844 10.0448C12.8875 10.0237 12.9342 10.0098 12.9822 10.0037C12.9822 10.0037 12.8853 10.0887 12.844 10.1784C12.8027 10.2682 12.7299 10.4551 12.5504 10.5693C12.3709 10.6836 12.1426 10.7562 11.8974 11.0256C11.6522 11.2901 11.3998 11.6252 11.2734 11.7456C11.339 11.6316 11.4288 11.4034 11.4531 11.253C11.4774 11.1026 11.4482 10.9228 11.4894 10.7239C11.5307 10.525 11.5307 10.3816 11.7294 10.0344C11.9282 9.68725 12.2683 8.48101 12.2683 8.48101L13.0013 8.24805L13.2222 8.77237L13.2219 8.77317Z" fill="#B6933F"/>
<path fill-rule="evenodd" clip-rule="evenodd" d="M12.6906 8.32989C12.6906 8.32989 12.4698 8.64781 12.4091 8.92941C12.3485 9.21101 12.4042 9.18669 12.3679 9.32509C12.3461 9.40947 12.3461 9.49798 12.3679 9.58237C12.4443 9.45917 12.549 9.35595 12.6733 9.28125C12.8821 9.15517 13.052 9.06525 13.1533 8.95853C13.2552 8.84445 13.3402 8.65757 13.561 8.51437C13.4712 8.50221 13.345 8.46093 13.321 8.46637C13.4109 8.36445 13.6802 8.20909 13.952 8.02221C14.2215 7.83021 14.2045 7.75276 14.6415 7.56108C14.4983 7.5854 14.4303 7.54892 14.3112 7.56108C14.3592 7.45916 14.5272 7.41053 14.6952 7.24317C14.8632 7.07581 14.5885 6.82812 14.5885 6.82812L13.3085 7.60237L12.6896 8.33053L12.6906 8.32989Z" fill="#C49937"/>
<path fill-rule="evenodd" clip-rule="evenodd" d="M9.21875 7.75134L9.24787 7.51838L9.61443 6.93102L9.99795 5.8995V4.48926L9.96883 3.67374L10.0295 3.13966L10.0755 2.9699L10.1242 2.9043L10.4372 3.06686L10.8693 3.65422L10.9106 4.78782L10.4906 6.57662L9.29155 7.88494L9.21875 7.75134Z" fill="#DFC068"/>
<path fill-rule="evenodd" clip-rule="evenodd" d="M10.1736 2.84C10.1736 2.84 9.98156 2.84496 9.9406 3.64352C9.89964 4.44208 9.8798 4.86192 9.85068 5.2576C9.82156 5.65328 9.75372 5.89344 9.71964 6.12656C9.68556 6.35968 9.6662 6.67744 9.55708 6.87168C9.50908 6.96144 9.40652 7.24304 9.1662 7.45424C8.89676 7.6872 8.4942 7.84992 8.43324 7.86208C8.32636 7.88624 7.78508 7.93968 7.56428 8.06112C7.48668 8.1024 7.35308 8.15088 7.20508 8.28928C6.91132 8.55376 6.5206 9.02704 6.239 9.59744C5.807 10.4494 5.375 12.8547 5.375 12.8547L5.47212 12.6922C5.47212 12.6922 5.48428 12.4762 5.70028 12.0974C5.91148 11.7189 5.85084 11.2941 6.14444 10.5683C6.25852 10.2917 6.40172 9.93248 6.57644 9.62656C6.85324 9.12896 7.18812 8.70176 7.52556 8.4688C8.07644 8.09024 8.68332 8.00768 8.68332 8.00768L9.33628 7.57568C9.33628 7.57568 9.45036 7.35488 9.60092 7.1024C9.81196 6.74816 10.0809 6.35248 10.1396 5.77728C10.2296 4.92528 10.0134 4.36704 10.0256 3.86224C10.0377 3.35744 10.0425 2.98608 10.1446 2.89616C10.2467 2.80624 10.1737 2.84032 10.1737 2.84032L10.1736 2.84Z" fill="#A88F33"/>
<path fill-rule="evenodd" clip-rule="evenodd" d="M10.1678 6.65069C10.1678 6.65069 10.4558 5.94189 10.5876 5.31325C10.612 5.18701 10.6604 5.06093 10.6726 4.95901C10.7332 4.36429 10.7502 4.11917 10.6726 3.79389C10.612 3.55389 10.379 3.33757 10.2576 3.16989C10.1387 2.99501 10.0828 2.92989 10.1072 2.89309C10.1315 2.85629 10.226 2.79613 10.3182 2.80333C10.4162 2.80618 10.5125 2.82892 10.6014 2.87018C10.6903 2.91144 10.7699 2.97035 10.8353 3.04333C11.0222 3.25933 11.1702 3.99245 11.1702 3.99245L11.3259 4.95981L11.7216 6.17821L10.1681 6.65165L10.1678 6.65069Z" fill="#C99E3D"/>
<path fill-rule="evenodd" clip-rule="evenodd" d="M12.8749 5.91227C12.8749 5.91227 12.8215 5.93643 12.7245 5.91227C12.7286 5.95189 12.7218 5.99189 12.7046 6.02785C12.6875 6.06382 12.6608 6.09436 12.6274 6.11611C12.5255 6.07483 11.5714 6.15739 11.5714 6.15739C11.5714 6.15739 11.1272 6.07963 10.9888 5.49227C10.8919 5.10139 11.0616 4.56267 11.0058 4.20827C10.9208 3.68635 10.8019 3.58427 10.7898 3.42187C10.7776 3.25947 10.7655 3.21803 10.7655 3.11611C10.712 3.10395 10.6805 3.08699 10.6272 3.08699C10.6151 3.03899 10.6392 2.99707 10.5859 2.91211C10.6151 2.92427 10.8141 2.94859 11.0471 3.16939C11.2391 3.34907 11.2391 3.41451 11.268 3.45099C11.3043 3.48731 11.5981 3.73899 11.7243 3.98987C11.8506 4.24075 12.0957 5.04075 12.1515 5.17179C12.1685 5.22523 12.205 5.27867 12.2955 5.39995C12.4363 5.57483 12.6426 5.86395 12.8755 5.91195L12.8749 5.91227Z" fill="#B58634"/>
<path fill-rule="evenodd" clip-rule="evenodd" d="M11.3047 3.46289C11.4517 3.70041 11.5838 3.94686 11.7002 4.20081C11.8434 4.52353 11.9284 4.78817 12.108 5.00417C12.0109 4.72273 11.8386 4.16929 11.7367 3.97265C11.6226 3.76465 11.3896 3.54065 11.3047 3.46305V3.46289Z" fill="#A88F33"/>
<path fill-rule="evenodd" clip-rule="evenodd" d="M9.65158 7.45328C9.65158 7.45328 9.40646 7.51392 8.95014 7.75424C8.79958 7.83184 8.65654 7.89728 8.51814 7.95808C8.15862 8.12064 7.77302 8.27088 7.4671 8.35376C7.49142 8.38288 7.50342 8.39488 7.50342 8.39488C7.50342 8.39488 7.50342 8.51392 7.56902 8.58176C7.5327 8.61824 7.0471 8.94832 7.19046 10.0526C7.28742 10.0163 7.4015 9.96768 7.41846 9.96768C7.44774 9.97264 7.45494 10.0526 7.49126 10.0526C7.52758 10.0526 7.64662 10.0046 7.77286 9.84144C7.76806 9.90704 7.69526 10.5672 8.08598 11.0114C8.15878 10.9264 8.34326 10.6448 8.34326 10.6448L8.34806 10.555C8.34806 10.555 8.36502 10.2419 8.4671 9.95552C8.56918 9.66912 8.76806 9.45792 8.76806 9.45792L9.80662 7.97488L9.65126 7.45312L9.65158 7.45328Z" fill="#E6C367"/>
<path fill-rule="evenodd" clip-rule="evenodd" d="M8.68401 9.63106C8.63646 9.66466 8.58407 9.69083 8.52865 9.70866C8.51169 9.64802 8.48737 9.43922 8.63057 9.23538C8.79809 8.9901 9.16449 8.67218 9.26641 8.41938C9.33201 8.25666 9.30289 7.84898 9.88545 7.32706C10.468 6.80514 10.696 6.62562 10.696 6.62562L11.6378 6.15234L12.7955 6.60866L12.2203 8.86306L11.7738 9.91906L9.99777 9.58418L8.68385 9.63106H8.68401Z" fill="#DCBA5A"/>
<path fill-rule="evenodd" clip-rule="evenodd" d="M9.35938 9.01966L9.58033 8.74302V8.54638C9.58033 8.54638 9.82545 8.48078 10.0899 8.21134C10.3544 7.9419 10.721 7.42494 11.0439 7.45646C11.3667 7.49294 11.3983 8.1579 11.4104 8.34494C11.4226 8.53198 11.4639 8.95646 11.5293 9.18478C11.6021 9.41294 10.7429 10.2769 10.7429 10.2769L10.1594 10.7211L9.35938 9.01966Z" fill="#E9CE77"/>
<path fill-rule="evenodd" clip-rule="evenodd" d="M10.0469 11.3213C10.0469 11.3213 10.2266 11.0397 10.0949 10.9791C10.1725 10.8043 10.3157 10.6199 10.3157 10.6199C10.3157 10.6199 10.4176 10.3675 10.7477 10.0568C11.0778 9.7461 11.2818 9.5397 11.3352 9.33106C11.3681 9.19508 11.3861 9.0559 11.3886 8.91602C11.4243 8.94517 11.4625 8.97113 11.5027 8.99362C11.5562 9.01794 11.8085 9.22658 11.7722 9.64658C11.7358 10.0666 11.5802 10.2413 11.5802 10.2413C11.5802 10.2413 11.4298 10.3917 11.323 10.4695C11.2088 10.5471 11.1677 10.6368 10.9758 10.6442C10.9956 10.6285 11.0177 10.6162 11.0414 10.6077C11.0414 10.6077 10.8424 10.5835 10.7355 10.6805C10.6286 10.7775 10.4014 11.0762 10.2874 11.1661C10.1733 11.2389 10.0474 11.3215 10.0474 11.3215L10.0469 11.3213Z" fill="#CDAE50"/>
<path fill-rule="evenodd" clip-rule="evenodd" d="M18.1104 6.6021C17.8236 6.49759 17.5222 6.43864 17.2172 6.42738C16.7075 6.41042 15.9624 6.43954 15.2318 6.44434C14.4454 6.44914 13.7318 6.1749 12.7416 6.12642C12.579 6.0293 12.1656 5.6045 10.875 6.50498C10.9526 6.50018 11.812 6.30594 12.1104 6.67986C12.4113 7.05122 12.3264 7.68226 12.2852 7.83266C12.2075 8.1677 11.955 8.65554 11.8532 8.99778C11.7515 9.34002 11.7755 9.51986 11.7027 9.75986C11.6299 9.99986 11.4697 10.1191 11.5643 10.3957C11.6905 10.3181 11.7563 10.3181 11.9672 9.84482C12.178 9.37154 12.1347 9.0341 12.4843 8.63362C12.8265 8.23074 13.3963 7.6797 13.6129 7.5413C13.8296 7.4029 15.5497 6.50978 17.3508 7.36178C17.7852 7.3157 18.1105 6.60194 18.1105 6.60194L18.1104 6.6021Z" fill="#D2A83E"/>
<path fill-rule="evenodd" clip-rule="evenodd" d="M11.6042 6.27116C11.6024 6.25292 11.5984 6.23497 11.5922 6.21772C11.5753 6.18223 11.5532 6.14948 11.5266 6.1206C11.5266 6.1206 11.0994 6.043 10.8834 6.06716C10.5047 6.10844 10.1624 6.57692 10.0023 6.81724C9.84211 7.05756 9.64307 7.42876 9.42707 7.6206C9.42944 7.60191 9.42513 7.58299 9.41491 7.56716C9.41491 7.56716 9.42707 7.58412 9.40291 7.60844C9.37875 7.63276 9.37859 7.64476 9.39075 7.65644L9.42723 7.69276C9.43923 7.69276 9.77427 7.5422 10.2306 7.11676C10.716 6.6726 11.0874 6.44476 11.2816 6.36668C11.3852 6.32266 11.4935 6.29061 11.6044 6.27116H11.6042Z" fill="#C29637"/>
<path fill-rule="evenodd" clip-rule="evenodd" d="M19.8895 4.44531C19.8895 4.44531 19.8117 4.54227 19.7146 4.64915C19.4986 4.87731 19.217 5.13443 18.9767 5.39907C18.7487 5.65155 18.4914 5.84819 18.2024 6.17827C17.9135 6.50835 17.5784 6.87475 17.4936 6.98163C17.416 7.08851 17.3554 7.26323 17.3554 7.35299C17.3141 7.32387 17.2656 7.29235 17.2656 7.29235C17.286 7.33046 17.3104 7.36629 17.3384 7.39923C17.3991 7.48419 17.4936 7.59123 17.5423 7.65651C17.6019 7.73962 17.6448 7.8336 17.6683 7.93315C17.6975 7.93795 17.8843 7.97443 18.1175 7.59091C18.3506 7.20739 18.6562 6.78755 18.6562 6.78755L19.1416 6.06659L19.4475 5.45507L19.8315 4.77059L19.8899 4.44531H19.8895Z" fill="#AC8132"/>
<path fill-rule="evenodd" clip-rule="evenodd" d="M20.3856 3.95508C20.3856 3.95508 20.0918 4.19508 19.9778 4.33908C19.8637 4.48308 19.5938 4.861 19.5938 4.861L19.6909 4.84884L20.1837 4.41204L20.3757 4.0698L20.3854 3.95572L20.3856 3.95508Z" fill="#A88F33"/>
<path fill-rule="evenodd" clip-rule="evenodd" d="M20.2982 23.2454C20.2982 23.2454 20.2934 23.0464 20.405 22.9275C20.5191 22.8085 20.8079 22.6337 21.0895 21.9784C21.3711 21.323 21.4025 21.175 21.4025 21.175C21.4025 21.175 20.8977 21.607 20.5865 21.7089C20.6593 21.5584 20.7006 21.4517 20.737 21.3739C20.6958 21.3376 20.521 21.2963 20.5041 21.2769C20.601 21.1798 20.6545 20.9419 20.8511 20.7841C21.1036 20.5921 21.5647 20.2622 21.9231 19.9681C22.2815 19.6741 22.9862 18.9901 23.0761 18.791C23.1295 18.8686 23.1415 18.9171 23.1415 18.9171C23.1415 18.9171 22.7873 19.3784 22.6028 19.672C22.4401 19.9245 22.4522 20.0677 22.4522 20.0677L22.7873 19.9237C22.7873 19.9237 22.8842 20.2829 22.445 20.8291C22.637 20.7563 22.7145 20.8 22.8236 20.7392C22.6439 20.8534 22.3964 21.0088 22.1634 21.4358C21.9353 21.863 21.6246 22.3606 21.1004 22.6712C20.5906 22.9989 20.2969 23.244 20.2969 23.244L20.2982 23.2454Z" fill="#A67A2E"/>
<path fill-rule="evenodd" clip-rule="evenodd" d="M18.9815 6.85335C18.9815 6.85335 18.7825 7.26823 18.7534 7.59111C18.7486 7.66887 18.729 7.72951 18.729 7.81927C18.7242 8.10807 18.746 8.43095 18.681 8.58135C18.6567 8.52071 18.6446 8.47943 18.6202 8.45527C18.5839 8.55719 18.5183 8.87511 18.4649 8.99399C18.4407 8.91639 18.3873 8.64695 18.3922 8.32903C18.3972 8.01111 18.4042 7.95031 18.4042 7.88487C18.3922 7.98183 18.3266 8.11303 18.3023 8.19063C18.266 8.12519 18.2247 8.04023 18.1761 7.96983C18.147 8.01783 18.1106 8.08871 18.0791 8.12519C18.0742 8.09607 18.0622 8.01831 18.0548 7.90919C18.05 7.78295 18.0426 7.62039 18.05 7.58631C18.062 7.52087 18.1641 7.26359 18.3801 7.02807C18.6374 6.74647 18.902 6.20535 18.9796 6.03783C19.0572 5.87031 19.3873 5.17383 19.3873 5.17383H19.6398L19.2732 6.00871C19.2732 6.00871 19.0524 6.46503 18.9383 6.63271C18.8242 6.80039 18.5839 7.28087 18.477 7.46775C18.5546 7.36583 18.6202 7.31239 18.698 7.21527C18.7732 7.14727 18.9818 6.85367 18.9818 6.85367L18.9815 6.85335Z" fill="#8C6228"/>
<path fill-rule="evenodd" clip-rule="evenodd" d="M20.3918 3.92383C20.3505 4.05076 20.2854 4.16862 20.1998 4.27103C20.0492 4.45071 19.7263 4.69087 19.5687 4.88255C19.4247 5.06943 19.1367 5.57919 19.2676 6.18351C19.3156 6.05247 19.406 5.79279 19.6463 5.49903C19.8867 5.20527 20.1439 4.86799 20.2703 4.60591C20.3964 4.34127 20.4134 4.13263 20.4134 4.13263L20.4614 4.07199L20.4323 3.93359L20.391 3.92383H20.3918Z" fill="#CBA94C"/>
<path fill-rule="evenodd" clip-rule="evenodd" d="M25.3061 20.0238C25.3061 20.0238 25.2089 19.7593 25.1798 19.519C25.1507 19.2786 25.2278 19.231 25.1385 18.9559C25.0851 18.7884 24.9881 18.8119 24.9638 18.7884C24.9395 18.7649 24.9225 18.5118 24.9273 18.3734C24.9321 18.235 24.9225 18.0554 24.8982 17.9777C24.8619 17.9486 24.8376 17.9242 24.7841 17.7447C24.7235 17.565 24.6944 17.4753 24.6653 17.422C24.6361 17.3687 24.551 17.3201 24.551 17.2666C24.551 17.1598 24.6481 17.1041 24.6481 17.0746C24.6433 17.014 24.5705 17.0626 24.551 17.0455C24.5268 17.0164 24.6118 16.8417 24.5803 16.8174C24.5681 16.8054 24.4832 16.9073 24.4613 16.8782C24.4369 16.8489 24.4078 16.5601 24.3641 16.3684C24.323 16.1815 24.2792 16.0457 24.2744 15.9898C24.2696 15.9364 23.9393 14.9946 23.8593 14.7665C23.7949 14.5737 23.7406 14.3776 23.6968 14.1791C23.6724 14.065 23.6555 13.8319 23.6433 13.8562C23.6312 13.8806 23.6385 13.9994 23.619 13.9946C23.602 13.9897 23.5414 13.5748 23.5221 13.5092C23.5051 13.4436 23.403 13.2212 23.3781 13.0602C23.3537 12.8975 23.3005 12.4727 23.264 12.1839C23.2275 11.8951 23.2105 11.7762 23.2105 11.7039C23.2165 11.527 23.2068 11.35 23.1814 11.1748C23.1334 10.8689 23.0374 10.4975 22.9533 10.2817C22.7907 9.87384 22.3585 8.83016 22.2812 8.57048C22.2812 8.50488 22.3662 8.54136 22.3662 8.54136C22.3662 8.54136 22.5773 9.07048 22.7326 9.47816C22.8832 9.886 23.0264 10.2452 23.0628 10.2817C23.092 10.318 23.3201 10.7185 23.4221 11.3738C23.524 12.0292 23.5603 12.6335 23.6211 13.0364C23.6502 13.2284 23.6745 13.4321 23.7352 13.6359C23.8006 13.8569 23.9025 14.085 24.0361 14.4345C24.1502 14.7282 24.2352 14.9734 24.2812 15.1846C24.3347 15.454 24.3347 15.6578 24.3662 15.7914C24.3955 15.9055 24.439 16.1335 24.5411 16.4634C24.6432 16.7934 24.7934 17.2183 24.8953 17.4828C25.0945 18.0119 25.1833 18.4537 25.2134 18.6892C25.24 18.9319 25.3299 19.7718 25.3056 20.0241L25.3061 20.0238Z" fill="#A88F33"/>
<path fill-rule="evenodd" clip-rule="evenodd" d="M20.4085 3.89509L20.3963 3.92421C20.3963 3.92421 20.4326 3.93637 20.4254 3.98501C20.426 4.05156 20.4219 4.11806 20.4133 4.18405C20.4013 4.26901 20.377 4.33445 20.3722 4.38789C20.3722 4.50197 20.3891 4.63301 20.2282 4.95829C20.1802 5.04805 20.1506 5.12565 20.1262 5.17909C20.0656 5.31013 20.0534 5.32965 20 5.39029C20.085 5.34229 20.3909 5.15029 20.5461 5.17909C20.4394 5.23973 20.2766 5.35877 20.1747 5.51413C20.199 5.51893 20.301 5.53845 20.4627 5.51413C20.7322 5.47285 21.0331 5.37573 21.2976 5.39509C21.5866 5.41205 21.4725 5.04805 21.4725 5.04805L21.139 4.31509L20.508 3.87109L20.4085 3.89525V3.89509Z" fill="#BE9C44"/>
<path fill-rule="evenodd" clip-rule="evenodd" d="M22.0494 9.38519C22.0494 9.38519 21.7678 9.10359 21.6538 8.13719C21.5397 7.16631 21.564 5.73719 21.564 5.73719L21.3358 5.17895C21.3358 5.17895 21.2879 4.80759 21.1683 4.66935C21.0488 4.53111 20.8141 4.29799 20.7072 4.18391C20.6003 4.06983 20.4791 3.91447 20.4062 3.89015C20.4426 3.82951 20.6053 3.48727 21.229 3.48247C21.8527 3.47767 22.045 3.82471 22.1101 3.95095C22.1752 4.07719 22.4693 4.62295 22.5784 5.66295C22.6803 6.70167 22.6853 6.77943 22.6683 7.13863C22.6562 7.33767 22.5906 7.79879 22.4763 8.29143C22.372 8.70903 22.2579 9.17511 22.0491 9.38615L22.0494 9.38519Z" fill="#A17C34"/>
<path fill-rule="evenodd" clip-rule="evenodd" d="M21.1661 10.2133C21.2599 10.2201 21.3537 10.199 21.4355 10.1525C21.5253 10.1477 21.8506 10.189 22.1005 9.87109C22.1174 9.94373 22.1613 10.1405 22.047 10.3153C22.1078 10.2545 22.1976 10.2303 22.2098 10.2133C22.2146 10.3031 22.2995 10.5797 21.9403 11.2521C22.0373 11.1453 22.1513 11.1501 22.2533 11.138C22.2582 11.2642 22.3261 11.6889 22.1466 11.9172C22.0277 12.0725 21.8334 12.0239 21.8334 12.0239C21.8363 11.99 21.8363 11.9559 21.8334 11.922C21.8286 11.8564 21.8043 11.7909 21.8214 11.7473C21.7276 11.7044 21.6421 11.6452 21.569 11.5724C21.3578 11.3733 21.0835 11.0337 21.0642 10.7812C21.0398 10.4996 21.2923 10.4389 21.2923 10.4389C21.2712 10.42 21.2531 10.3979 21.2389 10.3733C21.2267 10.3322 21.2146 10.2666 21.1661 10.2133Z" fill="#8C6228"/>
<path fill-rule="evenodd" clip-rule="evenodd" d="M19.2963 7.1593C19.2963 7.1593 19.2842 7.14234 19.2188 7.21994C19.2309 7.14234 19.2431 7.06938 19.2479 6.99898C19.2788 6.9338 19.3189 6.87336 19.3669 6.81946C19.3304 6.8921 19.3061 6.9577 19.3061 6.9577C19.3061 6.9577 19.396 6.79018 19.5271 6.68826C19.6168 6.61546 19.7309 6.58154 19.7794 6.51354C19.8328 6.44074 19.8207 6.42858 19.8328 6.41642C19.8328 6.41642 19.9519 6.33882 20.1339 6.1105C20.1581 6.08138 20.1946 6.04986 20.2189 6.02074C20.26 6.00378 20.3572 5.9601 20.4712 5.9017C20.5903 5.83626 20.7237 5.7465 20.8063 5.7097C20.9688 5.6369 21.1413 5.64426 21.2213 5.53002C21.282 5.51306 21.3474 5.33098 21.3354 5.17578C21.4251 5.2121 21.8863 5.4985 22.0442 6.12474C22.1583 6.5689 21.9543 7.25338 21.8693 7.58362C21.7844 7.91386 21.7724 8.15882 21.6533 8.30922C21.5028 8.50842 21.0175 8.78922 20.8984 8.92826C20.7965 9.04234 20.4907 9.33114 20.5027 9.53978C20.5149 9.69514 20.7066 9.77978 20.748 9.80922C20.7895 9.83866 20.7891 9.87482 20.8669 9.85722C20.9447 9.83962 20.9736 9.80378 21.0053 9.80378C21.0416 9.80858 21.0416 9.81594 21.0586 9.81594C21.0709 9.81557 21.0831 9.81391 21.0951 9.81098C21.0951 9.81098 21.0829 10.0319 20.5659 10.099C20.5295 10.1039 20.4932 10.1159 20.4469 10.1233C20.5077 10.0942 20.544 10.0942 20.6096 10.0044C20.5368 9.99226 20.328 9.9801 20.2746 9.96314C20.2915 9.93402 20.3474 9.85626 20.3935 9.81994C20.4347 9.78362 20.3887 9.77194 20.3523 9.79082C20.2898 9.83336 20.2298 9.87952 20.1727 9.92906C20.112 9.9825 20.0586 10.0553 19.9615 10.1211C19.9323 10.0239 19.9371 9.83946 20.0514 9.70602C20.0221 9.71082 19.9663 9.79578 19.913 9.77882C19.9034 9.69029 19.9091 9.60076 19.9299 9.51418C19.9591 9.4049 20.1168 9.21322 20.1168 9.21322L20.8789 7.85146L21.0415 6.81994L19.2963 7.15898V7.1593Z" fill="#92723A"/>
<path fill-rule="evenodd" clip-rule="evenodd" d="M19.2512 7.21754C19.2512 7.21754 19.21 7.24666 19.2925 7.3025C19.2804 7.31946 19.2512 7.38011 19.2148 7.42139C19.1736 7.46939 19.1298 7.49914 19.1128 7.54042C19.0765 7.62538 19.0474 7.68362 19.0474 7.7201C19.0474 7.75658 19.0352 7.98954 18.9333 8.13994C18.8968 8.19338 18.8556 8.28315 18.8264 8.34379C18.7658 8.45051 18.7124 8.53579 18.7002 8.58379C18.676 8.66875 18.6591 8.9017 18.6591 8.9017C18.6591 8.9017 18.7125 8.83611 18.7319 8.81195C18.7026 8.87259 18.6711 8.93802 18.625 8.98666C18.6541 8.96234 18.7391 8.9017 18.8823 8.77546C19.0813 8.6081 19.392 8.3265 19.7708 8.10346C19.6565 8.14474 19.5596 8.14475 19.482 8.15691C19.5426 8.09627 20.0887 7.45547 20.3751 7.39483C20.3925 7.37278 20.4011 7.34509 20.3994 7.31706L20.1541 7.29291L19.6565 7.39962L19.5839 7.01562L19.2512 7.21706V7.21754Z" fill="#B18E3E"/>
<path fill-rule="evenodd" clip-rule="evenodd" d="M20.0457 9.40269C20.0457 9.40269 19.9801 9.46813 19.9194 9.63085C19.8727 9.5821 19.8327 9.52738 19.8004 9.46813C19.7106 9.31773 19.5724 9.12589 19.2495 9.23517C19.2447 9.13325 19.2373 9.07981 19.2495 9.00701C19.3029 8.99501 19.4655 8.86397 19.6281 8.67213C19.7423 8.54109 19.849 8.39053 19.9218 8.19885C19.9698 8.16237 20.0529 8.10173 20.1618 8.03133C20.3172 7.92461 20.5041 7.77885 20.5332 7.61629C20.4604 7.64541 20.305 7.71821 20.0719 7.70621C20.1618 7.66493 20.3001 7.62125 20.2831 7.44157C20.3196 7.41725 20.3487 7.40029 20.3487 7.40029C20.3213 7.39116 20.2926 7.38704 20.2637 7.38813C20.2588 7.37117 20.2516 7.34701 20.2103 7.35901C20.169 7.37101 20.1623 7.37117 20.1569 7.38813C20.1399 7.39309 20.0841 7.38813 20.0428 7.41741C20.0015 7.44669 19.8874 7.54349 19.8437 7.56045C19.8607 7.53133 19.8849 7.48781 19.8849 7.48781C19.8849 7.48781 19.766 7.49981 19.681 7.53581C19.5257 7.58925 19.3461 7.68637 19.1641 7.78093C19.181 7.75181 19.1884 7.73293 19.2004 7.72749C19.2124 7.72205 19.2417 7.71549 19.2417 7.71053C19.2417 7.70557 19.2297 7.66253 19.2369 7.64509C19.2913 7.52977 19.3555 7.41933 19.4289 7.31501C19.5138 7.20077 19.5308 7.03821 19.5308 7.03821L19.9021 6.85133L20.9458 6.61133L21.6231 6.65261L21.5381 7.12109L21.1381 7.93901L20.7959 8.68413L20.405 9.14061L20.0458 9.40269H20.0457Z" fill="#543E26"/>
<path fill-rule="evenodd" clip-rule="evenodd" d="M21.7355 7.3755C21.7355 7.3755 21.3277 7.8803 21.2136 7.95806C21.2864 7.8027 21.7355 6.8779 21.8981 6.62062C21.8618 6.5915 21.8131 6.5915 21.9272 6.14062C21.8302 6.36862 21.7962 6.48766 21.7162 6.5483C21.6362 6.60894 21.6262 6.58958 21.5722 6.58958C21.5824 6.57111 21.5866 6.54991 21.5842 6.52894C21.5842 6.52894 21.2419 6.48767 21.0082 6.48767C20.7744 6.48767 20.3117 6.6139 20.0542 6.71582C19.8504 6.80078 19.7363 6.80078 19.6635 6.85406C19.5907 6.9147 19.5494 6.9803 19.513 6.99726C19.4838 7.01422 19.3456 7.0579 19.3139 7.10398C19.2848 7.15198 19.2363 7.2059 19.2363 7.21806C19.2363 7.23022 19.2242 7.24734 19.2606 7.23502C19.2726 7.23022 19.3626 7.18158 19.4645 7.12094C19.6027 7.04334 19.7702 6.95358 19.8917 6.90014C20.2387 6.76174 20.348 6.78606 20.5032 6.75694C20.6658 6.72782 20.8989 6.65982 21.0541 6.65982C21.2094 6.65502 21.5032 6.65982 21.5712 6.67198C21.5421 6.6963 21.5178 6.72542 21.5299 6.82734C21.5299 6.85646 21.5056 6.88798 21.4819 6.95838C21.4093 7.15742 21.2709 7.4875 21.1939 7.65502C21.0872 7.88302 20.9659 8.07486 20.9059 8.19374C20.8459 8.31262 20.7139 8.62574 20.5832 8.79326C20.4525 8.96078 20.3842 9.0627 20.3432 9.09918C20.3022 9.13566 20.0082 9.3515 20.0301 9.42926C20.0835 9.4123 20.421 9.28526 20.6659 9.00942C20.9109 8.73358 20.9597 8.56526 21.1514 8.41471C21.343 8.26414 21.4936 8.01182 21.5834 7.80318C21.6586 7.60894 21.6416 7.5483 21.7362 7.37598L21.7355 7.3755Z" fill="#806031"/>
<path fill-rule="evenodd" clip-rule="evenodd" d="M12.9456 11.1434C12.9456 11.1434 12.8922 11.3642 12.7708 11.4735C12.6519 11.5804 12.4407 11.6726 12.4165 11.8523C12.3874 12.0318 12.6277 12.1217 12.6277 12.1217C12.6277 12.1217 12.4965 12.3377 12.4965 12.5003C12.4965 12.6678 12.4917 12.6993 12.5087 12.8594C12.4894 12.8718 12.4731 12.8882 12.4607 12.9074C12.4607 12.9074 12.4727 13.0628 12.5917 13.1598C12.7108 13.2567 12.8125 13.3151 12.8731 13.2908C12.8824 13.3106 12.8905 13.3309 12.8975 13.3516C12.8975 13.3516 12.9874 13.1234 13.048 12.9244C13.1087 12.7206 13.1621 12.7495 13.1863 12.4753C13.2104 12.201 13.4743 11.7302 13.4743 11.7302L13.6543 11.3278L13.3607 11.0996L12.9456 11.1433V11.1434Z" fill="#B6903C"/>
<path fill-rule="evenodd" clip-rule="evenodd" d="M13.4981 11.5391C13.4376 11.6012 13.3817 11.6677 13.3309 11.7381C13.2533 11.845 13.1927 11.9419 13.0786 11.9834C12.9645 12.0248 12.8917 12.0245 12.8989 12.1387C12.9061 12.253 13.013 12.3013 13.0736 12.3595C13.1392 12.4202 13.1927 12.5221 13.1636 12.6363C13.1999 12.6194 13.2655 12.5999 13.3261 12.4688C13.3868 12.3378 13.8109 11.5392 13.8109 11.5392H13.4981V11.5391Z" fill="#685026"/>
<path fill-rule="evenodd" clip-rule="evenodd" d="M15.1673 9.69627C15.1673 9.69627 15.2036 9.59931 15.1673 9.52891C15.1308 9.45611 14.91 9.43179 14.8008 9.34923C14.6867 9.26427 14.5483 9.20523 14.4342 9.24251C14.4512 9.20123 14.5192 9.11131 14.4633 9.09195C14.4099 9.07499 14.211 9.16475 14.1576 9.20603C14.1041 9.24731 13.9827 9.29579 13.9585 9.32507C13.9344 9.35435 13.8929 9.41003 13.8686 9.38571C13.8443 9.36875 13.8323 9.32507 13.791 9.34923C13.7497 9.37339 13.551 9.53611 13.5144 9.63083C13.4777 9.72555 13.3953 9.93675 13.1478 10.1769C12.9003 10.4171 12.7934 10.5726 12.8662 10.6624C12.939 10.7521 12.9731 10.6867 12.9852 10.7643C12.9946 10.8404 12.9905 10.9177 12.9731 10.9924C12.944 11.1187 12.8955 11.2376 12.9609 11.2619C13.1284 11.3153 13.2912 11.2139 13.3275 11.2449C13.4003 11.3104 13.2862 11.5459 13.4585 11.592C13.6334 11.64 13.8057 11.5507 13.8057 11.5507L14.4416 11.2084L15.0532 10.8857L15.3662 10.2667L15.1984 9.74971L15.1664 9.69627H15.1673Z" fill="#D4B968"/>
<path fill-rule="evenodd" clip-rule="evenodd" d="M14.5645 11.1741C14.5645 11.1741 14.4576 11.0116 14.5888 10.8682C14.72 10.7248 14.9067 10.6644 14.9795 10.5746C14.9657 10.5575 14.9471 10.5449 14.9261 10.5383C14.9744 10.4518 15.0481 10.3823 15.1373 10.3391C15.101 10.3028 15.0523 10.2736 14.999 10.2736C14.88 10.2736 14.807 10.3464 14.6979 10.3464C14.5912 10.3464 14.579 10.293 14.579 10.293C14.579 10.293 14.7587 10.276 14.7416 10.1959C14.7246 10.1109 14.6936 10.1109 14.6936 10.1109C14.6936 10.1109 15.0406 9.96692 15.1013 9.89012C15.1619 9.81332 15.1547 9.7226 15.1669 9.68628C15.208 9.68628 15.4483 9.56004 15.5454 9.61348C15.6426 9.66692 15.5746 9.81252 15.5746 9.81252C15.5746 9.81252 15.8685 9.59156 16.0182 9.37492C16.1493 9.38708 16.2102 9.28516 16.3062 9.28516C16.4253 9.28516 16.6122 9.44772 16.6485 9.79476C16.6728 9.9938 16.7091 10.1079 16.6728 10.4599C16.6558 10.6589 16.6606 11.0839 16.7208 11.2948C16.7619 11.4623 16.859 11.4453 16.859 11.4453C16.8441 11.4964 16.8146 11.5419 16.7741 11.5764C16.7085 11.637 16.7013 11.7973 16.7085 11.858C16.7182 11.9023 16.7303 11.946 16.745 11.989C16.745 11.989 16.6674 12.0788 16.6478 12.1396C16.6309 12.2002 16.5509 12.2415 16.4925 12.2415C16.4341 12.2415 16.4634 12.2365 16.3858 12.2415C16.3082 12.2464 16.2838 12.2584 16.2352 12.2415C16.1866 12.2245 16.1502 12.205 16.1698 12.0495C16.1867 11.8941 15.5702 11.5325 15.5702 11.5325L14.5622 11.1733L14.5645 11.1741Z" fill="#CCA849"/>
<path fill-rule="evenodd" clip-rule="evenodd" d="M13.407 12.7072C13.407 12.7072 13.6278 13.001 14.5357 13.001C14.9677 13.001 15.1182 12.9597 15.2077 12.9354C15.3048 12.9111 15.6688 12.768 16.0354 12.3359C16.3654 11.9451 16.2926 11.785 16.2926 11.785L16.1006 11.7559L15.4766 11.8408L13.6303 12.6272L13.4062 12.7072H13.407Z" fill="#585136"/>
<path fill-rule="evenodd" clip-rule="evenodd" d="M14.0911 12.7813C14.0911 12.7813 13.3047 12.9562 13.3047 12.4586C13.3047 11.9732 13.7901 11.4634 13.9116 11.3736C14.0378 11.2837 14.3388 11.1816 14.3388 11.1816H15.0645L15.2028 11.5482L15.1421 12.3394L14.0911 12.7812V12.7813Z" fill="#252211"/>
<path fill-rule="evenodd" clip-rule="evenodd" d="M14.8169 11.3287C14.8169 11.3287 14.6665 11.1903 14.3242 11.3767C13.982 11.5631 13.7052 11.9527 13.6882 12.3065C13.6713 12.6194 13.9455 12.8526 14.3727 12.8647C14.6906 12.8767 14.8825 12.8404 14.9796 12.8167C14.9553 12.7876 14.829 12.6298 14.829 12.6298L14.817 11.3289L14.8169 11.3287Z" fill="#C3B378"/>
<path fill-rule="evenodd" clip-rule="evenodd" d="M14.664 11.4077C14.664 11.4077 14.6276 11.3786 14.52 11.4368C14.4302 11.4848 14.2992 11.6117 14.1972 11.7014C14.1316 11.7549 14.0904 11.779 14.0532 11.8203C13.9027 12 13.7764 12.2938 13.8494 12.4394C13.9224 12.585 14.1625 12.7525 14.7742 12.6384L14.6622 11.4078L14.664 11.4077Z" fill="#E6D89C"/>
<path fill-rule="evenodd" clip-rule="evenodd" d="M14.464 11.7072C14.464 11.7072 14.3669 11.8577 14.3669 12.0981C14.3669 12.3432 14.5053 12.7339 15.0151 12.763C15.4058 12.7873 15.6679 12.2 15.9519 11.9718C16.1679 11.7971 16.2989 11.7921 16.2989 11.7921C16.2989 11.7921 16.0781 11.5521 15.4884 11.2413C14.9058 10.9281 14.2528 10.8869 13.8984 11.3675C14.066 11.3553 14.6072 11.2169 14.6072 11.2169L14.8719 11.3019L14.464 11.7073V11.7072Z" fill="#252211"/>
<path fill-rule="evenodd" clip-rule="evenodd" d="M15.2312 12.0251C15.2142 11.9888 15.2021 11.9402 15.2725 11.9282C15.3429 11.9162 15.3744 11.9232 15.3987 11.9762C15.423 12.0291 15.4467 12.0733 15.4107 12.0952C15.3744 12.1146 15.2797 12.0952 15.231 12.0248L15.2312 12.0251ZM15.1171 11.6829C15.1171 11.6829 15.0928 11.6998 15.105 11.6659C15.1098 11.6248 15.1414 11.5518 15.219 11.569C15.2966 11.5861 15.2798 11.6709 15.267 11.6952C15.2542 11.7195 15.1894 11.7606 15.1408 11.7432C15.1346 11.7416 15.1289 11.7386 15.1241 11.7344C15.1194 11.7302 15.1156 11.725 15.1133 11.7191C15.1109 11.7131 15.11 11.7068 15.1105 11.7004C15.1111 11.6941 15.1131 11.688 15.1165 11.6826L15.1171 11.6829Z" fill="#6F674D"/>
<path fill-rule="evenodd" clip-rule="evenodd" d="M8.54688 11.8387C8.54688 11.8387 8.73888 11.9827 8.96192 11.9771C9.18272 11.9721 9.46671 11.7441 9.59775 11.5984C9.67535 11.5134 9.74175 11.4236 9.81375 11.3532C9.87455 11.2926 9.91568 11.2635 9.9448 11.2222C9.98608 11.1742 10.0298 11.084 10.0517 11.0547C9.99823 11.096 9.92063 11.1689 9.84047 11.2174C9.76287 11.2654 9.59536 11.3556 9.52736 11.38C9.46192 11.4043 8.78224 11.764 8.78224 11.764L8.54688 11.8387Z" fill="#AC924C"/>
<path fill-rule="evenodd" clip-rule="evenodd" d="M8.83594 10.0458C8.83594 10.0458 8.94266 9.973 9.14906 9.92676C9.3481 9.87876 9.74858 9.8418 9.74858 9.8418L10.0787 9.9858L10.2097 10.4834L9.9697 11.0005L9.66394 11.1925L9.31674 10.6343L8.83674 10.0468L8.83594 10.0458Z" fill="#9F8E57"/>
<path fill-rule="evenodd" clip-rule="evenodd" d="M8.4033 10.4906L8.28906 10.5758C8.28906 10.5758 8.31834 10.5224 8.3425 10.3598C8.36666 10.1973 8.49306 9.8016 8.67754 9.57344C8.86202 9.34528 8.85722 9.35744 8.85722 9.35744C8.84025 9.35434 8.8228 9.35489 8.80606 9.35905C8.78931 9.36322 8.77364 9.3709 8.7601 9.3816C8.78442 9.32784 8.93978 9.13584 9.09514 9.03984C9.2505 8.94384 9.31114 8.9136 9.4737 8.99184C9.63626 9.07008 9.67754 9.11072 9.79658 9.10592C9.91562 9.10112 10.0174 8.97488 10.0174 8.97488C10.0174 8.97488 10.0417 9.05248 9.95194 9.23216C9.86218 9.41184 9.50778 9.77824 9.50778 9.77824L8.76986 10.283L8.4033 10.491V10.4906Z" fill="#EAC970"/>
<path fill-rule="evenodd" clip-rule="evenodd" d="M8.95377 9.98567C8.95377 9.98567 9.48785 10.0585 9.65041 9.90807C9.65521 9.92503 9.67473 9.92503 9.67473 9.93719C9.67342 9.94635 9.66915 9.95483 9.66257 9.96134C9.68025 9.95852 9.6981 9.95692 9.716 9.95655C9.73738 9.96291 9.75937 9.96698 9.78161 9.96871C9.79951 9.96832 9.81737 9.96666 9.83504 9.96375C9.83336 9.97581 9.82926 9.98741 9.82299 9.99786C9.81672 10.0083 9.80842 10.0174 9.79857 10.0245C9.82289 10.0245 9.84657 10.0293 9.84657 10.0487C9.84657 10.0681 9.85137 10.1265 9.82225 10.1386C9.79812 10.1453 9.77244 10.1435 9.74945 10.1337C9.75137 10.1796 9.76385 10.2245 9.78592 10.2649C9.83392 10.3546 9.93632 10.4569 10.0739 10.4274C10.0739 10.4274 10.1466 10.6021 9.84081 10.9905C9.79969 11.0439 9.75585 11.1167 9.70257 11.1773C9.68151 11.2232 9.66542 11.2712 9.65457 11.3205C9.65457 11.3205 10.1717 11.1215 10.3197 10.6676C10.4702 10.2113 10.4994 9.76231 10.4702 9.34246C10.4653 9.22342 10.4459 9.13863 10.4168 9.07783C10.344 8.92727 10.14 8.95159 10.0576 9.03655C9.93857 9.15559 9.73953 9.45158 9.46289 9.65542C9.18129 9.85926 9.16929 9.89543 8.95312 9.98567H8.95377Z" fill="#D7BC6B"/>
<path fill-rule="evenodd" clip-rule="evenodd" d="M8.31105 10.6411C8.31105 10.6411 8.20913 10.7017 8.15569 10.9291C8.10225 11.162 8.20369 11.446 8.26241 11.5358C8.32113 11.6255 8.45441 11.8708 8.73089 11.883C8.79932 11.8826 8.86699 11.8686 8.92993 11.8417C9.02644 11.7974 9.11698 11.7412 9.19937 11.6742C9.31841 11.5844 9.41537 11.5068 9.40321 11.4995C9.37409 11.4873 8.67025 10.9047 8.67025 10.9047L8.40561 10.6094L8.31089 10.6414L8.31105 10.6411Z" fill="#585136"/>
<path fill-rule="evenodd" clip-rule="evenodd" d="M8.97257 11.6066C8.97257 11.6066 9.11577 11.5946 9.20073 11.5412C9.28569 11.4878 8.70312 10.9102 8.70312 10.9102L8.74441 11.5342L8.97257 11.6066Z" fill="#453A25"/>
<path fill-rule="evenodd" clip-rule="evenodd" d="M8.35645 10.5969C8.35645 10.5969 8.28365 10.7353 8.28365 10.7718C8.27149 10.8907 8.30797 11.2644 8.33709 11.3833C8.36621 11.5096 8.52397 11.7012 8.72797 11.7012C8.85405 11.7012 9.02893 11.6236 9.02893 11.6043C9.02893 11.58 8.84925 11.5563 8.80077 11.4659C8.77165 11.4179 8.75949 11.2985 8.75277 11.1779C8.74797 11.1003 8.74797 11.0153 8.77709 10.9859C8.84269 10.9131 8.85469 10.7043 8.85469 10.7043L9.08765 10.2715H8.78125L8.41469 10.4996L8.35645 10.5969Z" fill="#84754B"/>
<path fill-rule="evenodd" clip-rule="evenodd" d="M8.26562 10.7291C8.26562 10.7291 8.50563 10.4112 8.72195 10.3382C8.93827 10.2652 9.03507 10.3091 9.03507 10.3091L8.90883 10.632L8.72914 10.831L8.7413 10.9329C8.7413 10.9329 8.71203 11.2024 8.89171 11.3892C9.07139 11.5761 9.20482 11.5689 9.28259 11.5689C9.36035 11.5689 9.58355 11.5033 9.69763 11.2339C9.79955 10.9816 9.88451 10.6579 9.68067 10.3334C9.48147 10.0105 9.12963 9.99805 9.06163 9.99805C8.99363 9.99805 8.45971 10.0248 8.26562 10.7286V10.7291Z" fill="#252211"/>
<path fill-rule="evenodd" clip-rule="evenodd" d="M14.4288 11.8092C14.3391 11.7679 14.424 11.5156 14.5138 11.4378C14.6035 11.3601 14.7176 11.2705 14.9168 11.2582C14.9895 11.2534 15.0599 11.2994 15.0479 11.3481C15.0309 11.4378 14.9047 11.5641 14.7906 11.6538C14.6328 11.7777 14.5307 11.8553 14.4288 11.8092Z" fill="#F7F7E7"/>
<path fill-rule="evenodd" clip-rule="evenodd" d="M9.57724 10.4339C9.64284 10.4291 9.72779 10.4819 9.74475 10.5529C9.76171 10.6305 9.70348 10.7859 9.57724 10.7859C9.47532 10.7859 9.42188 10.6597 9.42188 10.6233C9.42302 10.5935 9.43137 10.5643 9.4462 10.5384C9.451 10.531 9.46316 10.4461 9.57724 10.4339Z" fill="#F8F6DE"/>
<path fill-rule="evenodd" clip-rule="evenodd" d="M8.63204 10.4902C8.63204 10.4902 8.46452 10.5678 8.38692 10.7302C8.33147 10.8502 8.3147 10.9844 8.33892 11.1142C8.35108 11.1749 8.41172 11.3253 8.453 11.3787C8.49428 11.4322 8.55012 11.4686 8.5914 11.4637C8.63268 11.4587 8.71748 11.3496 8.71748 11.2842C8.71748 11.2187 8.72244 10.9419 8.80244 10.7914C8.87284 10.641 8.63252 10.4904 8.63252 10.4904L8.63204 10.4902Z" fill="#D4C38B"/>
<path fill-rule="evenodd" clip-rule="evenodd" d="M8.65341 10.4766C8.62429 10.4935 8.57581 10.5179 8.58781 10.5494C8.59997 10.5785 8.70189 10.5974 8.73837 10.6684C8.77965 10.7412 8.77965 10.8188 8.76749 10.8553C8.79919 10.8402 8.82796 10.8197 8.85245 10.7945C8.90589 10.7339 8.97133 10.6515 9.02717 10.6515C9.06365 10.6515 9.09997 10.6684 9.13405 10.6684C9.18749 10.6684 9.24077 10.6515 9.24813 10.5956C9.26013 10.5228 9.14621 10.4572 9.08061 10.4694C9.09277 10.4214 9.10973 10.3505 9.05629 10.3019C9.00285 10.2532 8.83549 10.3383 8.79901 10.3627C8.76253 10.387 8.65341 10.4767 8.65341 10.4767V10.4766Z" fill="#E2D59D"/>
<path fill-rule="evenodd" clip-rule="evenodd" d="M12.5092 15.5768L12.8684 15.4707L12.9704 15.5435C12.9704 15.5435 13.043 15.6989 13.1572 15.7182C13.1208 15.7958 13.026 15.8622 13.031 15.9173C13.036 15.9723 13.0844 16.0144 13.0844 16.0144C13.0844 16.0144 12.7616 16.5483 13.3976 17.0864C13.247 17.147 13.0553 17.2304 12.9534 17.2784C13.026 17.2953 13.1814 17.3264 13.247 17.3853C13.3126 17.4441 13.3126 17.4629 13.3732 17.4993C13.4339 17.5358 13.4702 17.5843 13.4582 17.6061C13.4169 17.5817 13.2785 17.5091 13.2544 17.5769C13.2302 17.6448 12.6548 17.6182 12.6548 17.6182L11.684 17.8051C11.684 17.8051 11.7203 17.708 11.6184 17.6182C11.4995 17.5115 11.3539 17.623 11.1985 17.5041C10.9947 17.3488 10.9873 17.1691 10.9219 17.1013C10.9873 17.06 11.1209 16.9993 11.4388 16.9573C11.4267 16.9329 11.3854 16.8601 11.4097 16.7947C11.4388 16.7097 11.5601 16.6563 11.5238 16.5547C11.5772 16.5425 11.6014 16.5425 11.735 16.375C11.8612 16.2075 11.9388 16.1712 12.036 16.159C12.1331 16.1469 12.1913 16.159 12.371 15.9915C12.4971 15.8726 12.456 15.7707 12.456 15.7707C12.456 15.7707 12.5384 15.744 12.5094 15.5765L12.5092 15.5768Z" fill="#CBAC5A"/>
<path fill-rule="evenodd" clip-rule="evenodd" d="M11.4454 15.6305C11.4502 15.6062 11.4697 15.594 11.6007 15.6062C11.7318 15.6183 12.5619 15.5286 12.7876 15.5164C13.0158 15.4994 13.8191 15.5114 14.21 15.594C14.6009 15.6766 14.9964 15.7737 15.1881 15.8222C15.3801 15.8756 15.4406 15.8948 15.4332 15.9191C15.4284 15.9434 15.3852 15.9671 15.3604 15.9604C15.3363 15.9556 14.7003 15.7614 14.5038 15.7204C14.3073 15.6794 13.6275 15.5698 13.2558 15.5764C12.9087 15.5814 12.7703 15.5716 12.4767 15.6055C12.183 15.642 11.6975 15.6905 11.5519 15.6711C11.4079 15.6542 11.4377 15.6542 11.4451 15.6298L11.4454 15.6305Z" fill="#D6BC6F"/>
<path fill-rule="evenodd" clip-rule="evenodd" d="M13.4047 17.5333C13.4047 17.5333 13.9023 17.8027 14.082 18.1328C14.213 18.3779 14.0044 18.4994 14.0044 18.4994C14.0044 18.4994 14.286 18.4994 14.2495 18.6547C14.2325 18.7517 13.764 19.0138 13.4509 19.1522C13.133 19.2906 13.1452 19.2834 12.9898 19.3075C12.8392 19.3319 12.4266 19.2595 12.3416 19.3803C12.2567 19.5011 12.2936 19.6256 12.3173 19.645C12.3416 19.6619 12.5383 19.6863 12.5383 19.6863C12.5383 19.6863 12.497 19.8003 12.0893 19.8125C11.6816 19.8247 11.5796 19.8536 11.5552 19.8975C11.5309 19.9386 11.6328 19.9144 11.8199 19.9455C12.0068 19.9746 12.2688 19.9935 12.2688 19.9935C12.2688 19.9935 12.1839 20.0663 11.9631 20.1245C11.7106 20.1899 11.3149 20.2507 11.196 20.3235C11.2567 20.3648 11.3466 20.4255 11.388 20.4303C11.2861 20.4546 11.1428 20.508 11.1186 20.5274C11.1549 20.5517 11.2036 20.5808 11.2036 20.5808C11.2036 20.5808 10.9996 20.8259 10.8807 20.8867C10.7618 20.9475 10.0773 21.2653 9.84179 21.2047C9.25443 21.0493 9.18163 20.4061 9.03843 20.3576C8.82243 20.2848 8.72051 20.4303 8.52867 20.3283C8.61363 20.2677 8.65987 20.2314 8.74963 20.1901C8.65251 20.1421 8.15011 19.8235 8.15011 19.8235C8.09758 19.709 8.03926 19.5973 7.97539 19.4887C7.87827 19.3211 7.73539 19.0978 7.62819 18.9011C7.39523 18.4691 7.38307 18.2701 7.17188 18.025C7.20835 17.977 7.33444 17.9837 7.33444 17.9837L9.10404 18.5663L12.2418 18.6571L13.0578 17.4922L13.4048 17.5335L13.4047 17.5333Z" fill="#DFC677"/>
<path fill-rule="evenodd" clip-rule="evenodd" d="M8.75781 19.3094C8.77675 19.3305 8.79882 19.3485 8.82325 19.3628C8.88405 19.4041 8.97381 19.4528 9.03445 19.5254C9.05877 19.4891 9.11941 19.4235 9.22645 19.5254C9.33349 19.6273 9.46645 19.5547 9.54917 19.5788C9.63413 19.6081 9.63893 19.6201 9.63893 19.6201C9.63893 19.6201 9.68693 19.5788 9.79429 19.5352C9.85989 19.5108 9.93749 19.4939 10.0225 19.4697C10.1001 19.4528 10.185 19.4284 10.2434 19.4284C10.2969 19.4648 10.4885 19.6684 11.258 19.3678C11.9837 19.0862 12.1511 19.0547 12.2725 19.0982C12.2847 19.0691 12.2969 19.0132 12.4837 19.0206C12.4837 18.943 12.3284 18.6784 12.3284 18.6784L11.4716 18.3848H11.0029L9.59765 18.642L8.81893 19.0864L8.75829 19.3104L8.75781 19.3094Z" fill="#C4A859"/>
<path fill-rule="evenodd" clip-rule="evenodd" d="M8.28906 18.8173C8.28906 18.8173 8.30602 18.9484 8.50026 19.0868C8.69226 19.225 8.75258 19.3076 8.75258 19.3076C8.75258 19.3076 8.78906 19.2596 8.81818 19.2106C8.8473 19.1572 8.87162 19.0965 8.9201 19.0796C9.01722 19.0383 9.23802 19.1159 9.28666 19.1037C9.32794 19.0917 9.31578 19.0068 9.35946 19.0068C9.46138 19.0018 9.52682 19.0722 9.5633 19.0722C9.59978 19.0722 9.68938 19.0674 9.70154 19.048C9.7137 19.0287 9.7185 18.8271 9.8569 18.73C10.0075 18.6232 10.1919 18.6693 10.2409 18.6936C10.2409 18.73 10.2457 18.8199 10.3428 18.8247C10.4399 18.8295 10.4495 18.8125 10.5348 18.8416C10.6201 18.8708 10.7217 18.8368 10.7678 18.9799C10.8091 18.9679 10.9062 18.9557 10.8819 18.8173C10.9299 18.781 10.9718 18.7567 11.0739 18.6135C11.0982 18.5772 11.1393 18.5359 11.171 18.4824C11.2559 18.4824 11.3579 18.4655 11.4937 18.5844C11.4524 18.6135 11.4281 18.6324 11.4161 18.662C11.4516 18.6971 11.4841 18.7353 11.5131 18.776C11.5495 18.824 11.5739 18.8829 11.6199 18.8951C11.7219 18.9242 11.8894 18.8829 12.0763 18.8951C12.2559 18.9072 12.4063 18.9727 12.4719 19.014C12.4963 19.002 12.4963 18.997 12.5569 19.0092C12.6175 19.0213 12.6636 19.0261 12.5982 18.9485C12.6345 18.9655 12.6758 19.002 12.7123 18.9655C12.7487 18.929 12.7777 18.8757 12.8796 18.8636C12.9815 18.8514 13.018 18.8684 13.0593 18.7616C13.1127 18.6306 12.9283 18.6306 12.9283 18.6306C12.9283 18.6306 13.0132 18.5528 13.1079 18.4509C13.222 18.3442 13.3531 18.2058 13.3846 18.0359C13.438 17.7228 13.1323 17.6816 13.1323 17.6816L11.6492 18.138L9.8361 18.048L8.29002 18.8175L8.28906 18.8173Z" fill="#927D49"/>
<path fill-rule="evenodd" clip-rule="evenodd" d="M6.95651 14.5331C6.95651 14.5331 6.90851 14.5938 6.87891 14.737C6.84931 14.8802 6.86195 14.8632 6.83763 14.9651C6.81331 15.067 6.51459 16.0816 6.62659 16.4238C6.73859 16.7661 6.93251 16.8923 7.05379 17.169C7.07811 17.2296 7.10179 17.2661 7.11443 17.3195C7.15571 17.499 7.11939 17.6374 7.16787 17.8171C7.18483 17.8778 7.22867 17.9482 7.29411 18.021C7.43811 18.1714 7.67283 18.3146 7.77411 18.4165C7.91715 18.567 8.12115 18.873 8.38083 18.9019C8.51923 18.9189 8.71587 18.8606 8.87843 18.7637C9.02243 18.6738 9.11139 18.5477 9.26243 18.4757C9.36915 18.4222 9.48323 18.4029 9.58515 18.3786C9.79635 18.3373 9.98819 18.3306 10.1023 18.3542C10.277 18.3907 10.6896 18.517 10.9183 18.517C11.0969 18.5141 11.2746 18.4896 11.4474 18.4442C11.7944 18.3422 12.2143 18.1674 12.4911 18.0898C12.6536 18.0418 12.7847 18.0291 12.9183 18C13.1464 17.9466 13.3381 17.8738 13.4474 17.7354C13.3746 17.6504 13.2848 17.5194 12.7992 17.5242C12.2484 17.5363 11.6124 17.8421 11.2992 17.8907C10.9861 17.9394 10.8503 17.9805 10.5007 17.8542C10.158 17.7267 10.1466 17.6424 10.1466 17.6424C10.1466 17.6424 9.78675 17.3907 9.63619 16.7491C9.48563 16.1075 9.63619 15.64 10.0271 15.1957C10.129 15.0816 10.1047 14.9797 10.1047 14.9797C10.1047 14.9797 10.362 14.6326 10.2916 14.3077C10.214 13.9848 9.71635 14.0504 9.71635 14.0504L6.95667 14.5331H6.95651Z" fill="#6E6342"/>
<path fill-rule="evenodd" clip-rule="evenodd" d="M7.36539 15.6133C7.34399 15.6535 7.33393 15.6988 7.33627 15.7443C7.34107 15.8098 7.36059 15.8947 7.55707 16.0866C7.72459 16.2539 7.68811 16.4408 7.68811 16.4408C7.68811 16.4408 7.77243 16.4578 8.00123 16.3507C8.18091 16.2658 8.24123 16.4163 8.24123 16.4163C8.29353 16.3889 8.35023 16.3708 8.40875 16.3629C8.46178 16.358 8.5131 16.3416 8.55915 16.3149C8.55915 16.3149 8.77035 16.5309 8.95483 16.6328C9.12235 16.7227 9.21947 16.7834 9.30203 16.7227C9.37963 16.6693 9.37963 16.56 9.37467 16.5115C9.35542 16.4668 9.33104 16.4244 9.30203 16.3853C9.24859 16.3077 9.16363 16.2178 9.15803 16.1453C9.14587 15.9779 9.28427 15.7787 9.25499 15.7302C9.22571 15.6818 9.11675 15.6696 8.84731 15.7667C8.56827 15.8589 7.36427 15.6138 7.36427 15.6138L7.36539 15.6133Z" fill="#39331F"/>
<path fill-rule="evenodd" clip-rule="evenodd" d="M8.00632 16.6988C8.00632 16.6988 7.86808 16.5677 7.91656 15.9317C7.97525 15.9309 8.03385 15.9366 8.09128 15.9487C8.09128 15.9487 8.16664 16.4415 8.00632 16.6988Z" fill="#292311"/>
<path fill-rule="evenodd" clip-rule="evenodd" d="M7.01971 14.0477C7.039 14.0334 7.0569 14.0174 7.07315 13.9997C7.02515 14.0895 6.80355 14.4487 6.98323 15.0143C7.16291 15.5773 7.61427 15.9971 8.17011 16.0167C8.72595 16.0362 9.01811 15.7642 9.35219 15.3565C9.48323 15.1939 9.63379 14.9899 9.76723 14.8517C9.96627 14.6355 10.1216 14.5749 10.1216 14.3663C10.1216 13.9391 9.68467 13.7472 9.04147 13.5555C8.39827 13.3639 7.81811 13.3875 7.51715 13.5187C7.22355 13.6618 7.09731 13.8123 7.01955 14.0479L7.01971 14.0477Z" fill="#252211"/>
<path fill-rule="evenodd" clip-rule="evenodd" d="M9.08642 16.891L9.13442 16.8667C9.13442 16.8667 9.14642 16.6747 9.22418 16.6798C9.30178 16.6919 9.33826 16.794 9.3309 16.8303C9.3261 16.8667 9.30674 16.9275 9.22898 16.9201C9.12706 16.9225 9.08594 16.891 9.08594 16.891H9.08642Z" fill="#3F3824"/>
<path fill-rule="evenodd" clip-rule="evenodd" d="M8.86719 16.0746C8.86719 16.0746 8.91519 16.0576 8.97391 16.1158C9.02191 16.1158 9.23119 16.0915 9.29679 16.1328C9.36239 16.1741 9.38175 16.2104 9.38175 16.2104C9.38175 16.2104 9.13663 16.2638 9.00303 16.2104C8.86719 16.1643 8.86719 16.0746 8.86719 16.0746Z" fill="#2D2815"/>
<path fill-rule="evenodd" clip-rule="evenodd" d="M9.94604 16.1115C9.94604 16.0993 9.815 16.0096 9.6766 15.9803C9.65228 15.9755 9.64732 15.9925 9.6286 15.9925C9.61644 15.9877 9.61164 15.9512 9.61164 15.9512L9.53292 15.9926C9.53292 15.9926 9.52076 16.0096 9.56204 16.0406C9.59836 16.0697 9.65916 16.0941 9.67612 16.1425C9.69308 16.191 9.69308 16.208 9.70044 16.2153C9.70524 16.2201 9.7902 16.2153 9.83148 16.191C9.87276 16.1667 9.95052 16.127 9.94556 16.111L9.94604 16.1115Z" fill="#82764F"/>
<path fill-rule="evenodd" clip-rule="evenodd" d="M8.72656 16.6031C8.72656 16.6031 8.75072 16.4357 8.91344 16.4284C9.0808 16.4162 9.11248 16.5788 9.11248 16.5788L9.01536 16.6759C9.01536 16.6735 8.94256 16.5716 8.72736 16.6031H8.72656Z" fill="#2D2816"/>
<path fill-rule="evenodd" clip-rule="evenodd" d="M9.77772 15.8824C9.77772 15.8824 9.6878 15.9795 9.48892 16.0086C9.47196 15.9843 9.43548 15.9358 9.48892 15.8582C9.54236 15.7806 9.603 15.7563 9.66364 15.7804C9.6904 15.7848 9.71536 15.7967 9.73557 15.8147C9.75578 15.8328 9.77041 15.8563 9.77772 15.8824Z" fill="#574F35"/>
<path fill-rule="evenodd" clip-rule="evenodd" d="M10.1427 16.0017C10.1476 15.9774 10.1307 15.9726 10.1427 15.9604C10.1547 15.9482 10.2204 15.9241 10.2326 15.9361C10.2374 15.941 10.2326 15.9604 10.2326 15.9841C10.2326 16.0078 10.2326 16.0321 10.2204 16.0495C10.2035 16.0738 10.155 16.086 10.1307 16.0788C10.1064 16.0716 10.1016 16.0375 10.1016 16.0308C10.1136 16.026 10.1427 16.0138 10.1427 16.0017ZM10.5571 15.7396C10.5571 15.7274 10.5984 15.7031 10.6227 15.7031C10.659 15.7031 10.659 15.7322 10.664 15.7396C10.676 15.7444 10.676 15.7346 10.6881 15.7566C10.7003 15.7785 10.7174 15.8172 10.7051 15.8415C10.6928 15.8658 10.6444 15.8826 10.6324 15.8778C10.6155 15.8657 10.562 15.7566 10.5571 15.7396Z" fill="#82764F"/>
<path fill-rule="evenodd" clip-rule="evenodd" d="M9.72656 16.0568C9.72656 16.0568 9.78 16.0688 9.8528 16.1296C9.82848 16.1466 9.792 16.1659 9.792 16.1659C9.792 16.1659 9.7872 16.1101 9.72656 16.0566V16.0568Z" fill="#6E6342"/>
<path fill-rule="evenodd" clip-rule="evenodd" d="M9.60348 15.5228C9.59132 15.5108 9.6398 15.4816 9.66892 15.4864C9.69804 15.4912 9.7102 15.5108 9.74172 15.5156C9.77324 15.5204 9.7782 15.5034 9.78972 15.4912C9.80124 15.4791 9.84316 15.4864 9.85036 15.4912C9.85485 15.4966 9.85891 15.5022 9.86252 15.5082C9.86303 15.499 9.86544 15.4899 9.86959 15.4817C9.87375 15.4734 9.87957 15.4661 9.88668 15.4602C9.89599 15.4534 9.90673 15.4487 9.91809 15.4466C9.92945 15.4445 9.94114 15.445 9.95228 15.448C9.95708 15.465 9.9814 15.5256 9.9766 15.5378C9.9718 15.55 9.899 15.5671 9.88668 15.5548C9.89884 15.584 9.95228 15.6447 9.95948 15.6567C9.96668 15.6687 9.90604 15.698 9.88188 15.6932C9.84796 15.6908 9.63916 15.5693 9.60284 15.5232L9.60348 15.5228ZM9.9214 15.1199C9.91691 15.1077 9.90831 15.0974 9.89708 15.0908C9.88012 15.086 9.82428 15.0908 9.82428 15.1199C9.82428 15.149 9.87228 15.3119 9.9262 15.3967C9.987 15.4816 10.0281 15.5519 10.0694 15.5714C10.0824 15.5773 10.0971 15.5781 10.1106 15.5736C10.1241 15.5691 10.1354 15.5596 10.1422 15.5471C10.147 15.5349 10.1592 15.4452 10.1544 15.234C10.1496 15.0228 10.1422 14.8189 10.13 14.8068C10.1179 14.7946 10.0694 14.7948 10.0524 14.8189C10.0355 14.8431 9.9262 15.0836 9.92124 15.1199H9.9214Z" fill="#585136"/>
<path fill-rule="evenodd" clip-rule="evenodd" d="M9.70913 16.3637C9.70913 16.3637 9.62417 16.3102 9.54161 16.3467C9.46401 16.3832 9.46881 16.5264 9.46881 16.5264C9.48627 16.5332 9.50513 16.5357 9.52376 16.5336C9.54238 16.5315 9.56021 16.5248 9.57569 16.5142C9.62913 16.4779 9.69697 16.4173 9.70913 16.3638V16.3637Z" fill="#574F35"/>
<path fill-rule="evenodd" clip-rule="evenodd" d="M9.86831 16.5543C9.86351 16.5063 9.82031 16.5063 9.82031 16.4815C9.82329 16.4696 9.83016 16.4591 9.83982 16.4516C9.84948 16.4441 9.86137 16.4401 9.87359 16.4402C9.89791 16.4402 9.92159 16.4693 9.95135 16.4882C9.98047 16.5051 10.0242 16.5362 10.029 16.5731C10.0338 16.6101 9.98095 16.7114 9.92223 16.7114C9.86351 16.7114 9.88095 16.6021 9.86879 16.5536L9.86831 16.5543ZM10.3368 16.4887C10.3368 16.4887 10.2397 16.5178 10.2469 16.4887C10.2541 16.4595 10.2762 16.4523 10.3077 16.4523C10.3237 16.4356 10.3452 16.4252 10.3683 16.4231C10.3815 16.4224 10.3945 16.4268 10.4046 16.4352C10.4046 16.4352 10.4702 16.4061 10.4896 16.4231C10.509 16.44 10.4946 16.44 10.5066 16.4595C10.5218 16.4812 10.5319 16.5061 10.5358 16.5323C10.5358 16.5517 10.463 16.593 10.4046 16.5858C10.3368 16.5712 10.3488 16.5008 10.3368 16.4887ZM10.9022 16.3794C10.9022 16.3794 10.9314 16.3963 10.9072 16.4159C10.8902 16.4328 10.8053 16.4639 10.7323 16.4693C10.6595 16.4693 10.5941 16.4813 10.5941 16.4571C10.5941 16.433 10.6547 16.3843 10.691 16.3722C10.6983 16.3631 10.7076 16.3557 10.7181 16.3507C10.7286 16.3456 10.7402 16.343 10.7518 16.3431C10.781 16.3431 10.8949 16.3309 10.9266 16.3261C10.9557 16.3211 10.98 16.3381 10.9629 16.3624C10.9557 16.3794 10.9022 16.3794 10.9022 16.3794ZM11.0698 15.6299C11.0698 15.6299 11.0333 15.7075 10.9922 15.7075C10.9509 15.7027 10.9509 15.6906 10.9509 15.6784C10.9509 15.6615 10.9922 15.6178 10.9872 15.6056C10.9752 15.6056 10.9459 15.6056 10.9509 15.5765C10.9509 15.5522 10.9922 15.5231 11.0285 15.5285C11.0559 15.506 11.0901 15.4932 11.1256 15.4922C11.1669 15.4922 11.2032 15.5042 11.2032 15.5285C11.2032 15.5528 11.1552 15.6061 11.1376 15.6184C11.1182 15.6378 11.0939 15.6504 11.0698 15.6304V15.6299ZM10.5163 17.0643C10.5163 17.0643 10.4683 17.0693 10.4683 17.0935C10.4683 17.1056 10.4803 17.1056 10.4974 17.0984C10.5073 17.0979 10.5171 17.0962 10.5266 17.0935C10.5314 17.0984 10.5314 17.1226 10.5678 17.1226C10.5978 17.1185 10.6267 17.1086 10.6528 17.0935C10.6819 17.0815 10.7062 17.0691 10.7062 17.0455C10.6941 17.0042 10.6698 16.9847 10.6334 16.9847C10.6148 16.9835 10.5963 16.9877 10.58 16.9968C10.58 16.9968 10.5678 16.9725 10.5266 16.9968C10.4853 17.0211 10.4901 17.0211 10.5022 17.0333C10.524 17.0527 10.5168 17.0653 10.5168 17.0653L10.5163 17.0643ZM10.2421 17.3168C10.2421 17.3047 10.3027 17.2803 10.3197 17.2877C10.3366 17.2925 10.3851 17.3847 10.3851 17.3944C10.3851 17.4066 10.3245 17.4357 10.3002 17.4357C10.2758 17.4357 10.2347 17.3944 10.2347 17.3877C10.2347 17.3829 10.2638 17.3757 10.2638 17.3707C10.271 17.3587 10.2421 17.3295 10.2421 17.3173V17.3168ZM10.0501 16.9624C10.0622 16.9576 10.0622 16.9455 10.0792 16.9333C10.0845 16.9298 10.0906 16.9275 10.0969 16.9267C10.1032 16.9258 10.1096 16.9265 10.1157 16.9285C10.12 16.9209 10.1259 16.9143 10.133 16.9092C10.1402 16.9042 10.1483 16.9007 10.157 16.8992C10.1861 16.8944 10.2104 16.8992 10.205 16.9114C10.205 16.9479 10.2293 16.972 10.2293 17.0011C10.2293 17.0303 10.2123 17.0667 10.1517 17.0911C10.091 17.108 10.0085 17.108 9.99631 17.1032C9.98415 17.0984 9.97199 17.0498 9.98415 17.0255C9.99631 17.0011 10.0302 16.9746 10.0498 16.9624H10.0501Z" fill="#82764F"/>
<path fill-rule="evenodd" clip-rule="evenodd" d="M10.1243 16.9805C10.1243 16.9805 10.083 17.0048 10.083 17.0169C10.0793 17.0287 10.0777 17.041 10.0782 17.0533C10.0782 17.0605 10.1316 17.0485 10.1388 17.0411C10.1412 17.0363 10.1243 16.9931 10.1243 16.9805Z" fill="#6E6342"/>
<path fill-rule="evenodd" clip-rule="evenodd" d="M9.76338 16.8662C9.78754 16.8712 9.82882 16.8662 9.86034 16.8784C9.88466 16.8905 9.90162 16.9148 9.8773 16.944C9.85298 16.9731 9.8293 17.0168 9.77538 17.0094C9.71474 17.0046 9.6565 16.9731 9.6565 16.9488C9.65549 16.9334 9.65753 16.9179 9.66253 16.9034C9.66753 16.8888 9.67538 16.8753 9.68562 16.8638C9.70994 16.8444 9.72194 16.8566 9.76322 16.8662H9.76338Z" fill="#585136"/>
<path fill-rule="evenodd" clip-rule="evenodd" d="M9.73884 16.8906C9.73884 16.8906 9.66124 16.9513 9.64172 16.9805C9.6174 17.0097 9.49852 17.1601 9.4622 17.1916C9.47427 17.1703 9.48802 17.15 9.50332 17.1309C9.45532 17.1616 9.41934 17.2079 9.4014 17.262C9.37228 17.3519 9.56412 17.4004 9.6902 17.4369C9.81628 17.4733 9.86508 17.4849 9.86508 17.4849C9.81866 17.4151 9.77881 17.3412 9.74604 17.2641C9.69804 17.15 9.67324 17.1378 9.70476 17.0844C9.72908 17.0309 9.76556 16.9946 9.76556 16.9533C9.751 16.9149 9.73884 16.8906 9.73884 16.8906Z" fill="#574F35"/>
<path fill-rule="evenodd" clip-rule="evenodd" d="M6.96907 17.081C6.98674 17.0843 7.00484 17.0843 7.02251 17.081C7.05883 17.0761 7.43755 16.937 7.83323 16.962C8.12944 16.9799 8.42303 17.0281 8.70939 17.106C9.20699 17.237 9.82587 17.4967 10.2263 17.6449C10.3331 17.686 10.4375 17.7589 10.5143 17.7879C10.8203 17.9069 10.8323 17.9069 11.0119 17.9385C11.2231 17.9676 11.4391 17.8972 11.6649 17.8487C11.9415 17.7879 12.4148 17.7588 12.8299 17.6981C12.9641 17.6795 13.0965 17.6495 13.2255 17.6084C13.2255 17.6084 12.8955 17.9385 12.1041 18.0573C11.7842 18.1059 11.4592 18.11 11.1382 18.0695C10.8857 18.0452 10.7183 18.0087 10.5921 17.9724C10.4489 17.9311 10.1552 17.8218 9.79355 17.7324C9.54107 17.6668 9.25947 17.6183 8.93675 17.5577C8.14059 17.4119 7.27659 17.2445 6.96875 17.082L6.96907 17.081Z" fill="#252211"/>
<path fill-rule="evenodd" clip-rule="evenodd" d="M6.08121 15.582C5.88921 15.7446 5.68553 15.9 5.48665 16.0504L4.88713 16.511C4.68329 16.6614 4.48425 16.8168 4.28025 16.9673C4.07625 17.1179 3.87257 17.2609 3.65625 17.3993C3.84825 17.2368 4.05193 17.0862 4.25577 16.9382C4.45961 16.7902 4.67097 16.6451 4.86761 16.495L5.46713 16.0337C5.67337 15.8833 5.87241 15.728 6.08121 15.5824V15.582ZM5.02057 17.2811C5.02057 17.2811 5.23657 17.1014 5.50601 16.8491C5.84089 16.5361 6.25113 16.1355 6.38217 16.0628L5.02041 17.2812L5.02057 17.2811Z" fill="#CFB66C"/>
<path fill-rule="evenodd" clip-rule="evenodd" d="M5.01562 17.28C5.1225 17.1733 5.23659 17.069 5.35067 16.9669L5.52539 16.8165C5.57883 16.7685 5.63963 16.7146 5.69291 16.6611C5.79963 16.5544 5.90411 16.4402 6.01083 16.331C6.06372 16.2762 6.11965 16.2243 6.17835 16.1757C6.20769 16.1497 6.24028 16.1277 6.27531 16.1101C6.30459 16.0931 6.3361 16.0621 6.37723 16.0566C6.35307 16.0931 6.32394 16.1101 6.29962 16.1416C6.2705 16.1659 6.24618 16.195 6.22202 16.2192C6.16858 16.2726 6.10794 16.3211 6.0545 16.3698C5.94042 16.4669 5.82154 16.5618 5.70746 16.6634C5.59338 16.765 5.48666 16.8746 5.37242 16.9765C5.24874 17.081 5.13466 17.1829 5.01562 17.2805V17.28ZM6.46714 16.3091C6.46714 16.3091 5.67595 17.0835 5.51323 17.2096L6.46714 16.3091Z" fill="#CFB66C"/>
<path fill-rule="evenodd" clip-rule="evenodd" d="M6.46954 16.3105C6.39837 16.3929 6.32206 16.4707 6.24106 16.5435L6.00106 16.7717C5.92346 16.8493 5.8505 16.927 5.76811 17.0046C5.68314 17.0774 5.60554 17.1486 5.51562 17.2158L5.74858 16.9877C5.82634 16.9101 5.9113 16.8446 5.99386 16.7669L6.22682 16.5387C6.30682 16.4587 6.38458 16.3809 6.46954 16.3105ZM6.50586 16.7304C6.43293 16.9339 6.347 17.1326 6.24858 17.3251C6.04474 17.7329 5.73898 18.2425 5.60538 18.5024L6.50586 16.7304Z" fill="#CFB66C"/>
<path fill-rule="evenodd" clip-rule="evenodd" d="M6.50745 16.7305C6.50745 16.8202 6.48313 16.898 6.45401 16.9756C6.42563 17.0533 6.39327 17.1294 6.35705 17.2037C6.32057 17.2765 6.27929 17.3543 6.23801 17.4247C6.19673 17.4951 6.14825 17.5677 6.11177 17.6407L5.86665 18.0727C5.78169 18.2167 5.69913 18.3615 5.60938 18.4999C5.67001 18.3445 5.75257 18.1989 5.83033 18.0557C5.91529 17.9117 5.99289 17.7677 6.07033 17.6188C6.10814 17.5446 6.14216 17.4685 6.17225 17.3908C6.20857 17.313 6.24489 17.2402 6.27417 17.1698C6.31049 17.0922 6.33961 17.0193 6.37609 16.949C6.41721 16.8737 6.45129 16.8009 6.50713 16.7305H6.50745Z" fill="#CFB66C"/>
<path fill-rule="evenodd" clip-rule="evenodd" d="M7.36612 18.7207C7.36612 18.7207 7.12612 19.0386 7.15012 19.4415C7.21556 19.2305 7.29812 18.9076 7.36612 18.7207ZM7.59428 19.0394C7.59428 19.0394 7.50932 19.9034 7.43892 20.3282C7.53844 19.8372 7.5578 19.8785 7.59428 19.0394ZM9.18404 20.3793C9.18404 20.3793 8.82485 21.4353 8.81749 21.7287C8.89525 21.4269 9.04564 20.8105 9.18404 20.3785V20.3793Z" fill="#DEC270"/>
<path fill-rule="evenodd" clip-rule="evenodd" d="M10.0234 18.6543C10.0234 18.6543 10.606 19.6154 11.043 20.4357C10.9247 20.0229 10.6527 19.2658 10.0234 18.6543Z" fill="#CBAF59"/>
<path fill-rule="evenodd" clip-rule="evenodd" d="M11.5938 20.0703C11.9136 20.6357 12.202 21.2183 12.4578 21.8154C12.4093 21.4028 12.2781 20.6966 11.5938 20.0703Z" fill="#E3C677"/>
<path fill-rule="evenodd" clip-rule="evenodd" d="M16.1969 21.4866C16.2938 21.426 16.4857 21.0957 16.6532 21.0133C16.8205 20.9284 16.9468 20.9114 17.0973 20.7439C17.2477 20.569 17.2893 20.4623 17.6191 20.324C18.0804 20.1248 17.7631 19.8676 17.7631 19.8676C17.8139 19.8177 17.8682 19.7715 17.9257 19.7293C18.0447 19.6396 18.1829 19.5303 18.1709 19.3384C18.154 19.0157 18.0933 18.5472 17.8287 18.2754C18.086 18.222 18.5786 18.1856 18.8847 18.108C19.2389 18.0181 19.4017 17.8919 19.4017 17.8919C19.4017 17.8919 19.1978 17.5448 19.5279 17.1954C19.858 16.846 20.1274 16.6372 20.3265 16.2463C20.0983 16.2172 19.7505 16.0959 18.8628 16.4332C18.9107 16.4557 18.957 16.4816 19.0012 16.5108C19.0012 16.5108 18.4551 16.6613 18.2561 16.8288C17.9089 17.1224 17.8652 17.3628 17.489 17.5424C17.1129 17.7221 16.7341 17.6735 16.4212 17.8191C16.1082 17.9647 16.062 18.0885 15.9477 18.142C15.9721 18.1711 15.9429 18.2196 15.989 18.2608C15.9599 18.3021 15.79 18.5788 15.6177 18.5788C15.6346 18.6444 15.7802 18.6928 15.7802 18.6928C15.7802 18.6928 15.6735 18.7706 15.4017 18.79C15.5399 18.934 15.6711 19.0909 16.0327 19.3191C16.0036 19.3797 15.8821 19.4696 15.9308 19.5837C15.9842 19.6978 16.1228 19.8532 16.6759 19.9794C16.3943 19.9914 16.0644 20.057 15.6199 19.9964C15.1757 19.9429 15.1029 19.9114 14.8287 19.9794C14.8578 20.0085 14.9354 20.0085 15.0034 20.0861C14.9306 20.0909 14.4743 20.0327 14.3189 20.2367C14.1564 20.4477 14.086 20.7949 14.0981 21.0279C14.0132 21.0692 13.9306 21.142 13.9719 21.2925C14.0132 21.4431 14.2292 21.4916 14.3676 21.5861C14.5058 21.688 14.518 21.7244 14.6492 21.7002C14.7874 21.6711 14.9913 21.5328 15.1103 21.5328C15.2293 21.5328 15.3141 21.6226 15.3141 21.6226C15.3141 21.6226 15.637 21.4672 15.6685 21.4964C15.6977 21.5255 15.6733 21.7124 15.7049 21.7415C15.7369 21.7634 16.1005 21.5474 16.1977 21.4866H16.1969Z" fill="#ECD592"/>
<path fill-rule="evenodd" clip-rule="evenodd" d="M23.2475 11.7741C21.7305 7.85662 17.9804 7.13086 17.9804 7.13086H7.28141L7.32269 11.1211H9.45341V20.0313H7.28125V24.0144H17.6843C20.1915 24.0144 22.2013 21.4949 22.2013 21.4949C25.4197 16.927 23.2473 11.7741 23.2473 11.7741H23.2475ZM17.7401 18.8104C17.7401 18.8104 16.9241 19.9877 16.0363 19.9877H14.2603L14.2182 11.1309H16.4974C16.4974 11.1309 17.5534 11.3517 18.2912 13.4414C18.2912 13.4414 19.2693 16.4334 17.7401 18.8104Z" fill="white" fill-opacity="0.8"/>
</svg>
