<svg width="25" height="26" viewBox="0 0 25 26" fill="none" xmlns="http://www.w3.org/2000/svg">
<g clip-path="url(#clip0_840_6849)">
<path d="M12.5 25.5C19.4036 25.5 25 19.9036 25 13C25 6.09644 19.4036 0.5 12.5 0.5C5.59644 0.5 0 6.09644 0 13C0 19.9036 5.59644 25.5 12.5 25.5Z" fill="black"/>
<path d="M18.2006 5.99805H20.5332L15.6778 11.0323C13.9198 12.855 11.0697 12.855 9.31553 11.0323L4.46013 5.99805H6.7927L10.4799 9.82225C11.5948 10.9752 13.3985 10.9752 14.5096 9.82225L18.2006 5.99805ZM6.76226 20.0011H4.42969L9.31553 14.9326C11.0735 13.1099 13.9236 13.1099 15.6816 14.9326L20.5674 20.0011H18.2349L14.5172 16.1426C13.4023 14.9897 11.5986 14.9897 10.4875 16.1426L6.76226 20.0011Z" fill="white"/>
</g>
<defs>
<clipPath id="clip0_840_6849">
<rect width="25" height="25" fill="white" transform="translate(0 0.5)"/>
</clipPath>
</defs>
</svg>
