<svg width="31" height="31" viewBox="0 0 31 31" fill="none" xmlns="http://www.w3.org/2000/svg">
<path d="M30.1386 15.4638C30.1386 23.7045 23.4584 30.3849 15.2178 30.3849C6.97718 30.3849 0.296875 23.7045 0.296875 15.4638C0.296875 7.22327 6.97718 0.542969 15.2178 0.542969C23.4583 0.542969 30.1386 7.22327 30.1386 15.4638Z" fill="white"/>
<path fill-rule="evenodd" clip-rule="evenodd" d="M24.5146 22.6222V22.4095H24.4591L24.3949 22.5558L24.3308 22.4095H24.2752V22.6222H24.3143V22.4617L24.3746 22.6003H24.4153L24.4756 22.4613V22.6222H24.5146ZM24.1229 22.6222V22.4457H24.0517V22.4097H24.2333V22.4457H24.1618V22.6222H24.1229ZM23.8377 21.3298C23.6905 21.2327 23.4873 21.1828 23.2632 21.1828C22.9069 21.1828 22.677 21.3534 22.677 21.6325C22.677 21.8619 22.8478 22.003 23.163 22.0471L23.3075 22.0676C23.4753 22.0912 23.5549 22.1353 23.5549 22.2145C23.5549 22.3234 23.4429 22.3851 23.2338 22.3851C23.0217 22.3851 22.8686 22.3175 22.7654 22.2383L22.621 22.4762C22.789 22.5997 23.0011 22.6586 23.2308 22.6586C23.6374 22.6586 23.8731 22.4674 23.8731 22.1999C23.8731 21.9531 23.6874 21.8237 23.3812 21.7796L23.2367 21.7591C23.1042 21.7414 22.9981 21.7148 22.9981 21.6209C22.9981 21.5179 23.0983 21.4564 23.2662 21.4564C23.4458 21.4564 23.6199 21.5238 23.7052 21.5768L23.8377 21.3298ZM22.3678 21.3298C22.2204 21.2327 22.0172 21.1828 21.7932 21.1828C21.4367 21.1828 21.2069 21.3534 21.2069 21.6325C21.2069 21.8619 21.3777 22.003 21.6931 22.0471L21.8374 22.0676C22.0054 22.0912 22.085 22.1353 22.085 22.2145C22.085 22.3234 21.973 22.3851 21.7637 22.3851C21.5516 22.3851 21.3985 22.3175 21.2952 22.2383L21.1511 22.4762C21.3189 22.5997 21.531 22.6586 21.7609 22.6586C22.1674 22.6586 22.403 22.4674 22.403 22.1999C22.403 21.9531 22.2175 21.8237 21.9109 21.7796L21.7668 21.7591C21.6342 21.7414 21.528 21.7148 21.528 21.6209C21.528 21.5179 21.6281 21.4564 21.7961 21.4564C21.9759 21.4564 22.1497 21.5238 22.2352 21.5768L22.3678 21.3298ZM18.8589 21.9149C18.8589 22.1617 18.697 22.3644 18.4319 22.3644C18.1785 22.3644 18.0076 22.1706 18.0076 21.9149C18.0076 21.6591 18.1785 21.4651 18.4319 21.4651C18.697 21.4651 18.8589 21.6679 18.8589 21.9149ZM17.719 21.9149V23.1258H18.0252V22.4469C18.1225 22.5733 18.2699 22.6527 18.4702 22.6527C18.865 22.6527 19.1742 22.3439 19.1742 21.9149C19.1742 21.4856 18.865 21.1771 18.4702 21.1771C18.2699 21.1771 18.1225 21.2565 18.0252 21.3826V21.2122H17.719V21.9149ZM19.7133 21.9177C19.7133 21.6709 19.8752 21.468 20.1405 21.468C20.3937 21.468 20.5648 21.662 20.5648 21.9177C20.5648 22.1735 20.3937 22.3675 20.1405 22.3675C19.8752 22.3675 19.7133 22.1645 19.7133 21.9177ZM20.8534 21.9177V21.2153H20.547V21.3857C20.4499 21.2593 20.3025 21.1799 20.1022 21.1799C19.7074 21.1799 19.3982 21.4887 19.3982 21.9177C19.3982 22.347 19.7074 22.6557 20.1022 22.6557C20.3025 22.6557 20.4499 22.5763 20.547 22.4497V22.6204H20.8534V21.9177ZM10.6397 21.9177C10.6397 21.6709 10.8015 21.468 11.0668 21.468C11.3201 21.468 11.4911 21.662 11.4911 21.9177C11.4911 22.1735 11.3201 22.3675 11.0668 22.3675C10.8015 22.3675 10.6397 22.1645 10.6397 21.9177ZM11.7798 21.9177V21.2153H11.4734V21.3857C11.3762 21.2593 11.2288 21.1799 11.0285 21.1799C10.6337 21.1799 10.3245 21.4887 10.3245 21.9177C10.3245 22.347 10.6337 22.6557 11.0285 22.6557C11.2288 22.6557 11.3762 22.5763 11.4734 22.4497V22.6204H11.7798V21.9177ZM15.5802 21.4533C15.7775 21.4533 15.9041 21.5768 15.9365 21.7944H15.2058C15.2384 21.5915 15.3622 21.4533 15.5802 21.4533ZM15.5859 21.1799C15.1734 21.1799 14.8847 21.4797 14.8847 21.9177C14.8847 22.3644 15.1852 22.6557 15.6065 22.6557C15.8186 22.6557 16.0133 22.6027 16.1841 22.4587L16.0338 22.2322C15.9159 22.3264 15.7657 22.3793 15.6242 22.3793C15.4269 22.3793 15.2471 22.2883 15.203 22.0353H16.2488C16.2517 21.9971 16.2547 21.959 16.2547 21.9177C16.2517 21.4797 15.9809 21.1799 15.5859 21.1799ZM13.2941 21.327C13.1467 21.2299 12.9435 21.1799 12.7195 21.1799C12.3631 21.1799 12.1332 21.3503 12.1332 21.6297C12.1332 21.859 12.304 22 12.6192 22.0443L12.7637 22.0648C12.9317 22.0884 13.0113 22.1322 13.0113 22.2117C13.0113 22.3205 12.8991 22.3821 12.69 22.3821C12.4779 22.3821 12.3248 22.3147 12.2216 22.2352L12.0772 22.4733C12.2452 22.5966 12.4573 22.6557 12.6872 22.6557C13.0937 22.6557 13.3293 22.4644 13.3293 22.197C13.3293 21.95 13.1438 21.8208 12.8372 21.7767L12.6931 21.7562C12.5603 21.7385 12.4543 21.7119 12.4543 21.6179C12.4543 21.5151 12.5544 21.4533 12.7224 21.4533C12.9022 21.4533 13.076 21.521 13.1613 21.574L13.2941 21.327ZM17.2446 21.1799C17.0679 21.1799 16.9528 21.2622 16.8732 21.3857V21.2153H16.5699V22.6204H16.8763V21.8324C16.8763 21.6002 16.9764 21.471 17.177 21.471C17.2387 21.471 17.3034 21.4797 17.3684 21.5064L17.4626 21.2181C17.3948 21.1917 17.3063 21.1799 17.2446 21.1799ZM14.6315 21.2153H14.1306V20.7891H13.8212V21.2153H13.5355V21.4944H13.8212V22.1353C13.8212 22.4615 13.948 22.6557 14.3104 22.6557C14.443 22.6557 14.5961 22.6143 14.6934 22.5468L14.6048 22.2852C14.5136 22.3382 14.4134 22.3644 14.3338 22.3644C14.1807 22.3644 14.1306 22.2706 14.1306 22.1294V21.4944H14.6315V21.2153ZM10.0533 22.6204V21.7385C10.0533 21.4064 9.84137 21.1828 9.49933 21.1799C9.31977 21.1771 9.13409 21.2327 9.00461 21.4298C8.90729 21.2742 8.75419 21.1799 8.5392 21.1799C8.38894 21.1799 8.24154 21.2242 8.12651 21.3887V21.2153H7.82031V22.6204H8.12957V21.8413C8.12957 21.5974 8.26516 21.468 8.47425 21.468C8.67743 21.468 8.78066 21.6002 8.78066 21.8385V22.6204H9.09012V21.8413C9.09012 21.5974 9.23141 21.468 9.43459 21.468C9.64388 21.468 9.74405 21.6002 9.74405 21.8385V22.6204H10.0533Z" fill="black"/>
<path d="M18.2005 10.0664H13.3906V18.6906H18.2005V10.0664Z" fill="#FF5F00"/>
<path fill-rule="evenodd" clip-rule="evenodd" d="M13.6925 14.3794C13.6925 12.6297 14.5136 11.0714 15.7921 10.0673C14.857 9.33271 13.6772 8.89453 12.395 8.89453C9.35925 8.89453 6.89844 11.3503 6.89844 14.3794C6.89844 17.4086 9.35925 19.8642 12.395 19.8642C13.6772 19.8642 14.857 19.426 15.7921 18.6915C14.5136 17.6871 13.6925 16.129 13.6925 14.3794Z" fill="#EB001B"/>
<path fill-rule="evenodd" clip-rule="evenodd" d="M24.5188 17.7859V17.5731H24.4632L24.399 17.7195L24.3349 17.5731H24.2793V17.7859H24.3184V17.6253L24.3787 17.7638H24.4194L24.4797 17.6251V17.7859H24.5188ZM24.1659 17.7859V17.6094H24.2374V17.5735H24.0558V17.6094H24.127V17.7859H24.1659ZM24.6904 14.3872C24.6906 17.4162 22.2296 19.872 19.194 19.872C17.9116 19.872 16.7318 19.4338 15.7969 18.6995C17.0754 17.6951 17.8963 16.1368 17.8963 14.3872C17.8963 12.6377 17.0754 11.0794 15.7969 10.0751C16.7318 9.34072 17.9116 8.90234 19.194 8.90234C22.2296 8.90234 24.6904 11.3579 24.6904 14.3872Z" fill="#F79E1B"/>
</svg>
